<?xml version="1.0" encoding="UTF-8"?>
<svg width="2370" height="1200" version="1.1" xmlns="http://www.w3.org/2000/svg" xmlns:cc="http://creativecommons.org/ns#" xmlns:dc="http://purl.org/dc/elements/1.1/" xmlns:rdf="http://www.w3.org/1999/02/22-rdf-syntax-ns#">
 <metadata>
  <rdf:RDF>
   <cc:Work rdf:about="">
    <dc:format>image/svg+xml</dc:format>
    <dc:type rdf:resource="http://purl.org/dc/dcmitype/StillImage"/>
    <dc:title/>
   </cc:Work>
  </rdf:RDF>
 </metadata>
 <!-- path id="ocean" d="m555 1200c-749-228-730-980 0.88-1200l1258 0.0434c761 235 722 985 0.4 1200l-1260-0.172z" fill="#08f" stroke="#000" stroke-width="0"/ -->
 <g>
  <path id="ice" d="m1378 27.7c-1.7-0.0449-4.37 0.628-8.1 2.41-3.78-0.412-10.8 5.63-13.4 5.19-2.25 1.08 2.17 1.55 3.17 1.66 6.17-1.77 1.32-2.49 6.34-0.963 4.08 0.228 19.4 3.61 28.9-2.11-4.23-2.47-10.4-3.16-14.9-3.29 0.783-1.59 0.185-2.84-2-2.89zm150 3.42c-7.53 0.132-16.1 3.28-12.5 7.61 7.44 1.11 38.2 8.52 41.5 4.6-7.02-5.39-21.7-4.98-19.4-8.81-0.96-2.48-5.12-3.49-9.64-3.41zm-182 1.1c-0.596-0.0119-1.13 0.0421-1.56 0.167-5.49 4.29-7.69 0.233-16.5 1.55-4.33 2.51 18.4 3.98 23.1 4.17 3.06-2.89-2.66-1.79 0.856-4.15-1.76-1.08-4.1-1.71-5.89-1.75zm-120 2.21c-4.2 0.0126-7.74 0.519-9.72 1.97-25.3 0.167-29.7 1.5-29.5 3.35 4.45 8.06 2.43 5.8 21.2 14.8 5.05 2.45 7.02 2.23 7.71-0.856 4.42-9.42 19.8-6.14 15.2-3.51-2.84 4.08 13.6 2.25 15.6-0.776-6.47-2.32-28.5-5.38-14-8.19-1.27 2.09 26.8-1.06 20.6-4.5-5.68 0.0678-18-2.29-27.3-2.27zm336 6.05c-0.878-0.014-1.55 0.0463-1.94 0.199-0.188 2.67-0.749 5.49 0.085 7.84 1.88 0 19.6-1.83 21.2-2.19 2.98-1.95-13.2-5.75-19.4-5.85zm19 9.03c-1.37-0.0128-2.66 0.0668-3.6 0.268-3.25 0.705-4.97 3.39-3.43 5.22-0.073 0.988-12.1 3.73-13.3 2.81 0.856-1.46-15.7-0.194-17.2 1.31-7.2 2.3-15 3.11-22.3 5.68-0.357 3.83-4.77-0.404-5.91 2.28-0.442 2.35 5.76 1.26 8.65 3.51-5.69 2.58-18.8 1.23-25.6 2.25 4.79 5.77 19.3 10.5 16.6 10.7-9.44-0.265-36.7-12.2-40.5-7.9 2.21 5.47 12.1 0.134 0.772 9.9 5.14 3.34 8.75 8.3 11.3 14.3 2.03 1.98 14.9-0.485 9.16 1.12-4.62 3.12-1.37 6.5-1.46 11.5-1.22 2.39-5.98 5.49-7.88 5.11-6.71-1.7-1.61-1.78-0.257-4.76 3.17-4.54 3.54-8.55-1.11-10.6-3.87-2.08-6.66-6.74-7.62-11.1-9.25-7.28-5.61-10.6-6.59-12-1.97-2.01-13.4-2.89-9.94-3.08 6.98-0.808-7.02-4.26-6.68-1.58-0.849 3.27-2.98 10.5-4.45 11.4-5.85 4.53 1.67 3.77 1.71 8-0.263 5.08 15.5 6.74 13.3 10.4-12-2.36-25.6-7.83-38.1-8.64-3.72 0.826-12.3-5.81-14.7-3.46-0.481 5.1 9.29 5.15 12.8 8.3 1.77 1.97-3.33 4.67-4.8 3.11-3.03-3.93-7.6-0.538-14.9-0.35-1.24 2.67-12.3 2.66-9.42-1.77-2.67-2.07-8.69 1.78-11.8 2.14-4.28-5e-3 -7.37 3.94-11.5 4.15-4.61 0.516-1.8 9-14.1 5.54-4.81-2.59 0.086-4.16 3.68-5.14-5.03-5.66-22.2-7.37-16.5-3.43 4.8 1.41 0.981 7.09 4.71 8.83 6.47 5.41-4.5 5.88-6.42 2.25-2.38-0.363-3.93 2.86-6.85 3.9-2.57 0.812-4.14 2.3-6.25 3.99 8.78 9.43 0.403 4.18-13 2.03-4.57 4.37 4.91 4.39 6.76 6.4 0.856 2.19-4.37 1.89-8.82-0.506-4.16-0.637-5.63-3.36-7.79-5.47-2.05-8.38-3.85-5.69-7.97-9.34-0.342-0.814 1.2-0.735 6.51 0.352 17.9 3.66 22.9 3.65 28.2-0.103 7.2-3.91-5.57-12.1-7.71-10.7-4.28-1.42-9.6-3.38-13-4.85-5.9-3.31-14.7-0.816-19.7-4.52-4.74-2.88-11.1-1.14-15.8-1.71 1.96-0.54 4.26-1.65 5.22-2.86-3.17-0.506-12.8-4.4-15.4-4.42-7.71 1.31-8.95-2.2-12.1 0-3.29 1.57-16.2 0.635-15.4 3.43-2.53 2.12-7.97 3.02-8.22 2.78-2.06-1.94-7.62-1.1-7.62 1.15 0 1.24-0.086 1.31-3.17 1.64-5.01 3.55-16.9 3.81-15.9 7.07 0.1 2.31-6.94 0.513-7.45 3.59 2.26 1.55 3.87-0.618 6.85-1.26 4.62 1.87-5.11 11.1-7.71 11.8-4.1 4.01-8.19 10.5-8.48 10.6-7.5 6.48-11 4.89-12.3 6.34-4.87 5.01-11 6.5-15.8 9.32-2.57 1.56-2.65 1.81-2.74 8.08 0.746 5.33 1.49 13.3 1.71 13.4 3.66 5.65 11.3 9.25 17.1 5.59 1.63-1.16 4.54-2.92 6.59-3.93 1.97-1.01 3.68-2.49 3.68-3.27 0.35-2.07 3.31 4.19 3.34 4.87 0.954 4.1 3.83 8.36 6.42 11.1 2.34 2.26 2.39 4.19 0.599 6.06-5.98-0.371-8.04 2.24-8.74-0.326 2.92-3.12-4.93-3.81-1.8-5.97 1.03-0.608 0.941-5.59-0.086-5.59-1.77 1.67-4.8 4.24-7.62 4.28-4.62 0-7.79 9.12-4.37 12.7 1.81 2.31-0.381 2.98-0.085 4.93 2.35 2.45 2.39 7.36-2.4 6.7-3.7-0.923-6.48 2.08-9.85 1.63-4.03-0.591-7.71 1.67-8.39 5.14-0.856 4.56-6.51 9.7-12.9 11.8-3.77 1.24-4.37 1.75-4.97 4.52-0.864 5.16-6.21 2.89-8.48 6.59-3.89 3.74-11.1-5.93-11.4 0.136 1.8 5.79 1.63 6.28-1.88 6.26-4.61-0.473-9.65-1.61-14 0.481-2.55 2.94-0.303 6.17 1.97 6.32 11.7 0.675 17.7 16.1 14.1 27.7-0.942 3.14-3.34 4.83-5.74 4.07-10.4-2.74-19.5 0.905-28.9-2.38-3.6-1.2-12.8 3.72-11.6 7.31 0.428 1.17 0.942 4.79 1.03 8.03-0.043 7.45-1.91 11.7-5.05 16.6-0.699 8.54 3.42 9.68 2.05 15.4 1.53 6.37 11.8-3.3 15.3 4.9 4.75 7.95 3.63 2.62 0.427 10.3-2.91 7.09-4.88 9.38-10.2 11.9-8.87 3.81-8.48 7.91-12.2 13.2-6.44 14.9 2.18 20.5-20.8 28.2-2.26 1.11-14.9 18.3-15 20.8-6.05 10.1-13.3 19.8-16 31.4 0.294 3.25 3.36-0.0866 4.45 14 1.48 12.4-3.8 25.5-8.99 32.3 9.22 6.49 0.886 14 6.85 20.1 7.33 7.47 9.29 9.33 15.4 15.8 3.11 3.36 6.85 13.4 7.28 16.6 7.87 5.67 14.9 11.1 20 15.7 10.4 9.38 12.9 10.2 20.7 6.4 4.54-2.19 6.77-2.71 13.3-3.02 7.19-0.351 11 0.231 15.1 2.24 6.79 0.737 12.5-6.61 19.4-6.96 5.91-3.02 12.2-4.27 17.9-4.47 6.59-0.711 12.7 3.82 13.1 10.8 3.05 7.51 12.7 3.53 19.4 2.78 8.3 0.855 10.3 14.9 7.02 21.9-0.892 2.2-0.541 17.7-4.37 15.6-2.72 10.9 20.8 27 21.6 37.2 6.32 10.1 5.76 27.1 7.71 32 1.88 4.75 2.74 8.36 2.65 10.9-6.03 8.76-6.21 24.2-12.8 32.6-3.77 16.2 5.61 26.1 10.5 38.1 7.26 12.7 6.77 24.9 9.42 39.3 1.64 12.3 25.8 39.8 17.4 48.7 1.27 10.6 4.31 8.27 9.16 13.5 1.88 2.14 3.6 2.14 5.74 0.257 6.68-5.69 21.4-3.52 28.5-3.68 9.26-2.55 19.7-6.9 26.6-14.4 9.8-3.75 11.6-23.4 21-25 9.85-15.2 3.86-23.9 14.1-28.2 13.4-9.63 5.72-24.6 5.57-34.7 1.62-4.24 20.8-21.7 23.7-22.9 7.44-2.75 13.6-9.02 16.4-16.4 1.09-7.22-0.761-14.7-0.686-21.6 0.87-20.2-3.45-13.1-5.4-21.6 0.049-11.1-2.16-15.8-4.88-23.4 1.61-16 14.3-24.9 20.2-35.2 3.68-7.25 15.2-19.7 22.4-24.1 4.62-2.89 18.2-17.8 18.2-20 6.54-12.4 16.8-24.6 17.1-38.5 4.16-4.84 2.53-20.3-3.25-14.9-7.75 5.63-26.3 4.74-33.1 8.77-17.8 6.35-13.1-13.4-16-16.6-13.2-16.9-22.5-16-24.7-25.1-2.69-15.4-13.6-17.1-14-30.4-4.29-18-9.89-22.2-16.6-34.8 0.542-4.19-15.4-27-15.6-29.7 1.03-3.35 6.24 9.79 9.85 10.5 1.65-0.774 2.9-2.53 4.79-2.57 3.15 2.2 6 7 8.05 10.9 2.55 3.05 9.19 17.2 10.5 17.4 3.54 1.46 8.16 10.8 7.54 14.6-2.33 8.37 14.9 19.2 14.9 23.2 0.3 2.88 11.8 16.3 3.17 15.1 5.78 10.9 12 11.6 13.5 26.8 2.35 15.1 14 0.961 19.8 0.856 21.4-0.7 35.3-26.5 52.9-26.6 23.1-15.2 30.5-21.3 31.3-40.6-6.89-9.34-23.9-12-24.2-24.5 0-5.34-1.03-6.35-2.83-2.76-20.2 30.1-30.2 15.1-28.9 0.0498-15.3-0.672-12.1-6.66-18.4-14.4-11.1-12.2-0.533-13.5 4.8-14.9 6.32 3.1 7.49 14.4 14.7 17 12.5 6.51 12.9 9.89 23.7 8.54 4.1-0.482 6.29-5.72 8.56-2.68 2.91 8.58 6.9 10.5 13.9 11.4 13.8 1.87 29.1 3.02 41.8 1.15 9.91-3.74 11.6 11 16.4 11.3 12 7.67 5.63 6.51 7.88 10.3 0 1.63 11.8 12.8 13.5 12.7 14.4-6.02 9.36-3.76 12.8 8.48 3.05 10 4.73 20.3 9.17 29.4 2.95 5.54 6.07 11.5 7.54 17.3 2.23 9.36 11.2 17.1 11.7 26.8 0 2.23 4.62 9.33 6.85 10.5 7.65 0.998 5.51-9.44 13-7.23 3.64 9.8e-4 -2.04-1.28-0.684-5.83 8.25-2.06 1.63-12.8 4.62-17.1 1.37-1.62 1.46-8.62 0.256-15.2-1.71-9.17-1.29-11.6 2.14-10.8 1.26-0.217 9.73-7.34 9.76-8.22 2.04-6.01 9.65-9.74 13.5-15.3 2.63-4.49 7.51-5.83 11.1-9.11 3.51-3.47 0.164-6.57 2.74-9.69 5.24-3.44 9-0.148 14-1.76 7.66-2.26 9.01-2.23 10.7-7.23 1.99 1.6 4.31 4.94 4.37 6.5-2.24 4.4 13.7 16.4 13.4 17.3-0.377 10.2 2.41 0.938 6.17 9.26 2.18 6.52 1.23 9.94 0.772 16.8 5.54 2.29 17.1-2.02 17.3-7.71 0.086-2.68 5.74 9.21 6.51 13.5 0.494 3.56 10.6 27.4 3.77 24.8 1.25 4.36 10.8 6 0.856 6.26 3.14 3.89 3.29 9.13 2.31 13.4-0.856 3.61 0.256 11.1 1.37 9.9 3.69-1.94 5.92 2.81 8.31 5.97 1.84 10.3 4.87 0.97 4.97 11-0.578 5.94 6.81 15.8 7.02 18.5 0 1.37 1.63 3.02 6.17 6.07 2.32 6.69 12.6 6.4 12.7 10.7 0.797 2.59 7.03-3.2 1.03-3.56 0.2 0.0378-0.652-3.32-0.77-4.71-6.3-8.08-2.97-15.1-5.65-23-0.624-1.37-12.9-15-14.3-14.7-4.29-4.19-8.46-19.8-9.68-21.4-6.73 9.78-3.98-7.09-2.83-11.5 1.9-3.97 0.285-14.8 4.11-15.3 4.85 0.82 0.828 6.56 5.4 6.53 4.88 1.04 11.2 5.55 12.4 11.1 0 1.32 3.08 4.5 4.37 4.5-1.75 1.6 11.4 1.97 8.65 4.21-1.54 0.942-1.2 10.4 0.429 10.4 5.31-1.47 12-13.2 13-13.9 5.1-0.427 7.53-5.18 11.8-6.64 4.43-5.8 1.52-12.3 0.858-17.8-0.476-4.54-5.99-18.2-9.94-19.5-1.97-0.625-12.1-10.3-12.1-11.5-2.46-3.75-5.8-7.04-5.82-10.8 0.017-5.71 12.2-18.2 17.6-16.2 1.66 0.724 5.72-0.138 5.05 1.74-0.295 0.807-0.045 2.18 0.475 3.56-4.98 1.01-6.35 10-2.41 12.2 9.17 3.24 8.94-4.1 12.1-9.52 0.977-3.5-1.75-3.63-4.48-3.28-0.116-1.7 0.178-3.24 3.68-3.85 2.96-3.45 15.6-1.38 14.6-8.16-1.2-4.04 4.42 6.09 4.71 1.79 2.87-3.86 12.5-3.08 14-6.88 1.43-3.59 13.2-9.19 11.2-13.1 2.78-1.66 7.27-16 7.37-18.2 2.32-10.8 7.01-14.4 4.11-23.6-5.07 5.03-2.61-2.17-5.82-8.76-2.86-4.41-7.03-5.11-9.42-9.31-3.43-6.02-7.19-9.94-11.1-11.8-3.85-1.81-4.2-2.23-3.68-4.2 0.356-8.27 13.9-10.9 14-14.2 3.37-1.61-18-6.65-16.8-4.01-0.56 4.25-5.18 3.91-6.34 0.341-0.948-6.66-11.7-3.3-12-9.34 2.53-4.2 9.28-3.9 12.8-11.3 2.08-5.84 9.72-2.15 7.71 2.22-0.837 1.77 0.821 10.5 0.942 10.5 0.428 0 2.23-1.59 4.11-3.53 4.24-4.36 11.7-5.55 17.2-2.44 1.99 0.383 1.62 12.4 2.57 11.1 1.64-2.07 17.6 6.04 12.8 6.85-1.46 0-0.942 1.49 1.54 4.12 3.6 3.96 4.37 5.08 3.85 5.65-2.06 3.38 0.986 5.63 1.03 8.38 0 1.8 0.343 1.94 3.85 1.74 4.2-0.894 13.5-3.6 13.7-8.19 0-3.42-5.05-12.3-9.16-16.2-3.55-5.98-11.5-8.01-15.3-13.3-1.79-4.9 10-6.94 6.77-13.4-5.08-15.5 12.4-9.93 16.2-10.7 2.74-1.03 7.54-6.56 7.54-8.64 5.06-6.67 2.56-24.7 4.97-30.8 0.55-3.35-3.91-13.6-5.91-15.2-3.17-2.19-6.51-11.3-4.2-11.3 7.07 4.13 13.4 11.6 17 18.9 1.82 4.38 6.3 7.12 7.88 11.4 2.61 5.11 5.2 9.66 9.59 13.8-0.47-2.92-1.65-6.3 1.2-5.76 1.85 0.138 5.35 4.15 5.48 2.68 0-1.61-2.74-5.06-4.11-5.06-8.4-5.37-9.24-7.49-12.6-15.6 1.86-4.05 11.5 3.5 11.6 2.12-2.74-2.7-6.32-4.76-9.08-7.42-1.88-1.92-6.77-6.56-11-10.3-5.98-5.54-20.7-23.1-24-22.2-1.2 0.454-0.942 0.849 1.28 2.2 4.09 15.8-2.47 4.86-13.2-0.693-13.8-0.555-35.1 0.0726-28.7-9.08 3.68-4.7 5.05-7.34 3.94-7.71 0.7-2.88 5.73-18 7.11-18.5 2.83-1.07 15.1-1.21 15.8-0.19 0.257 0.497 1.28 0.91 2.23 0.91 0.942 0 1.54-0.309 1.28-0.668-0.171-0.368 2.74-0.549 6.51-0.429 8.21 2.14 5.5-3.39 7.36-2.86 8.5-1.03 13.8 5.68 14.9 5.7 4.34-0.249 25-1.87 12.2-5.24-5.96-1.85-2.3-13.9 1.8-14.3 4.71-4.59 15.2 5.68 15.9 5.35 17.1 4.81 7.37-10.7 7.54-10.8 6.12-1.88 4.49 7.15 9.16 7.85 0.326 4.17-4.6 10-3.68 15.4 0.777 3.68-2.68 8.52-5.57 8.57-1.93 2.93-0.355 2.4 2.14 6.26-0.685 3.6 3.77 9.45 13.7 18 6.57 7.44 1.54 2.33 15.2 13.3 4.18 2.97 11.3 14.1 14.1 8.68 2.51-5.47-4.95-9.94 2.31-13.1 1.89-2.05-6-4.62-4.88-8.17 5.37-8.57-8.72-15.1 2.74-12.4 0.771-0.805-3.17-4.84-4.8-4.87-5.31-1.42-6.4-9.33-11.7-8.16-4.44 1.76-8.59-13.4-7.79-13.3 7.87-6.71 34.4 2.01 32.5-2.14-2.73-13.2 26.4-14 26.4-15.6-2.76-5.44-19.8-8.84-21.4-13.2 4.07-9.48-2-6.39-4.71-10.1 10 0.781 23.1 7.87 32.7 8.59 5.24 1.06 16.9 2.88 17.4 2.57-10.2-9.72-3.19-7.24 7.71-5.83-13.3-12.9-35.5-8.55-48.4-14.2-4.62-2.25-43.1-11.9-55.7-13.9-4.2-0.685-11-1.39-15-1.58-17.1 0.372-17 2.58-37.7 1.58-6.94-0.223-22.7-0.292-24-0.103-16.6-5.01-24.3-9.04-40.3-8.4-23.5 0.0451-44.5-8.03-67.1-10.2-20.6-3.35-18.2 1.56-17.9 2.57 13.2 7.02 4.68 3.88-5.48 3.85 0.074 2.58-21.6-1.28-21.2 0 5.02 11.1-12.4 0.354-15.6-2.46-9.04-7.84-21.3-7.96-32.7-10.5-7.61-0.891-5.95 0.517-2.57 4.36-19.6-0.747-18.6-3.61-45.1-3.16-5.85-2.06-10.2-4.89-12.7-8.75-1.51-7-19.3-8.96-23.7-8.99-14.1-1.05-19.5-4.97-33.8-5.52zm-936 1.37c-7.02-0.166-37.1 5.87-38.1 8.32 2.74-0.686 24.7 5.93 26.1 7.26 3.43 4.88 12.8 1.24 14.3 0.99 5.34-0.901 13.4-1.84 17.9-2.09 11.1 0.265 26.3-7.36 7.42-6.48 3.25-4.29-0.585-4.47-3.83-3.51-7.49 2.01-3.41 5.76-9.02 5.89-6.37 0.106-6.27-4-12.6-4.74-8.69 0.259-1.21-3.26 0.427-3.62 5.12-1.58-0.955-2.04-2.57-2.03zm785 2.41c-2.43 0.1-4.82 0.734-6.72 1.9-6.08 3.21-23.9 0.505-27.6 4.36-1.62 2.43-10.5 2.7-10.2 4.98-3.35 9.17-6.28 9.72-11.2 18.5 1.99 5.52 29.7 11.4 31.5 7.5-0.597 1.58-19.3-5.9-12.7-12.1 3.63-2.48 6.35-10.1 11-11.1 7.25-4.38 13.5-5.71 19.4-6.88 15-2.96 18-4.86 10.8-6.8-1.4-0.325-2.87-0.456-4.33-0.396zm315 4.86c-3.57 0.0236-6.4 0.497-6.44 2.18 0 2.42 3 3.89 12.8 6.16 6.96 0.564 24.2-0.0893 25.4-3.67-4.87-4.6-10.8-2.49-18.7-4.12-2.68 0.141-8.49-0.574-13.1-0.544zm-1141 8.89c-8.18-0.0331-17.1 2.29-22.3 5.47-5.62 3.06-17.3 5.95-21.4 10.4 34.3 5.61 33.6 9.39-6.34 14.1 5.75-5.86-27.2 4.07-24.4-3.64-7.95-7.99-49.8 12.8-49.8 4.63-9.01-9.24-56.2 0.437-60.9-9.9-23.7 0.168-60.8 2.61-80.9 18.3 12.1 12-9.53 10.1-10.7 10.4-2.9 1.04-27.5 4.72-22.4 6.83 3.15 11.8 11.1 7.06 21.1 7.23-0.752 3.7-19.5 7.58-22 7.18-8.18 1-17.3 7.62-24.4 9.42-20.3 19.4 15.5 12.6-5.51 21.1-4.06 3.76 13.7-2.14 13.1 1.39 26.2-7.4-15.4 12.5-29.5 17.5-22.6 2.92-28.5 4.38-33.6 11.3 4.15 1.2 26.9-8.36 28.2-4.47 11.3-2.03 22.8-10.2 33.6-12.4 1.85-2.74 45.8-21.5 45.4-16.6 5.27-1.63 26.5-2.96 31.2-5.22 9.61 1.2 11.3 0.817 20.7 0.213 12.6-1.03 23.4 12.2 18 19.4 3.44 7.33-5 16.3 2.65 17 2.66-0.0307 8.08 15.1 5.54 19.5 3.53 10.1-7.3 9.61-7.28 10.1-5.57 0.714 13.3 16 10.1 15.8-2.6-0.197-2.95 0.25-5.09 6.91-1.42 4.44-6.33 13.6-8.48 15.8-10.4 8.91-13.9 22.9-21.1 31.8-2.21 2.38-4.23 14.2-3.53 15.8 1.24 11.1 2.73 18.1 3 28.5 16 9.04 13 15.7 15.9 29.6-0.533 6.16 3.27 10.3 6.05 14.6 0.856 0.409-1.91 9.77 1.88 16.1 9.73 4.45 5.28 8.18 4.09 14.3 5.56 4.21 9.31 12.5 12.2 14.2 8.25-2.99 0.607-8.32-1.4-16.8-0.37-3.93-3.78-16.9-6.74-18.7 0.323-13.9-0.311-7.41-5.52-15.5-2.23-3.73-0.448-14.7 2.92-13.3 7.43 1.94 5.52 5.08 6.24 10.7 1.43 13.1-3.38 5.72 4.04 13.5 4.93 7.81 9.11 14.4 7.95 18.2 9.02 11.6 18.9 18.6 18.9 33.3 0.194 6.11-3.93 8.02-0.72 13.1 6.85 7.53 28.6 21.1 35.3 22 14.3 8.38 16.4 4.75 27.9 3.43 3.48 0 7.77 2.77 11 7.07 5.34 7.14 7.93 9.17 12.6 9.93 14.5 3.42 29.2 14.2 30 24.8 5.21 2.04 13.6 15.6 14.2 15.6 9.11 2.02 15.8 10.7 19.9 8.81 1.93-10.4 7.72-12.4 15.6-0.959 5.41 8.99 3.42 31.6-2.73 35-5.66 3.25-3.64 9.61-8.51 11.5-7.07 0.121-7.56 23.3-9.28 23.7 1.33 7.54 0.957 7.14 0.883 12.2-6.41 2.36-1.02 17.8 2.28 19.5 6.9 4.97 11.5 14.4 15 22.2 1.35 4.37 17 30.5 16.8 31.3 3.78 20.7 37.1 23.1 42.9 39.6 1.38 12.6 6.19 62 3.72 71.7 3.39 20.6 7.01 32.3 4.71 54.9-3.02 12.9 3.94 30.2 6.77 44.3 2.91 12.5 5.12 25.6 4.44 34.4 12.3 26.5 28.9 43.1 38 51.6 10.3 3.4 14.6 10.4 28.7 10.5 9.19 4.04 12.3-1.92 14.6-3.26 11.7-3.87-6.23-2.86-17.1-13.3-3.24-6.08-12.9-11.5-13.4-18.3 8.2-6.63 1.2-9.4 8.35-15.8 8.32-9.19-10.1-10.9-12.6-15.1 12.3-8.38 0.171-20.5 12.4-24.9-3.85-13.2-10.5-1.48-11.5-14.4 13.3 6.27 20.7-2.21 13.9-11.5-3.83-4.43 21 2.45 25.4-9.94 2.51-8.32-1.31-19.7-8.73-24-2.3-0.616-4.57-5.88-1.79-3.38 17.4 3.16 24.1 10.9 29.3-4.5 2.87-9.33 12.7-18 14.6-26.1 1-4.51 3.61-9.42 5.62-10.5 4.57-4.51-1.02-24.6 1.16-24.8 12.7-9.02 18.2-16.9 33.7-17.4 3.75 0.43 11-7.96 10.5-9.56 2.36-2.14 7.65-27.5 7.69-27.5 4.7-5.01-1.18-37.1 4.28-37.3 4.07-10.1 16.7-21.3 20.9-31.2 2.32-10.2 0.914-17.6-2.91-26.8-9.99-1.92-13.2-3.79-18.1-8.49-17.7-8.87-32.4-10.8-45-20.8-6.74 1.62-17.9-5.87-25.5-8-7.13-3.94-13.7-18-13.9-27.8-0.416-6.11-20.5-20.4-31.6-17.4-12.7 0.949-13.6-8.12-17.9-13.4-3.07-4.26-14.9-6.52-13.2-9.07-4.8-4.86 1.73-15-1.21-13.9-13.3 2.94-14.4-0.818-23.7 4.71-1.68-3.67-22.7-1.32-22.8-4.61-6.1-7.17-9.57-12.4-11.6-10.2-3.15 10.7-10.4 13.3-7.52-0.994-3.87-0.0648-18.1 10.4-22.4 9.37-3.47-0.874-8.2 6.11-7.43 11-1.61 2.74-9.24 5.97-8.68 9.02-7.29-4.44-12.2-11.1-21.3-6.4-12.1 6.28-15.5-1.37-21.4-12.8 0.256-5.47 4.12-25.8 6.07-29-0.0685-5.53-14.8-10.3-18.6-8-5.04 1.9-12.9-0.154-16.7 0.318-0.827-14.8 19.5-29.8 17.8-40.3-1.97-3.57-21.4-0.896-23.5 3.5-9.14 23.7-23.4 18.3-35 15.5-4.03-2.09-10.9-20.6-9.98-26.7 4.82-18.9 10.6-39 23-46.5 6.63-4.63 22.3-10.4 28.8-4.79 26.5 3.36 17.3-14.5 35.8-6.03 12.8 12.3 15.7-5.28 16.1 14-0.685 1.32-1.15 3.31-1.01 4.44 1.31 8.79 4.6 15.8 10.1 19.7 11-0.929 5.17-28.3 4.51-31.1-2.98-11.2 4.54-21.3 12.9-25.6 3.98-3.01 19.2-14.3 23.9-14.5 12.8-11.8 20.3-21.7 19.1-30.6-0.248-1.52-0.0941-2.99 0.343-3.26 0.445-0.274 0.806 0.0944 0.806 0.831 0 1.89 0.539 1.72 4.61-1.61 1.98-1.63 4.12-4.29 4.76-5.91 1.04-2.66 1.64-3.05 5.97-3.94 5.96-1.22 10.8-3.25 8.21-3.48 15.8-0.61 10.5-9.37 11.2-9.95 3.43-5.9 8.73-9.19 14.1-11 9.39 0.109 18.7-11.9 27.8-9.85-3.26 4.45-15.8 6.73-10.3 12.5 12.8 1.93 17.8-9.34 32-11.2 3.45-3.75 9.91-4.63 10.4-7.07-4.85-1.82 0.431-4.38-1.5-6.37-14.4 8.32-19.5 4.53-25.6-0.239 3.93-6.31 10.8-16.3 2.01-16.2-8.23 2.77-4.81 0.534-7.49-2.25 6.77-6.44 18.5-4.28 25.1-4.26 23.3 2.99 25.4-8.49 36.1-8.64 4.76-0.633 0.656 1.94-1.21 3.75-16.8 18.1-25.7 23.2-10.7 24.1 21.8 0.874 20.1 0.677 18.8 2.17-0.995 13.2 10.6-1.53 9.04-5.65-3.95 0.519-5.86-5.19-1.28-7.61 1.69-2.42-1.05-3.02-0.932-4.95-8.11 3.98-7.43-2.27-12.8-3.39 6.42-5.81 5.3-2.59 7.95-7.61-7.4-2.07 1.56-4.06 3.32-10.4 0.662-10-6.36-17-17.3-18.4-8e-3 -14-6-19.6-4.33-37.1 0.296 2.14-8.36 7.16-9.37 8.11-2.89 2.63-12.3 9.78-15.7 7.14-6.71-4.65-4.72-11.6 0.479-16.5-8.03-3.56-8.32-3.35-15.2-11-8.3 0.987-24.1-3.9-25.3 4.95-16 17.8-12.7 14.3-11.6 28 0 2.12-3.19 8.78-4.98 10.4-7.14 5.12-14.9 7.87-23.3 9.34 3.35 10.1-14.2 31.9-15.4 22.9-11.8-2.92 9.18-19.9 3.53-25.2-14.1 2.45-20-9.05-29.4-12-5.52-2.81-9.08-2.42-14.6-1.31-0.634 8e-3 0.333-4.45 1.75-8-0.692-3.66-8.41-2.01 2.51-15.1 0.325-9e-3 2.88-1.73 5.68-3.83 10.7-7.32 24.1-11.2 34.5-17.7 6.89-4.29 12.2 1.22 16.9 1.1 8.78 4.12 1.71 2.32 12.9-0.136 8.76-6.64 7.6 3.05 17.1-0.0766 0.821-11.8 12.4-29.2 19-31.6 1.86-7.82 17.1-7.29 10.2 2.38 15.4-2.54 3.35 1.8 5.14 5.35 18.2-2.25 20.4-0.347 12.8 4.66 3.37 7.96-34.6 8.09-30.5 13.7 14.9 0.357 25.2-3.86 25.5 7.33 3.65 5.83 31.2 14.3 30.5 10.3-5.1 1.12-8.15-8.54-1.63-7.36 6.32 4.21 5.21 1.54 10.3-3.37-11.7-13.4-2.44-15.8 7.41-10.6 7.65-2.14 14.5-6.17 20.7-10.9-5.2-4.85-18.6-8.2-23.3-13 20.1-14.7-25.5-19.3-19.7-26.1 0-2.46-3.03-3.77-9.85-4.26-9.79 0.466-15.8 0.583-27-0.724-5.85-2.28-22.3 2.8-29.3 9.07-11 8.24-7.3 15.9-0.163 13.3-21.1 30-21-3.71-21.7-10.3 3.87-4.17 30.1-11.6 28.9-12.9-3.74-1.24-7.55-0.738-11.5-1.26-2.4-0.333-12.7 2.2-14.4 3.67-5.76 2.71-5.45 8.36-10.7 10.5-4.95 1.37-9.94 7.12-12.7 8.62-11.9 4.84-18.8 8.76-23.7 13.9-1.79 1.87-2.65 2.03-11.6 2.17-13.5-0.462-16.7-3.55-2.19-4.82 2.98-3.31 14.3-5.36 14.8-8.94-0.0171-0.899-3.61-2.86-7.9-4.31-4.31-3.24 13.5-15.7 14.8-16.9-1.32-1.85-20.5 2.49-21.6 3.64-8.42 10.9-2.46 3.99-5.43 0.615-7.49-2.1-18.1 2.48-22.6-5.49-3.49-3.59-9.43-5.04-15.8-5.06zm99.7 2.95c-11.8 1.63-13.4 0.574-19.2 2.46-0.532 7.54-6.58 1.77-11.7 4.39-2.62 4.79 5.62 4.31 5.57 8.37 5.33 3.63 14.4 0.401 19.8-4.71 3.49-3.08 6.28-6.76 5.57-10.5zm353 46.9c-7.59 0.292-19.3 4.56-19.8 3.41-4.19 4.39-6.43 0.0115-10.3-2.22-5.05-3.31-9.1 1.66-12.9 4.6-0.462 2.08 16.7 1.66 4.54 3.54-4.03 0.557-5.05 1.04-4.45 2 7.86 0.747 12.8-1.07 4.71 5.46 0 0.865 1.03 1.11 4.11 0.935 7.69 0.809 14.1 3.85 21.4 1.41 4.99-1.94 22.8-6.25 23.3-11.2-7.07-3.18-3.3-7.93-6.17-7.44-1.12-0.472-2.65-0.617-4.41-0.55zm194 5.28c1.9 2e-3 3.8 0.264 5.52 0.59 5.72 1.64-3.73 6.58-7.57 11.2-5.47 6.6-6.25 10.9-6.56 18.8-0.254 6.37 4.29 5.12 8.39 8.11 0.171 0.565 2.57 0.283 6.59-0.797 5.76-0.242 11-2.67 15.9-3.06 9.64 0.0103 8.19 1.28 4.71 5.33 0 1.07-4.28 1.05-12.8-0.0766-11.4 1.14-6.89 8.34-13.9 3.72-2.55 0.363-5 4.02-4.54 5.73 0.145 6.02-3.52-0.327-3.6 15.7 0.514 4.36-0.943 6.83-3.94 6.83-0.367 1.94-6.77 7.33-7.88 2.59 1.54-2.52-10.6-1.34-12.8 1.23-3.53 2.01-14 4.3-14.1 0-4.09-3.55-14.5 5.26-14.6 2.22 6.82-6.93 7.33-1.76 7.11-8.91 3.14-4.66 1.62 0.7 6.6 0.718 3.17 0 3.85-0.308 4.11-1.69 6.8-4.16 10-5.58 11.6-4.76 1.03-1.05 3.08-7.15 2.66-7.61-3.78 4.96-1.8-2.24-1.28-7.89 3.97-2.43 17.5-8.32 6.51-13.4-8.41-4.6-4.5-4.53-4.45-10.5 1.4-4.25 7.8-9.93 12.7-10.2 5.55-3.5 7.91-10.4 10.2-12.8 1.72-0.71 3.63-0.967 5.53-0.965zm-135 41.8c-0.787-7e-3 -1.81 0.684-2.83 2.41-2.53 4.93-8.05 1.15-10.5 4.69-2.26 5.13-5.93 3.83-7.62 5.19 0.176 3.03-2.01 4.94-2.91 7.79 8.69 1.16 4.75 1.07 1.71 4.96 3.86 0.572 6.91 7.64 8.39 8.11 7.79-2.87 5.38 0.117 7.71 2.7 2.69 4.6-0.368 6.4-4.28 5.92-4.92 0.127-0.459 0.353-5.4 4.93 12.1 1.04-9.95 7.25 2.06 8.05 4.11 0.214 7.19 2.06 3.43 2.06-3.33 1.84-9.37 5.77-11.5 8.62 2.38 0.394 12.7-1.69 13.5-2.62 3.88-1.23 12.5-2.42 17-2.19 3.85 0.206 11-2.22 11-3.75-6.53-3.86 4.15-5.29 1.8-10.2-9.51-6.74-6.06 2.76-8.99-9.13-1.5-3.62-6.08-4.36-7.11-7.95-0.771-3.27-3-6.12-4.71-6.16-2.21-2.05 1.51-7.24 3.25-8.94 2.06-2.12 0.599-3.08-4.8-3.08-1.56-0.186-6.62 0.0775-5.14-1.71 8.5-3.38 8.28-9.67 5.92-9.69zm-26.8 28.1c-2.79-0.0523-5.41 0.707-6.96 2.6-0.183 6.9-8.25 2.63-9.94 5.57 0.161 3.02-0.862 5.78 1.28 6.35 5.98 2.02-9.21 10.5-3.77 10.8 1.7 3.63 9.07 1.74 13.4-0.532 4.29-2.02 9.21-1.73 10.3-5.36 0.33-7.42 6.01-14.1 3.6-17.1-2.2-1.36-5.15-2.22-7.94-2.28zm-461 47.2c8.34-0.129 7.12 6.38 6.27 14.5-3.23 1.25-4.75-2.23-10.5 0.53-5.69-9.68-17.5-1.32-29-2.27 13.4-10.8 14.8-8.21 27.5-12 2.26-0.51 4.14-0.761 5.68-0.785zm724 11.4c-1.75 1.85-6.61 2.34-7.28 3.85 1.9 2.88 2.11 2.61 0.515 6.24-0.6 2.16 1.24 1.96-2.93 2.84 2.68 0.727 10.7 8.08 15.1 11.6 2.57 2.12 6.42 4.69 8.65 5.7 2.83 1.31 4.45 2.72 5.48 4.95 1.88 3.71 1.37 5.19-2.05 7.23-1.88 1.1-4.8 1.62-10.7 1.82-4.95 0.502-22.4-3.99-24.2-6.21-1.28-1.54-1.97-1.63-8.31-1.05-5.22 0.48-7.97 1.23-11 2.97-5.25 4.56-14.7 4.6-21 1.34-2.23-1.17-5.4-7.87-4.37-8.97 2.19-3.7 5.64-14.2 7.02-14.9 3.89-2.2 4.48-13 9.68-13 1.28 0 2.14 0.498 2.14 1.26 3.35 3.22 8.78 1.44 11.5 3.1-1.41 0.819-5.96 4.03-4.97 4.31 8.3 1.38 5.42 6.26 8.39 6.61 4.2-0.676 7.83-4.11 12.2-4.15 5.39-0.851-0.406-2.57-2.05-3.24-1.77-0.299-3.44-2.81-4.37-3.78 1.97-2.1 4.36-4.85 7.19-5.27 3.81-0.733 7.63-2.2 11.2-2.71l4.2-0.592zm78.4 2.15c4.65-0.0364 7.03 12.3 4.26 11.3-4.84-0.979-10.9-2.2-10.7 3.9-1.43 1.58-5.11 0.23-3.85 2.52 2.22 2.51 7.67 5.03 7.71 8.62 12.8 7.84 8.4 5.04 9.16 11.9 3.99 2.45 2.78-1.25 5.6-2.19 3.54-0.0339 7.9 6.66 8.31 7.76-5.84 3.46-2.84 0.473-5.99 0.429-3.8-0.463-3.43-0.825-4.57 1.12 1.49 7.85 8.53 12.2 9.59 18.6 2.46 10.3 0.458 8.6-8.82 10.7-5.7-0.183-19.8-7.7-20.7-12.8 1.78-9.94 0.224-8.65 6.6-13.8-4.07-4-8.88-7.57-12.4-11.4-7.02-7.63-8.14-9.26-8.14-11.8 0-2.82-2.48-6.3-5.4-7.5 5.82-11.8 24.7-16.7 28.4-17.2 0.329-0.12 0.649-0.178 0.959-0.18zm-802 5.88c-9.84 6.09-14.1 20.9-20.6 27.8-4.15 4.16-6.47 4.81-6.63 1.82 2.73-14.5 11.9-29 27.2-29.6zm23 0.695c1.2-0.0171 2.27 0.898 2.9 2.67 2.06 5.92-1.76 9.27-4.77 4.18-5.46-3.08-7.57 9.97-11 12.4-3.5-3.51 5.44-13.9-9.34-2.95 7.08-9.79 8.55-6.89 3.83-15.2 7.93-1.05 14.6-0.884 18.4-1.04zm553 1.86c0.685-4e-3 0.997 0.152 0.352 0.574 2.75 13.8 24.3 19.6 35.7 28-1.4 5.3 2.57 17.5 3.94 17.6 3.89 0.942 3.5 4.95 2.57 7.14-0.017 7.6 5.96 2.39 7.71 9.7 5.9 2.02 7.59 1.48 8.99 7.14 4.39-8.28-1.68-9.09 1.97-8.57-0.321-2.63 5.65-6.25 9.16-1.55 4.7-4.21-18.4-14.6-14.4-20.9 2.48 0.575 8.81 5.37 9.33-0.188-4.49-6.34 14.6-3.07 11.5 0.136-4.8 4-3.1 8.07-0.256 9.31 9.81 0.276-5.99 9.54 5.82 10.6 5.04 1.64 0.497 5.73 0.772 7.63 6.86-1.8 4.51 3.15 5.31 4.36 4.13 1.72 1.23-5.63 4.54-4.81 3.99 2.61 13.3 6.57 12.6-0.113-0.342-2.51 6.6-0.308 10.5 3.35 0.92 0.846 2.42 1.27 4.07 1.33-0.64 0.165-1.28 0.301-1.92 0.358-2.4 0-1.8 2.65 0.942 4.04 4.3 1.89 4.76-0.88 8.48-2.33 0.421-1.92 2.99-4.85 2.83-5.76-0.754 0.121-1.52 0.347-2.28 0.607 1.7-2.05 3.14-2.24 5.52-0.772 5.54-0.615 2.14-0.825 4.2 8.05 1.03 1.11 1.71 6.85 1.03 7.71-1.11 1.24-4.2 10.7-5.23 15.8-0.624 7.79-10.5 10.2-14.8 6.91-3.17-2.78-12.6-1.78-16.4 1.74-7.93 3.81-17-5.24-25.6-3.85-6.02-3.64-13.7-4.83-19.9-9.18-1.28-2.05-9.42-0.146-13.3 3.1 0.868 10 5.45 19.1-11.6 13.3-3.51-2.51-8.91-4.44-12.5-4.44-11.6-12.5-17.1-8.15-28.8-13.7-10.1 1.1-15.9-10.8-4.88-11.4 1.98 0.155-1.13-8.18-1.2-8.22 3.74-9.77-2.69-7.36-3.17-9.23-0.685-2.67-4.2-3.19-8.05-1.17-6.77-3.39-19.6 5.6-24 2.84-2.31-1.42-4.71-1.32-16.3 0.617-9.68 1.62-15.4 3.61-15.4 5.35 0 0.488-0.6 0.67-1.28 0.404-5.34-0.176-10.1 9.38-16.1 4.65-4.18-0.854-9.35 1.48-12.6-0.831-6.89-7.02 4.57-9.44 9.85-9.5 7.99 2.79 8.52-4.68 13.4-5.73 1.58-0.872 9.96-9.42 8.31-10.8-5.38-4.43 6.68-15.7 8.65-16 9.57-3.96 10.5-5.96 10.4-12.5 0-4.21 9.08-5.71 14.3-2.39 6.16 2.82 13.3-5.21 18.6-8.51 13.7-0.576 8.69 9.91 9.16 11.9 6.02-2.15 11.2 10.2 19 11.1 5.06 1.96 14.1 9.25 15.6 13.3 3.16 8.38-8.94 9.53-14.5 9.12-5.05-0.445-6.51 0.0179-6.51 2.04 2.57 1.59 11.3 8 14.4 8.78 5.94 0.217 0.488-10.7 5.4-9.18 4.15-0.737 11.3-9.8 7.19-12.5-3.29-3.27 2.82-6.27 7.11-1.98 1.28 1.27 1.46 1.23 2.23-0.462-2.02-9.72-13.3-8.1-13.8-14.7-11.9 1.21-12.7-10.3-19.3-14.4-4.22-2.79-4.53-10.7-1.29-12 0.523-0.414 2.7-0.868 3.85-0.875zm751 0.712c-7.36 5.3 7.51 4.84 5.4 13.2-0.132 9.07-8.35 3.38-3.94 11.9 0.514-1.63 4.2 1.16 4.8 3.67 1.18 2.06 2.79 2.03 3.85 1.17-0.219 7.58 8.61 13.7 4.71 19.9-7.41 13.4-8.53 2.21-10.8 3.75-2.95 3.84 5.89 3.65-0.858 8.24-1.91 1.99 1.17 3.59 0.172 5.09-2.53 0.781-5.01-0.598-7.62 0.0267-2.11 1.07-11.1 0.0677-11.2 1.95-4.36 4.29-6.03 7.45-8.73 11.8-3.25 2.58-5.3 4.03-2.74 6.8 4.08 2.72 6 5.57 7.62 11.2 1.64 2.17 4.22 3.38 5.82 1.71 2.79-4.91 1.9-8.33 1.37-14.2-0.49-4.38 9.39 6.99 7.45 1.71-0.027-9.61 7.49 1.73 6.68-8.49 0.374-4.62 4.31 3.4 6.85 3.97 3.63-4.19 4.15-6.05 9.51-8.27 6.38 0.561 2.34-7.25 5.22-1.9 5.02 5.31 0.804-6.48 5.82-1.47 4.06 2.72 4.47-5.72 3.08-7.33-3.04-4.24-1.17-9.19-4.28-12.8-3.12-3.68-0.436-3.11 1.71-4.23-0.756-10.8-10-14.8-12.8-22.1-1-0.896-1.83-1.4-2.53-1.66 1.11 4e-3 2.14 0.112 2.79 0.377 14.3 6.26 0.4-3.97 10.3-4.26 2.91-0.0255 5.74-1.67 5.74-3.26-3.96-2.21-3.02-5.51 0-7.66-2.19-2.71-3.69-0.0291-3.94 1.58-1.13 0.522-6.63 0.893-10.9-0.642-7.17-0.0578-11.9-9-18.5-9.69zm-1282 5.25c3.04 0 1.84 2.41-2.06 4.12-3.54-0.0667-23.5 3.16-14.4-1.28 4.79-0.84 13-2.8 16.5-2.84zm508 7.23c-1.49 1.95-4.58 2.46-5.65 4.6-0.805 4.88 4.75 7.91 1.54 10-2.04 1.77-6.83-1.33-3.43 4.26 2.02 3.43-1.81 9.03 1.03 11.4 3.09 2.07 3.09-1.2 5.57-1.26 1.71 0.668 2.23-0.874 2.48-8.24 0.171-4.89-7e-4 -6.04-1.37-7.01-2.26-3.13 0.313-6.58 0.343-10.6 0-2.25-0.17-3.15-0.513-3.13zm-526 1.41c-4.5 3.17-21.2 12.1-26.5 9.29-1.26-1.4 4.11-2.85 8.35-5.01 9.19-2.74 9.8-2.55 16.7-4.01 0.754-0.171 1.22-0.274 1.45-0.274zm1313 9.77c-0.798 0.549-1.24 1.69-1.55 2.87-0.28-0.53-0.768-1.02-1.56-1.38-1.43-0.6 0.636-1.24 3.1-1.5zm-698 43.6c-1.33 0.0681-2.2 0.443-2.31 1.3 0.207 3.64 19.5 5.32 17.6 1.77-3.27-0.706-11.3-3.27-15.2-3.06zm625 76.7c-1.79-0.114-4.09 2.16-5.54 6-3.6 11.1 1.03 11 3.51 17.9 1.97 2.65 2.58-4.21 3-5.36 0.685-1.94 1.37-6.54 1.54-10.2 0.571-5.69-0.717-8.19-2.51-8.3zm-1298 20.9c-1.52 8e-3 -2.88 0.138-3.93 0.429-1.41 0.394-4.37 1.17-6.59 1.71-5 1.06-13 7.86-8.93 8.7 15-3.89 13.7-2.29 24.5-1.9 9.95 2.74 17.6 8.35 18.5 15.1-0.548 1.45 17.5 1.06 21.3-0.454l2.54-1.01c-3.47-1.82-11.2-7.52-13-8.09-3.62-1.09-8.73-5.41-8.73-7.39 0-0.548-0.239-0.77-0.53-0.479-6.59 0.832-15-6.49-25.1-6.61zm-502 7.91c-1.5 0.21-3.13 0.94-2.2 2.09 2.78 3.07 4.27-2.13 2.2-2.09zm-4.85 1.58c-1.1 0.69-0.86 1.64-0.482 2.58 0.996-0.894 0.891-1.87 0.482-2.58zm13.3 2.24c-1.03 0.106-2.2 1.25-1.82 2.41 0.748 1.94 3.17 1.71 3.17-0.301 0.164-1.65-0.553-2.19-1.35-2.11zm5.19 4.02c-0.917-0.0306-1.66 0.0955-1.95 0.398 0.957 3 5.06 5.35 7.17 3.55 1.84-2.35-2.46-3.85-5.21-3.95zm6.91 7.03c-3.72 1.08-3.7 13.3-0.833 9.05 2.04-1.68 4.04-2.34 6.52-3.39-1.49-2.56-3.29-5.32-5.69-5.66zm537 1.08c-1.25 2e-3 -2.22 0.104-2.73 0.331-3.07 1.39-3.25 2.73-0.402 2.73 8.72 12.9-7.58 4.29-9.52 7.79 2.08 7.79 14.2 1.55 17.3 5.33l1.77 2.38c4.91-7.72 10.2-6.59 18.4-4.36 4.91-6.28-5.43-9.04-6.64-10.6-2.05-1.72-12.8-3.6-18.2-3.59zm1249 4.27c-2.12 0.0616-4.02 0.851-4.62 2.76-1.24 2.45 2.21 17.8-0.087 14.8-2.74-3.39-3.08-0.575-0.856 6.31 2.4 4.31 1.93 7.66 3.08 11-0.1 2.98 3.33 5.67 5.14 9.16 1.88 3.61 3.17 4.3 4.54 2.41 1.46-1.91 0.772-5.52-1.37-7.38 4.63-4.42 12.8 6.64 12.8 8.1 0 2.36 0.258 3.18 0.772 2.38 2.51-1.7 7.1 3.65 4.71-1.06-1.54-2.65 0.203-3.76 0.686-6.06-1.55-3.36-0.832-2.61 0.513-4.87 0.942-0.565 1.03-1.15 0.256-2.57-1.2-2.12-2.65-2.4-2.65-0.506-2.53 2.18-8.14-3.03-11.5-2.65-5.01 0.319-3.27-2.79 0.343-2.73 0-0.857-3-2.73-4.45-2.76-2.94-0.936-2.37-6.8 0.17-6.88 4.9-5.43-0.102-10.4-0.17-15.5 0.296-2.12-3.84-4.04-7.37-3.94zm-1211 6.62c-2.35 0.0423-4.42 0.777-4.64 2.59 1.07 3.65 14.8 2.41 10.9-1.02-1.31-0.958-3.93-1.61-6.27-1.57zm-71.9 0.297c-3.54-0.0699-6.1 0.967-2.4 3.6 5.31 4.44 5.51 1.16 9.63 1.12 3.48-2.71-2.68-4.63-7.24-4.72zm1311 43.4c-1.74-0.0986-3.21 0.404-3.23 1.64 7.71 15-0.536 9.97 9.16 19.9 1.42 5.84-0.515 5.24-4.03 3.16-0.734 2.94-2.25 9.04-5.14 5.81-2.36-2.39-4.66-1.02-6 1.45-4.44 3.09-6.73 4.37-6.17 9.69 4.37-0.246 6.81-1.43 7.45-2.36 3.13 0.243 2.92-3.55 4.63-2.62 3.19 3.58 0.518 8.87 3.94 11.7 3.68 1.51 8.44 7.28 8.65 4.53 1.92-5.06-1.46-10.2 0.515-10.7 2.22 0.362 1.66 2.78 2.83 4.39 4.95 1.21 0.738-19.7-1.46-22.2-0.514 0.291-0.599-0.832-0.17-2.72-4.43-6.35-5.37-5.26-5.65-16.8 1.18-2.91-2.44-4.75-5.33-4.91zm-18 5.34c-0.258 1.94 0.999 4.91 0.856 7.31 8.93 5.49 1.18 5.71 3.85 10.4 0.96 1.54 2.72 1.75 3.6 3 1.64-4.92 5.82-2.21 9.42-3.5 1.07-6.44-2.8-11.8-7.96-10.6-2.62-0.802 0.046-4.25-2.57-4.28-2.7-0.123-4.68-1.8-7.19-2.24zm-14.3 3.34c-3.19 1.68-2.35 5.56-4.45 8.54-0.362 5.61-6.48 6.61-9.16 11.6-1.26 1.39-0.472 5.7 0.856 3.4 4.06-3 9.36-14.2 14-15.4 2.31-0.445 2.65-2.16 0.513-2.71-2.5-1.72-1.33-3.72-0.178-4.65-0.238-0.0259-0.688-0.228-1.53-0.869zm1.53 0.869c0.41 0.0446 0.178-0.439 0.178-0.149-0.059 0.0422-0.118 0.101-0.178 0.149zm-259 11.1c-2.94 4.11-0.408 4.34-2.48 5.68 2.46 3.71 0.721 9.4 1.37 13.4 1.09 6.04 1.92 12.4 8.48 9.21 4.45-2.24 5.57-3.68 5.57-7.33 0-3.49-3.43-11.7-5.65-13.5-3.54-3.31-3.64-6.94-7.28-7.39zm244 19.2c-1.59 0.0975-3.38 3.43-5.87 6.25-5.78 10.1-11.3 11.7-18.7 20.6-12.7 2.44-17 18.4-22.8 12.5-0.685-1.9-3.17-0.378-4.8 3-1.46 2.85-1.37 5.97 0 13.4 5.69 12.3 4.59 3.36 6.59 16.7 19.5 2.35 6.31 10.8 28.7 10.2 0.061-0.0534 11.8-0.217 11.9-0.402 1.75-6.61 0.818-15.1 4.97-19.2 8.33-4.45 0.81-15.3 9.08-14.9 6.1-1.25-13.1-22.8-0.771-26 7.1-9.11-5.04-12.7-4.8-14.6-1.21-5.6-2.32-7.48-3.55-7.4zm-142 11.6c-1.17 0.0643-1.73 1.07-1.11 3.99 6.51 10.7 15.6 16.8 23.4 26.4-0.428 1.78 2.91 10.5 4.28 10.9 2.4 0.822 8.74 12.2 9.25 16.5 3.71 7.94 10.7 15.2 16.5 20.9 7.54 7.44 7.71 7.55 10.4 6.61 10.7-1.46 0.438 6.07 0.343 6.59 1.62 2.6 7.68 0.505 7.79 4.23 6.38 4.91 18.5 2.74 24.5 5.62 2.94 2.35 18.5 2.37 19.6 3.38 5.24 0.758 13.8 1.64 14.6 1.52 3.53 1.78 7.16 3.24 10.9 3.21 8.85-5.6 26.2-0.65 34.5-2.76 4.4-2.81 14.6-0.489 17.8-3.16 1.28-1.32-0.942-1.59-8.82-1.1-9.32 2.21-24 0.414-28.6 1.85-0.026-2.81-5.53-0.655-7.54-2.38-11 5.23-22.7-1.36-30.2-3.49-12.2-1.56 4.3-3.69 4.11-5.05-0.257-0.548-2.74-0.813-6.42-0.693-20.2-5.34-15.9 0.106-19.8-0.301-8.4 2.62-13-7.83-20.6-6.66-9.74 3.9-6.12-6.54-5.74-11.8 0.428-8.75 1.03-10.5 3.08-9.37 9.95 1.33-0.273-4.87-1.28-9.69-6.24-2.23-6.5 0.458-3.08 3.64-4.49 1.9-9.77-8.03-13.3-10.6-3.07-2.55 3.11-6.22 0.087-9.02-0.563-4.72-4.73-3.5-7.37-7.41-1.57-0.0805-6.25-5.32-6.42-5.35-7.76-2.42-14.2-8.75-19.1-13.6-4.51-3.56-5.71-9.82-12.1-9.85-2.94 0.126-7.44-3.17-9.68-3.04zm195 29.1c-0.057-5e-3 -0.118-2e-3 -0.182 0.01-7.88 5.99-11.8 9.13-23.2 4.12-3.79-3.53-4.51 1.4-6.85 2.12-7.2 1.26-6.44 25.5-11.2 26.2-2.71 9.32 3.9 5.09 4.2 10.2 0.516 4.07-1.52 7.9-1.2 11.8 3.01 2.34 6.99-0.1 7.11-2.97 0.171-13.4 0.685-17.4 2.23-17.9 2.31-0.728 2.83 0.233 1.63 3.26 8.12 11.2 6.43 14.2 9.34 17.4 4.43 3.03 5.43-5.4 5.48-8.78-2.3-2.52-10.1-17.3-8.91-18.8 2.02-1.73 11-6.62 11-7.2 0-2.3-2.14-3.07-4.8-1.69-6.19 2.27-14.6 11.9-17.1-3.74 0.856-4.34 1.63-4.57 12.5-3.83 8.3-0.0767 24.4 1.02 20.9-9.05-0.3-0.764-0.534-1.2-0.932-1.24zm49 15.3c-6.19 5.72-12.4 2.99-14.1 3.93 2.29 4.69 14.1 11.2 17.4 11 7.49 5.44-7.59 3.15-7.96 4.06-0.9 2.5 13 13.7 10.5 9.46-1.71-3.21 2.78-1.86 3.6-1.47 1.71 0.822 3.85 2.1 4.71 2.84 0.856 0.737 2.74 1.45 4.11 1.6 29.9 5.91 25.5 16.9 12.2 28.4 0 1.25 7.71 1.2 8.65-0.0516 9.65-4.24 8.69 6.93 17.6 6.88 12.1 0.119 5.92 6e-3 7.88 4.5 1.94-3.92 9.01-19.2 13.4-15.6 3.18 1.45 9.89 3.65 9.94 7.8 4.7 14.4 26.4 11.9 27.2 11.4-9.1-5.38-12.8-13.9-18.8-19.9-8.73-9.48 2.48-5.71 2.74-8.35-1.05-4.33-4.96-4.16-7.54-6.37-7.75-2.51-2.6-10.3-4.88-8.3-3.45-6.81-36.6-15.4-45.8-20.3-9.29-6.78-9.29 2.2-14 2.28-4.43 0.175-4.76 8.43-9.59 8.57-1.52 0.382-9.42-7.26-5.4-9.42 1.98-6.73-5.92-11.6-11.6-12.8zm61.1 77.1c-5.61 2.06-10.1 21.7-10.6 26.6-0.569 4.51-5.14 24.5-12.1 24.8-11.9-9.32-19.7-13.2-27.6-20.8 8.89-8.43 6.79-8.24 10.7-15.2-11.5-13.5-26-8.04-37.4-4.26-7.04 3.93-11.9 18.9-15.1 19.1-13.6-8.69-20.6-8.19-25.7 1.17-18.9 7.87-12.6 8.06-28.9 31.4-10.8 9.83-40 8.09-47.8 21.8-3.62-5.7-4.69 6.65-8.05 11.9-4.07 28.2-5.19 1.65-2.57 29.6 1.47 8.91 2.89 42.9-5.65 43.4-11 7.36 16.5 15.2 17.2 9.42 10.9-6.32 22.2-6.71 34.1-6.1 11.8-12.5 31.6-16.3 47.1-17.5 9.68-4.46 24.5 13.1 23 20.5-2.81 5.79 18 4.65 20.8 11.7 0.904 5.27-4.44 13.2 6.94 17.6 9.85 4.11 20.1-1.97 23.9 5.23 5.95-5.62 30.2-8.2 30.8-15 8.12-10.5 18.2-26.2 29.4-32.4 3.01-2.42 10.7-10.6 10.9-13.5 7-18.7 15.7-33.1 16.2-44.9-0.086-1.22-0.171-1.29-0.513-0.326-3.54 6.04-12.3-10.2-11.7-14.2-10.3-7.66-2.94-24.1-17.3-26.3-9.67-1.34-2.39-14.2-5.91-19.4-3.14-14.8-9.74-20.2-9.68-21.4-1.99-15.2-0.656-11.7-3.85-22.8-0.171-0.171-0.429-0.274-0.686-0.291zm-608 9.36c-0.043-0.0171-0.086-0.0122-0.128 0.0134-3.97 9.82-11 15.9-13.6 20.9-3.51 3.91-13.1 9.94-17.7 9.99-3.14 0.924-1.93 4.46-3.6 7.14-3.45 14.2 4.87 17.5-4.62 30.6-3.81 3.63-2.86 30.4 4.71 30.8 4.27 3.12 8.21-0.654 11.9-0.856 6.95-1.51 9.34-17.3 12-23.2 2.78-10.8 8.84-20.2 10.6-31.3 0.86-17.1 15.7-18.9 0.599-43.9-0.042-0.0599-0.085-0.0997-0.128-0.117zm752 166c-0.857 0-1.63 0.428-1.63 0.942 1.26 3.72 0.404 20.5-1.03 23.3-4 7.74-8.92 8.41-14.6 12.8 3.44 2.38 9.04 8.89 0.858 10-5.21 1.5-4.99-8.27-18.7 2.05-7.89 7.47-19.6 14-27 17.2-10.7 4.21-21.8 10.2-30.6 16.1-3.34 2.06-3.26 4.88 0.17 4.88 7 1.58 2.97 6.5 17 0.0862 6.37-2.84 11.6-7.47 15.5-11.1 3.68-3.34 7.62-5.22 12.9-6 5.31-5.56 15.9-10.3 22.4-17.1 6.94-3.3 6.23 2.84 14.7-3.94 4.89-1.66 13.9-16.2 18.6-13.7 5-1.35 18.2-16.7 5.99-10.7-4.93 3.85-8.97-2.25-6.51-5.57 3.59-7.47-6.72 0.434-4.71-3.68 3.15-5.66 1.46-11.1-3.43-15.6zm-196 44c-0.667 0.185-2.44 2.82-2.55 2.96-1.96 3.87-7.46 18.9-2.66 20.9 9.69 1.87 18.9-11.2 22.4-16.5 2.57-4.2 1.54-5.14-4.2-3.51-3.95 1.65-12.8 1.38-12.8-3 0.128-0.666 0.03-0.877-0.193-0.816z" fill="#ccc"/>
  <path id="land" d="m1023 20.6c-1.63-0.0049-3.34 0.0059-5.05 0.0268-4.45 0.0531-8.91 0.207-13.2 0.454-7.79 0.452-19.4 1.02-25.7 1.26-22-0.346-54.1 5.01-73 5.11-10.7-5.74-27-4.19-36.8-4.26-25.5-0.904-48.8 2.97-72.3 4.31-22.5 2.03-19 1.28-28.2 3.85-11 4.22-22.9 1.64-14.1 13.7 17.2 3.93 10.2 5.07 7.31 8.11-10.4 3.28-14.5 0.565-22.3 0.456-3.64-3.12-16.5 1.47-13.1 1.63 0.572 7.21-7.79 7.68-6.56 0.214-7.65 1.74-10.6 1.96-26.7-0.4-2 0.767-4.87 3.69-3.61 3.69 3.85 3.48 13.5 6.29 16.1 6.21 11.5-5.09 9.9 3.14 11.6 3.21 10.6 0.126 16.9-9.35 22.2-8.86 1.3 2.18-7.79 6.32-4.77 7.25 6.64 1.3 35.1 1.93 36.5 0.802 4.51-0.198 21.6 0.963 21.9-5.08-15.7-0.172-48.6 3.94-39.7-3.53 16.4-5.26 30.6 0.978 43.7 1.71 0.797-2.4 12.1-4.74 12.3-6.61 5.04-5.99 17.1-6.08 20.9-7.87 6.96-4.45 13.7-6.02 19.3-6.56 10.9-3.01 17.6-4.35 29.2-1.26 0 1.69-4.02 2.85-12 3.51-5.27 0.986-34.6 1.15-32.2 9.48 21.6 14.9 19 2.72 44.5 8.54 21 4.11-2.54 17.7 3.34 26-3.91 9.74-6.52 21.4-7.96 27.6 3.73 3.07-1.77 8.19 0.599 19.5-1.48 5.45 6.94 15.9 7.97 21.1 9.02-0.663 19.3 9.48 24.6 5.92 2.39-3.35 4.48-6.45 7.45-9.48 3.96-5.9 7.65-11.1 14.4-14 0.666-5.66 9.59-9.55 10.4-12.4 6.25-4.46 11.9 2.09 15.9-2.52 8.56 0.0517 18-10.9 24.2-12.4 10-4.98 24.6-1.93 38.2-8.11 8.7-2.39 15.8-8.5 20.3-12.9-7.3-8.78-4.3-7.02 13.6-18 4.66-1.8 9.4-3.57 12.9-5.11-7.45-7.72 0.578-9.87 0.256-11.8-2.1-18.9-1.14-13.9 27.7-21.6 8.56-1.53 6.51-2.76-5.57-3.29-14 0.596-28.3-2.6-39.1-5.75-3.51-1.08-13.9-1.73-25.4-1.77zm-174 1037c-14.7 2.83-23.6 8.02-28.1 6.42-1.43 6.29-4.49-0.538-7.07 3.34-0.865 4.57 7.09 1.9-1.07 10.4-7.26 9.9-3.42 2.99-9.21 3.6-4.04 1.09-4.34 7.5-0.592 7.54 10.1-0.499 7.76 8.43 7.71 12-5.16-2.32-10.3-8.07-16.1-5.05 2.33 9.32-11.9 1.43-14.7 6.25 3.51 4.44 3.95 3.1 1.5 6.6 27.6 2.97 1.06 5.5 15.3 7.19 14.4 0.146 6.44 7.27 6.83 6.25-1.23-4.46-27.5-6.16-27.6-4.62-6.44 11.3-26.2 2.64-34.3 2.23-4.24 1.02-11.7-4.12-15.1-1.63-4.26 1.18-9.53-0.111-13.2-0.17-12.8-0.707-21.4-4.2-30.4-4.28-6.74-0.51-12.4 0.66-18.4 2.91l3.16 2.65c5.7 4.76 8.1 4.82 14.6 9.08 3.14 3.03 13.3 5.11-0.377 3.85-7.77 4.92-35.6-14.1-39.9-9.42 9.24 3.5 14.3 6.11 8.3 6.51-28.3 2.39-55.8-6.68-85.2-7.28 1.01 10.1-15.1 6.66-29.6 8.65-3.43 1.34-10.6 1.12-10.1 2.65-5.88 5.83-15-1.53-24.8 3.26-10.8 8.3-7.28 8.33-23 7.62-12.5 3.16-14.3 2.41-36.8 9.68l6.53 157 1473 0.087 5.93-156-6.85-5.22c-12.9 2.5-44.7-8.99-55-5.23-10.2-1.95-25 4.49-27.2 1.88-0.856-1.46 3.94-5.31 10.4-8.48 17.1-2.52 33.5-14.3 49.2-14.3 4.75 0.047 26.1-9.6 27.8-11.7 1.15-2.1-14.9-6.74-18.4-6.85-7.88-0.602-12.8-1.97-18-6.42-12.1-1.73-13.1-5.33-13.8-6-5.62-1.14-16.1-1.5-22.9-1.2-13.5-9.82-31.6-12.2-46.5-13-10-0.68 3.69-8.94-3-9.08-1.28 0-5.05 3.43-6.17 5.65-6.21 4.78-15.8 0.464-24.2 2.74-26 0.291-26.5 0.121-49.8 3.51-10.4 1.11-21.2 0.208-27.2-5.31-15 4.49-37.3 0.25-50 0.257-15.1-1.49-15.3-7.61-19.6-11.6-9.06 2.19-16.8 6.96-27.2 14.4-6.36 0.919-28.2 3.52-28.6 0.084-4.08-8.06-29.2 1.66-37.7 5.57-13.2 6.47-27.9 9.86-40.9 14.6-6.78 1.57-20.3-8.55-19.5-10.4-12.5-2.99-35.4-1.45-52-5.05-11.9-2.07-5-8.85-21.4-8.14-28.2 6.8-45.4 15.1-71.3 18.6-10.5 3.32-12.8 4.78-24.2 0-6.43-0.624-13.9-0.177-20.2 1.8-17.2 6.79-44.2 8.82-59.3 4.97-18.3-6.51-43.6 0.834-52.3 1.11-2.61 1.6-38.4-1.61-39.1-1.03-1.63 1.63-18.8 3.51-34.3 3.77-11.9 2.16-19.6 6.43-28.2 11.2-12.3 5.66-13.3-2.08-19.4 7.71-5.87 6.09-10.6 3.21-18.2 6 3.89 4.33 2.29 4.91-7.97 6.85-8.62 3.36-17.4 6-26.1 10.2-3.51 1.97-4.45 2.14-12.2 1.71-12.7-3.02-25.4 0.914-37.4-0.113 1.25-0.884-11.6-3.57-18.6-4.51-14.3-2.2-27-5.81-41.5-8.22-14.6-2.4-25-6-22.2-7.88 0.654-1.43 1.66-8.71 1.11-8.74-6.12-6.16-21-12.4-21.3-22.9 0.122-2.76 3.93-1.8 3.56-4.11-4.82-5.29-6.11-4.96-10.3-10.8-4.32-9.28 8.68-11.8 10.5-15-6.19-10.1 20.5-3.69-0.0594-9.34z" fill="#eee"/>
 </g>
</svg>
