<?xml version="1.0" encoding="UTF-8"?>
<svg width="320" height="320" version="1.1" viewBox="0 0 84.7 84.7" xmlns="http://www.w3.org/2000/svg" xmlns:cc="http://creativecommons.org/ns#" xmlns:dc="http://purl.org/dc/elements/1.1/" xmlns:rdf="http://www.w3.org/1999/02/22-rdf-syntax-ns#">
 <metadata>
  <rdf:RDF>
   <cc:Work rdf:about="">
    <dc:format>image/svg+xml</dc:format>
    <dc:type rdf:resource="http://purl.org/dc/dcmitype/StillImage"/>
    <dc:title/>
   </cc:Work>
  </rdf:RDF>
 </metadata>
 <rect
 style="fill:#00f;stroke:none;fill-opacity:1" width="84.67" height="84.67" x="0" y="0" />
 <g>
  <path d="m0-2.94e-5v84.7h36c0.0059-0.0143 0.0156-0.044 0.0196-0.0486 0.202 0 0.588-0.404 0.608-0.0191 0.0021-0.203 0.133-0.385 0.0558-0.591 0.199-0.0452 0.256 0.0243 0.171 0.209 0.239-0.149 0.137-0.403 0.291-0.536 0.0987-0.0852 0.227-0.0845 0.281-0.225-0.155-6e-3 -0.228-0.0951-0.19-0.248-0.188 0.0667-0.38 0.0117-0.513-0.133 0.148-0.0302 0.294-0.0237 0.439 0.0186-0.215-0.303 0.14-0.171 0.286-0.381 0.137 0.296 0.465 0.137 0.532-0.114 0.103 0.118 0.21 0.233 0.322 0.343 0.102-0.14 0.29-0.471 0.0718-0.61-0.175-0.111-0.223-0.156-0.0129-0.324 0 0.363 0.445 0.0393 0.513-0.172-0.307-0.0138-0.0783-0.403-0.341-0.495 0.207-0.29 0.395 0.0509 0.439 0.248 0-0.437 0.271 0.0579 0.353-0.286 0.0566-0.239-0.291-0.287-0.429-0.362 0.139-0.0796 0.232-0.221 0.246-0.381 0.206 0.0796 0.376 0.236 0.495 0.419 0.0812-0.254 0.151-0.254 0.211 0 0.113-0.35-0.403-0.36-0.301-0.693 0.0614-0.202-8e-3 -0.521 0.187-0.602-0.24-0.365-0.342-0.0616-0.632-0.0129-0.293 0.049-0.421-0.315-0.627-0.444 0.264 0.0804 0.578 0.189 0.783 0.38 0.0772-0.213 0.162-0.438 0.327-0.6 0.16-0.158 0.422-0.147 0.186-0.391-0.0709 0.285-0.363 0.159-0.381-0.076 0.447 0.0437 0.0854-0.503-0.227-0.362 0.0212-0.145-0.0179-0.272-0.116-0.381 0.159 0.0735 0.302-0.0117 0.381-0.152 0.0399 0.154 0.14 0.289 0.268 0.381 0.0487-0.106 0.118-0.194 0.209-0.267 0.0873 0.204-7e-3 0.412-0.209 0.495 0.669 0.169 0.497-0.403 0.267-0.724 0.21-0.063 0.384-0.269 0.286-0.495 0.362 0.0764 0.197-0.101 0.0429-0.271 0.0268 0.0052 0.0549 0.0087 0.0873 0.0062-0.0318-0.035-0.0656-0.0682-0.0997-0.101 0.0785 0.0712 0.156 0.143 0.236 0.213-0.112-0.269 0.219 0.144 0.16-0.25-0.0273-0.183-0.0314-0.307 0.162-0.397-0.344-0.183-0.062-0.684 0.0078-0.96 0.042-0.167-0.103-0.233-0.264-0.297 0.449 0.102 0.75-0.627 0.446-0.668 0.129-0.0577 0.138-0.0833 0.209-0.209 0.254 0.106 0.267 0.438 0.516 0.552-0.09-0.291 0.115-0.281 0.276-0.425 0.178-0.159-0.18-0.486-0.245-0.615-0.135-0.271-0.286-0.0901-0.507-0.18-0.157-0.0635-0.233-0.278-0.362-0.38 0.243 0.105 0.642 0.443 0.926 0.27 0.229-0.139-2.17e-4 -0.418-0.201-0.404 0.0635-0.145 0.152-0.158 0.265-0.0388-0.0357-0.255-0.403-0.488-0.649-0.438 0.0939-0.126 0.157-0.266 0.191-0.419 0.0839 0.129 0.185 0.353 0.116 0 0.0349 0.15 0.143 0.252 0.304 0.21-8e-3 -0.129-0.0277-0.255-0.0584-0.381 0.123 0.104 0.109 0.333 0.246 0.422 0.247 0.16 0.0164-0.482 0.0139-0.486-0.117-0.195 0.0961-0.401-0.147-0.534-0.219-0.12-0.241 0.182-0.131 0.294-0.211-0.19-0.435 0.0431-0.553 0.21-0.0632-0.0532-0.113-0.117-0.15-0.191 0.111-0.11 0.266-0.0622 0.381-0.152 0.0746-0.0812 0.138-0.17 0.191-0.267 0.153-0.182 0.252-0.352 0.476-0.457-0.328-0.077-0.868-0.13-1.11-0.377-0.205-0.208-0.354-0.453-0.654-0.538-0.436-0.125-0.717 0.413-1.17 0.344 0.086 0.0386 0.169 0.0831 0.249 0.133-0.38 9e-3 -0.385-0.474-0.639-0.651-0.133-0.0934-0.593 0.286-0.716 0.346 0.175-0.148 0.336-0.346 0.556-0.43 0.261-0.101 0.393 0.122 0.623 0.109 0.135-8e-3 0.153-0.234 0.168-0.327 0.0349-0.209 0.231-0.27 0.391-0.389 0.239-0.178 0.414-0.443 0.738-0.473 0.0836-0.0077 0.393 0.0489 0.4-0.0987 0.0161-0.318-0.532-0.844-0.783-0.976-0.456-0.24-0.865-0.666-1.34-0.851-0.219-0.0854-0.467-0.117-0.677-0.222-0.129-0.064-0.0395-0.181-0.116-0.278-0.123-0.155-0.368-0.24-0.559-0.25-0.221-0.0116-0.201 0.157-0.375 0.236-0.433 0.197-0.792-0.264-1.1-0.471 0.449 0.198-0.0176-0.411-0.249-0.324 0.0675 0.0595 0.138 0.117 0.209 0.171-0.122-0.111-0.238-0.104-0.344 0.0191 0.0691-0.134 0.0247-0.29-0.093-0.38 0.232 0.142 0.48 0.128 0.651 0.369 0.138 0.195 0.259 0.396 0.475 0.515 0.437 0.239 0.66-0.42 1.18-0.227 0.517 0.192 0.495 0.623 1.1 0.451 0.45-0.129 0.906 0.283 1.32 0.397 0.197-0.428-0.451-0.749-0.741-0.895-0.176-0.0886-0.364-0.0886-0.479-0.267-0.149-0.232-0.0125-0.413-0.318-0.548-0.348-0.155-1.08-0.223-1.11-0.705-0.0267-0.406-0.319-0.811-0.619-1.08-0.436-0.392-0.758-0.943-1.1-1.42-0.223-0.314-0.363-0.881-0.739-1.05-0.481-0.219-0.983-0.337-1.41-0.655-0.218-0.161-0.659-0.533-0.932-0.272-0.105-0.367-0.29-0.61-0.0692-0.979 0.133-0.222 0.191-0.764 0.183-1.02 0.65 0.157 0.336-0.794 0.876-0.876-0.26 0.0061-0.566-0.342-0.572-0.591 0.202-0.0333 0.562 0.273 0.304-0.0956 0.227 0.116 0.114 0.432 0.384 0.496 0.0857 0.0201 0.371-0.113 0.389-0.207 0.0386-0.204-0.181-0.319-0.143-0.517 0.045-0.233 0.28-0.22 0.362-0.0191 0.169-0.259-0.0821-0.627-0.362-0.381-0.102-0.35 0.311-0.12 0.483-0.151 0.244-0.0442 0.634-0.414 0.851-0.554-0.378 0.405 0.287-0.0691 0.38-0.153 0.161-0.145 0.34-0.229 0.382 0.0579 0.0585-0.0913 0.11-0.187 0.153-0.286 0.145 0.207 0.181 0.525 0.529 0.387 0.211-0.0836 0.232-0.257 0.0718-0.371-0.399-0.284 0.239-0.38-0.182-0.721 0.0688-0.0397 0.138-0.0777 0.209-0.114-0.389-0.29-0.948-0.0784-1.35-0.362-0.0201 0.0844-0.046 0.167-0.077 0.248-0.269-0.279-0.714 0.116-0.979-0.152-0.0577-0.0585-0.195-0.286-0.309-0.252-0.197 0.0593-0.317 0.08-0.459-0.0935-0.164-0.199-0.602-0.484-0.874-0.402-0.289 0.087-0.583 0.369-0.903 0.309 0.559-2.64e-4 -0.2 0.628-0.362 0.723 0.336 0.298-0.021 0.461-0.316 0.508-0.42 0.0672-0.841-0.0046-1.19-0.27-0.514-0.395-0.159-0.849-0.409-1.32-0.181-0.341-0.711-0.729-1.1-0.729 0.0627 0.133 0.0627 0.267 0 0.4-0.231-0.0384-0.293-0.43-0.564-0.323-0.163 0.0646-0.504 0.0272-0.648-0.0734-0.455-0.319-1.09-0.525-1.3-1.09-0.12-0.323-0.381-1.18 0.141-1.27 0.36-0.0677 0.7 0.456 1.03 0.256 0.478-0.292 1.02-0.0772 1.22-0.717 0.0847-0.27-0.259-0.444-0.0827-0.796 0.108-0.216 0.285-0.31 0.476-0.438 0.198-0.133 1.06-0.454 1.03-0.746-0.0315-0.355 0.191-0.934 0.567-1.01-0.493-0.198 0.201-0.564 0.525-0.448 0.256 0.0918 0.752 0.303 0.691-0.18 0.101 0.734 1.39 0.558 1.32 1.39-0.0204 0.231-0.0888 0.737-0.258 0.906-0.37 0.37-0.605 0.289-0.273 0.789-0.163 0.0325-0.307 0.132-0.402 0.267 0.529 0.0876 0.836 0.491 1.43 0.228-0.086 0.123-0.365 0.216-0.347 0.394 0.0143 0.143 0.184 0.261 0.0527 0.405-0.0905 0.0987-0.746 0.092-0.643 0.431 0.198 0.651 1.09-0.0215 0.882-0.297 0.153-0.0114 0.292 0.0266 0.418 0.114-0.0725-0.249 0.222-0.225 0.244-0.48 0.0315-0.35 0.207-0.431 0.462-0.625 0.258-0.196 0.497-0.448 0.826-0.503 0.159-0.0267 0.351-0.0664 0.277-0.278 0.174 9e-3 0.578 0.0417 0.535-0.248 0.305 0.321 1.14 0.302 1.14-0.245 0.236-0.313 0.103 0.17 0.528 0.451 0.219 0.0947 0.449 0.202 0.506 0.459 0.12-0.116 0.133-0.243 0.0398-0.381 0.419 0.171 1.01 0.746 1.49 0.438-0.113 0.33 0.156 0.301 0.232 0.56 0.0744 0.255-0.0712 0.654-0.0667 0.927 0.0111 0.691 0.954 0.201 1.19 0.685-0.189-0.114-0.469-0.147-0.684-0.134-0.35 0.0198-0.22 0.395-0.499 0.192 0.259 0.287-0.0881 0.682 0.286 0.933-0.155-0.0598-0.282 0.0134-0.323 0.171 0.304 0.0587 0.79-0.0793 1.03 0.172-0.461-0.156 0.0958 0.172-0.344 0.172 0.18 0.317 0.613 0.0016 0.762 0.324-0.0132-0.294 0.267-0.195 0.304 0.0191 0.0273 0.157-0.297 0.049-0.132 0.304 0.249-0.206 0.282-0.552 0.476-0.572-0.137-0.0595-0.264-0.136-0.381-0.228 0.296 0.0119 0.52 0.165 0.732 0.356 0.135 0.122 0.465 0.185 0.639 0.292-0.318-0.457 0.526-0.177 0.68-0.15 0.0821 0.014 0.136-0.0328 0.175-0.109 0.0102 0.115 0.0467 0.222 0.114 0.313-0.08-0.0737-0.16-0.118-0.244-0.015 0.0659 0.173 0.217 0.175 0.322 0.307 0.037 0.101 0.079 0.2 0.126 0.297 0.174 0.174 0.391 0.38 0.636 0.446-0.511-0.0476-0.0554 0.619 0.212 0.438-0.0913 0.235 0.166 0.361 0.36 0.324-0.119 0.0889-0.23 0.222-0.151 0.381-0.147-0.428-0.526-0.376-0.839-0.609 0.138 0.115 0.15 0.242 0.0372 0.38-0.0294-0.154-0.149-0.238-0.304-0.209 0.0452 0.223 0.0284 0.262-0.0455 0.132 0.0249 0.102-0.0611 0.135-0.204 0.135 0.0812 0.269 0.387 0.252 0.516 0.476-0.0193-0.366 0.375-0.0839 0.413 0.101 0.0357 0.176 0.0207 0.39 0.273 0.261-0.223 0.351 0.386 1.2 0.787 1.01-0.0913 0.0777-0.167 0.174-0.216 0.284 0.133 0.0418 0.267 0.0418 0.4 0-0.0706 0.107-0.0445 0.339-0.163 0.41-0.12 0.0566-0.199 0.149-0.237 0.275 0.132 0.0278 0.265 0.0465 0.4 0.0568-0.365 0.141-0.311 0.902 0 1.09-0.132 0.0119-0.258-0.0076-0.381-0.0574 0.138 0.107 0.714 1.06 0.762 0.552 0.0751 0.0442 0.139 0.101 0.191 0.171-0.0952 0.114-0.216 0.158-0.362 0.133 0.137 0.045 0.265 0.109 0.383 0.191-0.217-0.0995-0.256-0.0489-0.116 0.152-0.147-0.0098-0.262-0.108-0.304-0.248-0.183 0.291 0.361 0.448 0.553 0.438-0.115 0.206 6e-3 0.438 0.228 0.495 0.0653-0.174 0.151-0.343 0.153-0.533 0.1 0.131 0.227 0.226 0.381 0.286 0.0151-0.211 0.0852-0.746 0.362-0.781 0.313-0.0394 0.278 0.441 0.0186 0.381 0.129 0.106 0.39 0.461 0.534 0.171-0.0606-0.049-0.124-0.0934-0.191-0.133 0.0952 0.0053 0.191 0.0053 0.286 0-0.0786-0.193-0.282-0.281-0.421-0.419 0.0601-0.0839 0.111-0.173 0.153-0.267 0.206 0.149 0.251 0.423 0.457 0.572-0.136-0.278 0.251-0.257 0.061-0.38-0.103-0.0669-0.238-0.103-0.328-0.191 0.141-0.335 0.655-0.03 0.685-0.457 0.124 0.519 0.714 0.109 0.895 0.552 0.0667-0.188 0.0314-0.547-0.228-0.4 0.0635-0.304 0.421-0.0484 0.228-0.4 0.287 0.149 0.853 0.0628 0.878 0.305 0.498-0.235 0.397-0.708 0.265-1.14 0.0614 0.0595 0.125 0.117 0.191 0.172 0.0995-0.338-0.0753-1.11-0.304-1.37-0.124 0.505-0.57-0.567-0.627-0.719-0.204-0.543-0.237-1.05-0.594-1.53-0.478-0.647-1.13-1.16-1.73-1.69-0.661-0.58-1.19-1.34-1.89-1.87-7e-3 0.0164-0.0089 0.0322-0.0134 0.0481-0.274-0.503-1.36-0.95-1.72-1.18-0.286-0.177-0.741-0.0106-0.781-0.43-0.0206-0.22 0.0891-0.388 0.178-0.0806-0.0466-0.233-0.0827-0.549-0.279-0.71-0.237-0.194-0.0567-0.274 0.125-0.442 0.134-0.123 0.254-0.27 0.425-0.343 0.199-0.0855 0.44-0.0413 0.609-0.196 0.147-0.135 0.211-0.336 0.306-0.505 0.122-0.215 0.295-0.223 0.455-0.379 0.11-0.107-0.01-0.285 0.0532-0.416 0.0992-0.204 0.333-0.282 0.521-0.375 0.568-0.281-0.714-1.52-0.775-1.77-0.0873-0.35 0.222-0.884 0.345-1.2 0.032-0.0815 0.101-0.384 0.209-0.403 0.182-0.0331 0.327 0.157 0.499 0.0289-0.294-0.376-0.858-0.541-1.21-0.85 0.273 0.212 0.621 0.327 0.892 0.547-0.234-0.181-0.267-0.36-0.424-0.497 0.148 0.0907 0.274 0.214 0.392 0.349 0.0201 0.0238 0.0408 0.0469 0.0605 0.0713 0.101 0.123 0.198 0.251 0.295 0.377 8e-3 0.0108 0.0169 0.0218 0.0253 0.0326 0.0321-0.267-6e-3 -0.433-0.13-0.566-0.0663-0.0827-0.164-0.153-0.295-0.225 0.223-0.203 0.739 7.93e-4 0.96 0.105 0.0444-0.186 0.0889-0.603-0.0403-0.746-8e-3 -0.0136-0.0179-0.024-0.0279-0.0346 0.496 0.0726-0.0514-0.881 0.45-0.843 0.0647 0.0049 0.107 0.0251 0.136 0.0537 0.074 0.122 4e-3 0.339 0.102 0.429 0.0259 0.045 0.0722 0.0742 0.16 0.0734 0.147-0.0013 0.339-0.425 0.323-0.561 0.0921 0.137 0.332 0.62 0.48 0.811 0.0545 0.0776 0.0989 0.124 0.122 0.109 0.188-0.117 0.508 0.131 0.743 0.12 0.0643-0.0032 0.701 0.169 0.734 0.217 0.184 0.264 0.389 0.101 0.618-0.0145 0.747-0.375 1.32-0.736 1.92-1.34 0.203-0.204 0.684-1.02 0.415-1.28-0.0132-0.0183-0.0292-0.0345-0.0481-0.0486 0.228-0.151 0.122-0.532 0.163-0.754 0.0542-0.289 0.0448-0.27 0.273-0.457 0.187-0.153-0.204-0.615 0.115-0.646 0.111-0.0108 0.113-0.435 0.144-0.53 0.0873-0.268 0.0249-0.438 0.189-0.688 0.124-0.189 0.181-0.371 0.282-0.569 0.237-0.467 0.48-1.23 0.334-1.75-0.064-0.229 0.0239-0.281 0.0196-0.477-0.0479-0.103-0.0936-0.207-0.136-0.313-0.0685-0.287-0.192-0.74-0.0295-1.01 0.35-0.585-0.139-1.23 0.154-1.84 0.249-0.511 0.677-0.932 0.297-1.48-0.114-0.165-0.174-0.629-0.335-0.787-0.0378-0.0482-0.0813-0.0804-0.133-0.0842 0.0613-0.0995-0.0358-0.318-0.156-0.449-0.0437-0.0537-0.0904-0.0946-0.136-0.116 0.0802-0.232-0.0197-0.494-0.141-0.691-0.0339-0.0551-0.0729-0.105-0.114-0.151-0.118-0.143-0.258-0.253-0.362-0.371-0.119-0.147-0.172-0.313-0.0362-0.581-0.0139 0.0046-0.0286 0.0045-0.0429 0.0067 6e-3 -0.0131 0.0097-0.0252 0.0165-0.0388-0.217 0.0713-0.485-0.155-0.723-0.436-0.229-0.277-0.427-0.596-0.517-0.734-0.175-0.269-0.0993-0.661-0.295-0.904-4e-3 -0.0048-0.0112-0.012-0.0155-0.017-4e-3 -0.0047-0.0063-0.0104-0.0093-0.015-0.0527-0.0654-0.147-0.152-0.228-0.246-0.126-0.155-0.202-0.325 0.0052-0.454-0.0151-0.0032-0.0289-0.0124-0.0434-0.0191 6e-3 -0.0043 0.0108-0.0087 0.0176-0.0129-0.0494-0.0104-0.0951-0.0426-0.135-0.0853-0.111-0.146-0.154-0.384-0.0212-0.49 0.204-0.164-0.0747-0.46 0.182-0.63-0.0164-0.0044-0.0294-0.0099-0.0439-0.015 7e-3 -0.0055 0.0102-0.0118 0.0181-0.017-0.106-0.0282-0.167-0.0733-0.208-0.125-0.0773-0.129-0.0515-0.293-0.142-0.405-0.035-0.0617-0.0941-0.112-0.211-0.138-0.189-0.0414-0.528-0.12-0.7-0.289-0.0436-0.0521-0.0754-0.111-0.0806-0.18-0.0136-0.179-0.0776-0.325-0.174-0.449-0.351-0.501-1.23-0.649-1.73-0.974 0.326-0.0454 0.678 0.188 0.963 0.306-0.0492-0.502 0.112 0.0457 0.177-0.206 0.0248-0.0961-6e-3 -0.179-0.0698-0.251-0.214-0.305-1.03-0.429-1.18-0.501-0.351-0.166-0.625-0.402-1.01-0.535-0.311-0.109-0.635-0.206-0.914-0.387-0.474-0.308-1.17-1.05-1.8-0.98-0.356 0.0365-0.572 0.24-0.951 0.133-0.27-0.0762-0.599-0.236-0.885-0.162 0.0312 0.0052 0.0564 0.0139 0.0806 0.0232-0.0185 0.0029-0.0371 0.0041-0.0553 0.0088 0.0992 0.0166 0.158 0.0569 0.201 0.108 0.0657 0.0991 0.0904 0.229 0.191 0.336l0.0021 0.0021c8e-3 0.0101 0.0145 0.0207 0.0238 0.0305 0.127 0.135 0.2 0.168 0.276 0.259 0.0248 0.0339 0.0502 0.0723 0.0791 0.128 0.236 0.453 0.431 0.703-0.1 0.829 0.039-0.214 0.097-0.741-0.0982-0.904-0.0328-0.0386-0.0712-0.069-0.124-0.077-0.32-0.0487-0.0356 0.502-0.327 0.703-0.272 0.187-0.895 0.345-1.21 0.199-0.0327-0.127 0.219-0.75 0.325-0.833-0.0143-0.0035-0.0313-0.0046-0.046-0.0078 7e-3 -0.0075 0.0143-0.0198 0.0202-0.0243-0.366-0.0902-0.863-0.0598-1.15-0.349 0.258 0.0154 0.316-0.262 0.355-0.457-0.01 0.0029-0.0236 0.0043-0.0346 0.0067 3e-3 -0.0127 0.0058-0.0267 0.0088-0.0388-0.238 0.0698-0.884-0.0168-0.705 0.427 0.0139 0.0345 0.0319 0.0578 0.0517 0.0765 0.0975 0.144 0.286 0.0433 0.406 0.151 0.0756 0.0996 0.0888 0.261 0.115 0.374-0.274 0.0535-0.644 0.222-0.849 0.0186-6e-3 -0.0064-0.012-0.0146-0.0181-0.0217-2.59e-4 -5.29e-4 -2.09e-4 -0.0016-5.29e-4 -0.0021-0.0269-0.0402-0.0498-0.0895-0.0672-0.15-0.0696-0.243-0.175-0.429-0.326-0.634-3e-3 -0.0035-9e-3 -0.0087-0.0124-0.0124-5e-3 -0.0066-0.0089-0.013-0.0134-0.0196-0.0481-0.0654-0.197-0.174-0.282-0.272-0.0192-0.0265-0.0335-0.0519-0.0357-0.0744-0.011-0.116-0.0536-0.204-0.117-0.273-0.234-0.309-0.85-0.255-1.17-0.227-0.565 0.0476-1.01-0.0122-1.56-0.175-0.205-0.0616-0.521-0.185-0.672-0.36-0.103-0.144-0.0925-0.32 0.173-0.525 0.195-0.151 0.432-0.231 0.562-0.456 0.0923-0.161-0.0121-0.382 0.109-0.526 0.115-0.137 0.342-0.12 0.416-0.304 0.072-0.179 0.25-0.354 0.391-0.481 0.263-0.237 0.11-1.05 0.563-1.07-0.0199-0.0088-0.0369-0.0184-0.0558-0.0274 0.0102-0.0013 0.0191-0.0046 0.03-0.0052-0.0972-0.0427-0.183-0.0865-0.241-0.147-0.0425-0.0595-0.061-0.134-0.0388-0.236 0.0397-0.183-0.0401-0.579 0.093-0.7 0.194-0.177 0.184-0.462 0.382-0.634 0.194-0.168 0.323-0.231 0.412-0.499 0.0701-0.211-0.041-0.51 0.277-0.537 0.307-0.0257 0.277-0.204 0.15-0.415-0.13-0.215-0.353-0.555-0.279-0.816 0.0844-0.296 0.493-0.366 0.65-0.614 0.185-0.293-0.0425-0.595 0.0636-0.891 0.136-0.382 0.544-0.491 0.888-0.595 0.314-0.0947 0.495-0.0199 0.811-0.0532 0.349-0.0368 0.605-0.157 0.968-0.114 0.822 0.0979 1.62-0.0903 2.44-0.0191 0.323 0.0283 0.388 0.23 0.627 0.4 0.257 0.183 0.518-0.0349 0.783 0.076-0.0118-0.013-0.015-0.0197-0.0258-0.032-0.0793-0.0878-0.132-0.155-0.175-0.215-0.301-0.441 0.415-0.101 0.826-0.139 0.304-0.0283 0.666 0.0401 0.941 0.169 0.236 0.111 0.412-0.0984 0.624 0.045-0.049-0.0672-0.0944-0.137-0.135-0.209 0.45-0.152 0.846-0.123 1.22 0.167 0.215 0.166 0.545-0.0612 0.799 0.0801-0.0121-0.033-0.0305-0.0603-0.0522-0.0848-0.132-0.204-0.514-0.182-0.661-0.338-0.0273-0.0429-0.0404-0.0964-0.0305-0.168 0.253 0.141 0.563-0.0315 0.799 0.134-0.0328-0.0332-0.0935-0.0622-0.161-0.0904 0.0468 0.0116 0.0926 0.0285 0.135 0.0584-0.0976-0.0988-0.423-0.161-0.537-0.272-0.0338-0.0574-0.0112-0.127 0.118-0.219 0.403-0.287 1.12-0.00605 1.55 0.091 0.132 0.0294 1.78 0.67 1.56 0.185 0.596-0.109 1.13 0.177 1.62 0.463 0.36 0.207 0.817 0.0754 1.14 0.295-0.227 0.176-0.545 0.112-0.807 0.106-0.277-7e-3 -0.528 0.117-0.802 0.133 0.0161 0.0111 0.0324 0.0189 0.0486 0.0295-8e-3 5.29e-4 -0.015 0.00259-0.0227 0.0031 0.635 0.436 1.3 0.466 2.04 0.4-0.045-0.0632-0.0889-0.127-0.132-0.191 0.323-0.121 1.16 0.0235 1.47 0.191-0.0268-0.0168-0.0454-0.0335-0.0646-0.0501 0.0121 0.0059 0.028 0.0116 0.0388 0.0176-0.0346-0.0217-0.0615-0.0431-0.0837-0.0646-0.114-0.148 0.0307-0.289 0.187-0.417 0.232-0.191 0.131-0.181 0.532-0.0951 0.15 0.032 1.51 0.454 1.12-0.0191 0.464-0.117 0.756 0.286 1.24-0.0951-0.0128-4e-3 -0.0309-0.0143-0.045-0.0196 7e-3 -5e-3 0.0128-7e-3 0.0196-0.0124-0.379-0.107-1.32-1.02-1.77-0.515 0.0115 9e-3 0.0245 0.0149 0.0362 0.0233-3e-3 4e-3 -7e-3 0.00578-0.0103 0.00878 0.0441 0.0333 0.0922 0.0605 0.14 0.0889-0.177-0.0573-0.38-0.0225-0.559-0.0687-0.0485-0.0125-0.0922-0.0463-0.129-0.0868-0.0988-0.136-0.103-0.319 0.146-0.181-0.0155-7e-3 -0.0607-0.0404-0.0899-0.0589 0.0207 8e-3 0.0387 0.0126 0.0646 0.0269-0.0889-0.0404-0.443-0.295-0.585-0.47-0.0676-0.0971-0.051-0.16 0.153-0.126-0.177-0.201-0.288-0.475-0.276-0.745 0.0151-0.338 0.229-0.334 0.411-0.551 0.1-0.12 0.242-0.363 0.193-0.506-0.0743-0.215-0.381-0.727-0.031-0.916 0.121-0.0656 0.0991-0.156 0.0289-0.249-0.0128-0.0169-0.0246-0.0337-0.0403-0.0506-0.088-0.106-0.224-0.209-0.297-0.282 0.184-0.0491 0.219-0.263 0.315-0.387zm63.3 0c0.0329 0.0538 0.0632 0.107 0.0899 0.156 0.0807 0.148-0.0742 0.238 0.0207 0.329 0.0107 0.0235 0.0372 0.047 0.0822 0.0708-0.0242 8e-3 -0.016 0.0269 0.0119 0.0522 0.0139 0.0348 0.107 0.0953 0.155 0.138-7.94e-4 0.019-0.0576 0.0175-0.236-0.0264 0.0229 0.0135 0.045 0.0277 0.0677 0.0413-0.0162-4e-3 -0.0236-0.0043-0.0424-0.0093 0.2 0.118 0.394 0.238 0.552 0.402 2.59e-4 2.7e-4 7.94e-4 8.33e-4 0.0011 0.00103 0.042 0.0465 0.083 0.0939 0.118 0.148 8e-3 0.0115 0.0186 0.0207 0.0264 0.0326 0.237 0.364 0.354-0.133 0.711-0.00775 0.063 0.0222 0.103 0.056 0.135 0.0935 0.0764 0.123 0.059 0.283 0.137 0.357 0.016 0.0267 0.0358 0.0494 0.0682 0.0615 0.0406 0.0151 0.0701 0.0387 0.0956 0.0661 0.0543 0.075 0.0869 0.17 0.151 0.244 0.0294 0.0422 0.0653 0.0806 0.118 0.107 0.119-0.281 0.417-0.432 0.706-0.305-0.0101-0.0106-0.017-0.0213-0.0258-0.032-0.0127-0.0133-0.0215-0.0273-0.032-0.0408-0.24-0.372 0.249-0.836 0.249-1.22 0-0.5 0.391-0.639 0.78-0.533-0.0668-0.0198-0.111-0.038-0.144-0.0548 0.0391 6e-3 0.0783 0.012 0.118 0.0227-0.1-0.0297-0.15-0.0552-0.177-0.078-6.1e-5 -5e-5 6.8e-5 -0.00103 0-0.00103 2.64e-4 -0.00458 0.0052-0.00832 0.0083-0.0124zm4.16 0c0.187 0.0942 0.347 0.244 0.545 0.314-0.0418-0.0614-0.0793-0.125-0.114-0.191 0.0627-0.0336 0.126-0.0652 0.19-0.0951-0.0108-0.011-0.023-0.0179-0.0341-0.0279zm1.6 0c0.0196 0.0541 0.0371 0.104 0.0636 0.168 0.0232 0.0563 0.0516 0.0978 0.0827 0.133 0.17 0.237 0.466 0.136 0.693 0.318 0.0365 0.0292 0.0623 0.0541 0.0842 0.0775 0.117 0.156-0.0808 0.198-0.0346 0.444 0.0138 0.0731 0.0476 0.129 0.093 0.175 0.108 0.138 0.313 0.184 0.483 0.223-0.0889 0.0635-0.285 0.312-0.35 0.279-0.158-0.0791-0.405-0.0991-0.559 0.00568-0.0929 0.063-0.087 0.228-0.179 0.303-0.207 0.167-0.437 0.295-0.659 0.44 8e-3 0.0117 0.0192 0.0197 0.0279 0.0305-7.93e-4 5.29e-4 -0.0021 0.00206-0.0031 0.00206 0.0865 0.13 0.235 0.197 0.336 0.308 0.023 0.0301 0.0438 0.0622 0.0579 0.101 0.0542 0.148-0.2 0.304-0.229 0.436-0.0574 0.262 0.0721 0.5-0.0827 0.751-0.15 0.243-0.376-0.00501-0.267 0.363 0.119 0.403-0.346 0.75-0.0279 1.11 0.023 0.0302 0.0494 0.0605 0.0837 0.091 0.0137 0.0122 0.0244 0.0246 0.0356 0.0372 0.183 0.258-0.0844 0.589 0.136 0.825 8e-3 0.0107 0.0157 0.0212 0.0253 0.0315-0.272-0.158-0.144 0.032-0.246 0.212-0.0654 0.115-0.147 0.219-0.221 0.329-0.0944 0.14-0.186 0.32-0.0791 0.428 8e-3 0.0135 0.0189 0.0259 0.0315 0.0377-0.298-0.0738-0.616 0.126-0.913-0.0248-0.0759 0.131 0.109 0.445-0.0579 0.515-0.27 0.113-0.604-0.147-0.895-0.077 0.0273 0.0474 0.0599 0.0898 0.0951 0.13 0.215 0.269 0.582 0.394 0.834 0.62 0.0224 0.0202 0.0403 0.043 0.0584 0.0656 0.153 0.222 0.152 0.533 0.328 0.746-0.26-0.0945-0.309 0.457-0.303 0.728-0.0228-0.0734-0.0391-0.102-0.0491-0.0972-0.0594-0.133-0.0456 0.194-0.0083 0.287 0.0802 0.201 0.209 0.384 0.336 0.557 0.265 0.361 0.538 0.718 0.816 1.07 7e-3 0.0089 0.0141 0.017 0.0212 0.0258 0.0021 0.0021 0.0032 0.0037 0.0052 0.0057 0.175 0.22 0.349 0.434 0.523 0.644 0.558 0.671 1.13 1.29 1.81 1.88 1.05 0.904 2.12 1.8 3.15 2.73 0.621 0.559 1.56 1.93 2.49 2.06-0.0874 0.0271-0.0741 0.0722-0.0196 0.125 0.0502 0.0714 0.209 0.163 0.297 0.245 0.174 0.163 0.354 0.319 0.534 0.474 0.362 0.313 0.725 0.628 1.03 0.997 0.272 0.327 0.529 0.687 0.897 0.915 0.234 0.144 0.519 0.257 0.704 0.464 0.0533 0.066 0.0985 0.14 0.127 0.228 3e-3 -0.0029 0.0053-0.0059 0.0083-0.0088 6e-3 0.014 0.0133 0.0261 0.0181 0.0408 0.243-0.253 0.294-0.582 0.476-0.866 0.125-0.195-0.0867-0.245 0.0868-0.437 0.424-0.47 0.175-1.18-0.0615-1.71-0.0182-0.0407-0.0429-0.0771-0.0698-0.112-0.0107-0.014-0.0208-0.0281-0.0326-0.0413-0.12-0.151-0.305-0.259-0.441-0.395-0.0951-0.116-0.0771-0.23-0.183-0.34-0.0857-0.0889-0.182-0.301-0.29-0.411-0.0425-0.0501-0.0861-0.0904-0.132-0.0982-0.109-0.0186-0.225-0.0123-0.293-0.0775-0.016-0.0263-0.0279-0.0587-0.032-0.103 0.23-0.1 0.436 0.113 0.59 0.248 0.2-0.241 0.564-0.705 0.932-0.705 0.14 0 0.249-0.108 0.344-0.0191 7e-3 0.0098 0.0143 0.0174 0.0212 0.03 0.0117 0.0214 0.0277 0.0405 0.046 0.0584 0.104 0.139 0.37 0.194 0.521 0.217-0.0327-0.06-0.0714-0.113-0.114-0.163-0.242-0.31-0.642-0.455-0.962-0.676 0.0763 0.0308 0.086 0.0156 0.0465-0.0326-0.0582-0.107-0.597-0.539-0.669-0.631-0.22-0.293-0.541-0.651-0.277-0.998 0.243-0.319 0.269-0.739 0.787-0.706 0.247 0.0154 0.442 0.216 0.69 0.193 0.186-0.0169 0.371-0.0722 0.557-0.014-0.046-0.198 0.181-0.461 0.0372-0.64-6e-3 -0.0075-0.0138-0.0139-0.0202-0.0212-0.0021-0.0035-0.0027-0.0074-0.0057-0.0108-0.185-0.229-0.539-0.366-0.791-0.508-0.482-0.273-0.932-0.52-1.32-0.93-0.0354-0.0379-0.0672-0.0767-0.0982-0.116-0.242-0.318-0.359-0.67-0.553-1.03-0.137-0.252 0.3-0.505 0.137-0.664-0.0263-0.0508-0.107-0.0928-0.257-0.126 0.0822-0.216 0.333-0.268 0.522-0.149-0.034-0.139 0.105-0.205 0.176-0.149 6e-3 0.0113 0.0113 0.0225 0.0134 0.0377 0.0312 0.222-0.254 0.222-0.0925 0.48 6e-3 0.0099 0.0177 0.0208 0.0253 0.031 2.41e-4 2.64e-4 2.39e-4 0.0011 5.3e-4 0.0016 0.173 0.276 0.883 0.68 1.12 0.31 0.0623-0.0976 0.013-0.234-0.093-0.382-0.273-0.41-1.06-0.93-1.33-0.98-0.411-0.0746-0.542 0.0052-0.905-0.315-0.241-0.212-0.461-0.447-0.711-0.648-0.0732-0.0587-0.19-0.13-0.268-0.218-0.0403-0.0556-0.0639-0.117-0.0501-0.188 0.0524-0.269 0.175-0.414-0.0011-0.633-0.0221-0.0317-0.0493-0.0644-0.0853-0.0997-0.304-0.298-0.835-0.337-1.23-0.46-0.662-0.207-0.209 0.196-0.152 0.479-8e-3 -0.0129-0.0179-0.0246-0.0279-0.0362-0.154-0.237-0.656-0.233-0.874-0.33-0.305-0.136-0.53-0.286-0.72-0.511-0.0603-0.0746-0.118-0.156-0.173-0.249-0.0603-0.101-0.665-1.74-0.0543-1.49-0.0121-0.0125-0.026-0.0233-0.0388-0.0351 5e-3 0.00159 0.0075 0.00111 0.0124 0.0031-0.106-0.109-0.237-0.193-0.38-0.245 0.129-0.0511 0.258-0.0491 0.387 0.0109-5e-3 -0.0061-0.0423-0.0306-0.0625-0.045 0.0124 0.0047 0.0248 0.00711 0.0372 0.0129-0.0307-0.0349-0.344-0.224-0.453-0.346-0.0359-0.058 0.0011-0.0902 0.193-0.0599-6e-3 -9e-3 -0.0209-0.0215-0.032-0.0326 3e-3 5.29e-4 0.0027 3.68e-5 0.0057 5.29e-4 -0.0672-0.115-0.585-0.357-0.711-0.507-9e-3 -0.0184-0.0103-0.0352 0-0.0491 0.0782-0.105 0.0443-0.178-0.0253-0.247-0.0597-0.0742-0.166-0.141-0.244-0.228-0.04-0.0542-0.0668-0.116-0.0594-0.195 0.157 0.0466 0.259-0.0288 0.267-0.19-0.0107-0.00101-0.0213-0.00262-0.032-0.00362 0.0011-0.0102 0.0062-0.0174 0.0062-0.0284-0.0739-8e-3 -0.148-0.0188-0.221-0.0295 0.382-0.232 0.814 0.248 1.12 0.0238-0.0218-7e-3 -0.0299-0.0136-0.0465-0.0207 7e-3 -4e-3 0.014-0.00699 0.0207-0.0119-0.067-0.0232-0.102-0.0429-0.124-0.061 6e-3 -0.0704 0.4-0.0704 0.569 0.0424 0.201 0.134 0.379 0.323 0.603 0.421 0.261 0.115 0.513-0.11 0.329-0.369-5e-3 -8e-3 -0.0133-0.014-0.0196-0.0212-3e-3 -4e-3 -0.0027-0.00697-0.0057-0.0114-0.0974-0.138-0.327-0.175-0.504-0.22 0.18-7e-3 0.299-5.29e-4 0.474-0.129 0.226-0.165 0.22-0.495 0.399-0.618 0.228-0.155 0.622 0.325 0.764 0.454 0.0164 0.0192 0.032 0.036 0.0517 0.0651 0.0937 0.138 0.223 0.37 0.364 0.557 0.177 0.243 0.377 0.422 0.552 0.242 0.235-0.241 0.0834-0.797 0.0202-1.08 0.135 0.0257 0.268 0.0192 0.4-0.0191-9e-3 -0.011-0.0193-0.0207-0.0284-0.0315 7.93e-4 -2.5e-4 0.0021-2.36e-4 0.0031-5.29e-4 -0.0437-0.0538-0.0905-0.105-0.138-0.155 0.43 0.237 0.923-0.199 1.35-0.256 0.455-0.0617 1.08-0.0664 1.53 0.0227 1.1 0.218 2.12 0.942 3.14 1.39 0.103-0.142-0.0337-0.397-0.222-0.625-0.158-0.199-0.356-0.377-0.484-0.456 0.21 0.0357 0.161-0.0241 0.0398-0.176 0.228 0.0546 0.858-0.132 0.635-0.375-0.016-0.0257-0.0428-0.0521-0.0791-0.0791 0.199 0.0431 0.404-0.294 0.396-0.384 0.226 0.189 0.323-0.012 0.2-0.138-0.0162-0.0253-0.0366-0.0496-0.0682-0.0692-0.0666-0.0413-0.14-0.0663-0.213-0.0904 0.16 0.0399 0.313 0.106 0.482 0.107-9e-3 -0.0117-0.02-0.0214-0.0295-0.0326 0.0011 3e-5 0.0016 5.16e-4 0.0036 5.16e-4 -0.0706-0.0942-0.167-0.17-0.278-0.206 0.0825-0.011 0.104-0.0316 0.0662-0.061 8e-3 -0.0175-0.0298-0.0418-0.0972-0.0708 0.11 0.0162 0.266 0.0468 0.317-0.0109 0.0614-0.0695 0.045-0.131 0-0.178-0.0011-2e-3 -0.0026-0.0042-0.0047-0.0062l-5.29e-4 -5.16e-4c-0.0161-0.0252-0.0432-0.0438-0.0718-0.0615 0.101 0.0184 0.203 0.0368 0.304 0.0553-0.0109-0.0125-0.023-0.0224-0.0346-0.0336 3e-3 5.29e-4 0.0058 0.00107 0.0088 0.00207-0.152-0.175-0.374-0.214-0.586-0.269 0.256-0.122 0.527 0.181 0.765-0.0233-0.0115-0.0103-0.0188-0.0198-0.0295-0.03 0.0011-1e-3 0.0021-0.0021 0.0041-0.0031-0.0294-0.0262-0.054-0.0515-0.0754-0.076-0.0515-0.0748-0.0303-0.129 0.178-0.12-0.014-9e-3 -0.0252-0.0222-0.0388-0.032 5e-3 1.4e-4 8e-3 -2.2e-4 0.0129 0-0.0928-0.0617-0.173-0.14-0.246-0.224zm-2.04 0.172c0.0699 6e-3 0.139 0.012 0.209 0.0181-0.0688-0.0161-0.138-0.0221-0.209-0.0181zm6.44 3.37c0.0278 0.14 0.0116 0.194 0.19 0.191-0.0598-0.0672-0.123-0.131-0.19-0.191zm2.48 1.55c-0.0161 0.00204-0.0308 0.00685-0.0444 0.0145-0.224 0.126-0.528 0.407-0.799 0.394 0.314-0.0172 0.67 0.787 0.402 0.991 0.229 0.281 0.341-0.0862 0.48-0.269 0.166-0.217 0.398-0.456 0.7-0.398-0.00844-0.197-0.497-0.763-0.738-0.733zm-22.6 0.173c-0.0414 0.0128-0.0578 0.0834-0.0098 0.255 0.484 0.187 0.134-0.294 0.0098-0.255zm-13.8 8.41c-0.0701 0.128 0.0656 0.353-0.0765 0.438 5.29e-4 0.144 0.0385 0.277 0.114 0.4 0.433-0.312 0.709 0.472 1.09 0.299 0.375-0.17-0.0417-1.07-0.347-0.699 0.117-0.422-0.579-0.288-0.781-0.438zm-0.649 0.212c-0.172-0.0149-0.291 0.122-0.42 0.226-0.0124 0.0635-0.0248 0.127-0.0372 0.191 0.195-0.078 0.409-0.0704 0.609-0.0191-0.112-0.11-0.137-0.237-0.0744-0.381-0.0268-0.0089-0.0524-0.0139-0.077-0.016zm1.77 1.16c0.0309 0.181 0.165 0.335 0.344 0.381-0.103-0.138-0.217-0.265-0.344-0.381zm0.498 0.133c0.0183 0.0889 0.0183 0.178 0 0.267 0.0752-0.0434 0.144-0.094 0.209-0.152-0.063-0.0503-0.132-0.0883-0.209-0.114zm8.5 0.21c-4e-3 0.245-0.248 0.347-0.458 0.286 0.345 0.178 0.719 0.346 1.01 0.609 0.169 0.0476 0.345 0.179 0.396 0.354 0.0614 0.212 0.333 0.0911 0.443 0.293-0.137 0.0482-0.277 0.0674-0.421 0.0574 0.0714 0.248 0.351 0.219 0.535 0.324-0.0339 0.13-0.149 0.345-0.304 0.362-0.234 0.0259-0.172-0.208-0.344-0.267-0.776-0.265-0.341 0.496-0.0848 0.748 0.371 0.365 0.781 0.738 0.979 1.23 0.198 0.496 0.36 0.823 0.685 1.26 0.565 0.761 1.68 1.04 2.33 1.73 0.309 0.328 0.429 0.772 0.628 1.16 0.254 0.502 0.772 0.826 1.1 1.29 0.578 0.806 1.08 1.52 1.41 2.44 0.347 0.974 1.37 1.26 1.88 2.1 0.224 0.369 0.111 0.796 0.362 1.18 0.255 0.388 0.704 0.661 0.894 1.09 0.185 0.413 0.172 0.905 0.446 1.28 0.369 0.503 0.819 0.961 1.34 1.31-0.144-0.194-0.0715-0.498-0.172-0.721-0.0937-0.208-0.126-0.411-0.172-0.631-0.0667-0.319 0.133-0.751 0.468-0.323 0.205 0.262 0.925 0.075 1.23 0.269 0.303 0.196 0.581 0.635 0.746 0.95-0.0437-0.383-0.185-0.696-0.421-0.998-0.122-0.156-0.24-0.331-0.378-0.474-0.224-0.234-0.455-0.0294-0.688-0.186 0.114 0.103 0.247 0.167 0.399 0.191-0.403 0.34-1.01-0.675-1.2-0.913-0.468-0.61-1.27-0.801-1.78-1.37-0.65-0.716-0.661-1.71-1.07-2.54-0.108-0.222-0.41-0.566-0.0977-0.755 0.203-0.123 0.482-0.147 0.714-0.14-0.245-0.045-0.514 0.0287-0.744-0.0951 0.306-0.276 1.65 0.257 1.93 0.408 0.345 0.188 0.729 0.359 1.04 0.605 0.243 0.194 0.461 0.479 0.772 0.567-0.233-0.117-0.375-0.346-0.566-0.513-0.235-0.206-0.544-0.333-0.799-0.514-0.626-0.442-1.12-1.03-1.67-1.56-1.15-1.12-2.36-2.16-3.5-3.3 0.412 0.477-0.171-0.0281-0.207-0.0858-0.173-0.278-0.372-0.443-0.65-0.638 0.0553 0.0603 0.106 0.124 0.153 0.191-0.209 0.078-0.308-0.132-0.377-0.284-0.113-0.247-0.246-0.328-0.486-0.449-0.413-0.209-0.925-0.964-1.04-1.4 0.0754 0.137 0.164 0.264 0.267 0.381 9e-3 -1.23-1.76-1.16-1.98-2.23 0.431 0.0283 0.983 0.812 1.28 1.09-0.324-0.371-0.63-0.795-1.06-1.06-0.501-0.304-0.928-0.739-1.44-1.02 0.151 0.0534 0.284 0.136 0.399 0.248-0.133-0.126-0.264-0.265-0.43-0.348-0.215-0.108-0.129-0.297-0.237-0.471-0.225-0.364-0.723-0.475-1.05-0.724zm28.6 7.63c-0.0654-0.0115-0.135 0.0109-0.194 0.0858 0.12 0.104 0.259 0.162 0.418 0.172-0.0175-0.124-0.115-0.238-0.224-0.257zm1.63 0.124c-0.15-0.0209-0.309 0.0501-0.267 0.227 0.0627 0.262 0.363 0.256 0.571 0.306-0.0323-0.209-0.145-0.396-0.304-0.534zm-0.475 0.256c-0.0685-0.012-0.133 0.0136-0.189 0.091-0.227 0.316 0.439 0.551-0.203 0.764-0.665 0.221 0.42 0.645 0.582 0.794-0.264-0.367 0.26-0.333 0.362-0.59 0.101-0.255-0.256-1.01-0.552-1.06zm-0.228 2.43c0.0635 0.255 0.0317 0.586 0.209 0.8 0.451 0.277 0.0612-0.752-0.209-0.8zm0.19 1.07c0.0683 0.0714 0.138 0.142 0.209 0.21-0.0365-0.104-0.107-0.174-0.209-0.21zm0 0.572c-0.0619 0.127-0.101 0.26-0.116 0.4 0.151-0.0873 0.23-0.243 0.116-0.4zm-0.381 1.77c0.0315 0.0508 0.0633 0.101 0.0951 0.152 0.194 0.0521 0.163 0.0013-0.0951-0.152zm0.227 0.705c-0.0188 0.0572-0.0367 0.114-0.0553 0.172 0.0699 0.0063 0.139 0.0128 0.209 0.0191-0.0407-0.072-0.0921-0.135-0.153-0.191zm-0.458 1.51c-0.0688 0.157-0.13 0.66-0.399 0.59 0.0444 0.0804 0.102 0.15 0.172 0.209 0.185-0.241 0.247-0.519 0.344-0.799zm-1.74 2.05c-0.189 0.0291-0.308 0.287-0.505 0.367-0.109 0.356-0.457 0.58-0.274 1.01 0.152 0.354 0.928-1.19 0.996-1.31-0.0837-0.0563-0.154-0.0722-0.217-0.0625zm-1.96 1.56c-0.221 0.0278-0.28 0.336-0.422 0.484-0.316 0.331-0.652-0.109-0.904-0.268-0.0302 0.147 0.059 0.189 0.135 0.287 0.133 0.171-0.154 0.301-0.0951 0.494-0.0696-0.0132-0.139-0.0261-0.209-0.0382 0.0606 0.255-0.496 0.821-0.0951 0.933-0.301 0.0439-0.373 0.521-0.0765 0.628 0.0733-0.427 0.774-0.793 0.495-1.3 0.443 0.217 0.568-0.365 0.839-0.572 0.103-0.0791 1.18-0.349 0.439-0.648-0.039-0.0087-0.0738-0.0107-0.105-0.0067zm-12.3 0.063c-0.14 0.0294-0.152 0.25-0.352 0.0961 0.166 0.27 0.206 0.585 0.452 0.806 0.366 0.33 0.797 0.674 1.02 1.12 0.194 0.395 0.421 0.839 0.571 1.25 0.143 0.393-0.265 0.552 0.0165 0.891 0.289 0.349 0.963 1.17 0.0279 1.07-0.421-0.049-0.897-0.402-1.3-0.391-0.25 0.0069 0.034 0.389 0.115 0.444 0.229 0.156 0.457 0.236 0.408 0.57-0.0894 0.601-0.759 0.259-0.481 1.05 0.211 0.602 0.836 0.572 1.21 1.01 0.236 0.274 0.111 0.681 0.319 0.989 0.331 0.489 0.444 0.164 0.829 0.0134-0.262-0.206 5.3e-4 -0.457 0.234-0.502 0.063-0.0119 0.868 0.207 0.667-0.129-0.143-0.24-0.68-0.374-0.91-0.535-0.337-0.235-0.788-0.197-1.14-0.439-0.195-0.135-0.329-0.428-0.201-0.657 0.127-0.226 0.499-0.0181 0.652 0.0605 0.199 0.103 0.37 0.292 0.572 0.373 0.214 0.0857 0.481-0.412 0.68-0.525 0.654-0.374 1.54 0.466 2.12 0.678 0.425 0.153 1.3 0.72 1.75 0.667 0.275-0.0328 0.13-0.319 0.0527-0.467-0.185-0.353-0.226-0.617-0.0718-1.01 0.325-0.817 0.829-0.842 1.62-0.643-0.353-0.446 0.827 0.0578 0.439-0.458 0.185-0.0791 0.387-0.134 0.59-0.0951-0.0249-0.168 0.0734-0.304 0.227-0.362-0.252-0.29-0.239 0.0915-0.42 0.179-0.11 0.0529-0.306-0.182-0.344-0.215-0.0865-0.077-0.786-0.733-0.266-0.497-0.369-0.167-0.793-0.248-0.87-0.717-0.0503-0.306 0.0341-0.887-0.329-1.04-0.054 0.301-0.136 0.823-0.481 0.933-0.415 0.132-1.06-0.512-1.29-0.246-0.0725-0.231-0.242-0.215-0.438-0.181-0.273 0.0474-0.325-0.156-0.552-0.243-0.705-0.271-1.35-0.506-2.01-0.907-0.757-0.462-1.46-1-2.22-1.47-0.247-0.152-0.553-0.422-0.844-0.48-0.0262-0.0052-0.0487-0.0047-0.0687-5.29e-4zm-1.57 0.0961c-0.12-0.0217 0.238 0.24 0.304 0.267-0.0471-0.138-0.16-0.24-0.304-0.267zm0.627 0.457c-0.0167 0.234 0.229 0.344 0.399 0.19-0.114-0.103-0.247-0.167-0.399-0.19zm10.1 1.66c-0.152 0.381-0.0106 0.801-0.176 1.18-0.107 0.248-0.26 0.683 0.194 0.568-0.183-0.427 0.271-1.54 0.839-1.41 8e-3 -0.0712 0.0024-0.141-0.0181-0.21-0.307 0.123-0.557-0.0315-0.839-0.133zm-3.73 0.762c0.068 0.0217 0.138 0.0343 0.209 0.0382-0.0699-0.0127-0.139-0.0256-0.209-0.0382zm6 0.686c-0.158-0.0108-0.302 0.0711-0.399 0.191 0.169 0.252 0.47 0.0882 0.399-0.191zm-27.7 1.83c7.93e-4 0.0732 0.0387 0.195 0.0341 0.292-0.0104-0.0443-0.0455-0.108-0.0351-0.248 0.0011-0.0152 5.29e-4 -0.0295 0.0011-0.0444zm1.26 5.29e-4c-8e-3 0.21 0.0743 0.254 0.246 0.133-0.0762-0.055-0.158-0.0994-0.246-0.133zm-1.23 0.345c-0.0145 0.0475-0.0471 0.0828-0.117 0.0878-0.0246 0.0019-0.0476 0.0028-0.0718 0.0041 0.115-0.0427 0.168-0.0674 0.189-0.092zm-0.937 0.434c0.0125 0.0035 0.0235 9e-3 0.0357 0.0129-7.93e-4 0.0013-0.0021 0.0021-0.0031 0.0036-0.0129-4e-3 -0.0219-0.0091-0.0357-0.0129 7.94e-4 -0.0013 0.0021-0.0021 0.0031-0.0036zm17.4 1.12c-0.0302-0.0053-0.0659-0.0034-0.107 0.0062-7e-3 0.153 0.0773 0.231 0.23 0.209 0.0092-0.121-0.0323-0.2-0.123-0.215zm3.69 1.67c-0.063-0.0011-0.114 0.0198-0.147 0.0749-0.262 0.433 0.641 1.02 0.769 0.414 0.295 0.139 0.61 0.592 0.399 0.914-0.187-0.12-0.387-0.216-0.59-0.304 0.0831 0.133 0.0831 0.267 0 0.4-0.318-0.0788-0.422-0.424-0.611-0.648-0.199-0.235-0.481-0.144-0.704-0.324-6e-3 0.277 0.563 0.857 0.314 1.07-0.128 0.111-0.588 0.228-0.323 0.493 0.203 0.203 0.592 0.474 0.679 0.739 0.0778 0.237 0.0881 0.804-0.307 0.533 0.0767 0.268 0.215 0.229 0.437 0.228 0.296-7.94e-4 0.515 0.333 0.648 0.553 0.343 0.565 0.448 1.55 0.357 2.19-0.0706 0.498 0.421 1.37-0.112 1.66-0.61 0.336-0.303 0.922-0.611 1.49-0.253 0.469-0.814 0.493-1.22 0.764-0.254 0.169-0.574 0.954-0.95 0.295-0.102-0.179-0.065-0.424-0.321-0.471-0.153-0.028-0.333-0.33-0.127-0.294 0.43 0.0765 0.265-0.617 0.337-0.745-0.3-0.0836-0.81 0.184-0.906 0.48-0.132 0.409 0.59 0.893 0.497 1.42-0.0746 0.423-0.263 0.683-0.514 1.01-0.419 0.549 0.458 0.869 0.429 1.33-0.351-0.29-0.0717 0.199-0.418 0.076 0.132 0.62-1.08-0.0895-0.685 0.343-0.115-0.0738-0.382-0.0816-0.412-0.248-0.0331-0.185 0.0984-0.469-0.221-0.379-0.138 0.0386-0.255 0.125-0.391 0.166-0.333 0.1-0.69-0.0035-1.01 0.157-0.222 0.113-0.426 0.187-0.674 0.221-0.235 0.0323-0.724-0.113-0.903 0.0078-0.253 0.17-0.354 0.0491-0.586-0.0822-0.261-0.148-0.713 0.14-0.953 0.234 0.424 0.475-1.26 1.77-1.39 2.13-0.131 0.38-0.914 0.046-0.903 0.419 0.0079 0.294 0.242 0.631 0.382 0.885-0.0492-0.0021-0.106-2.64e-4 -0.185 0.0093-0.35 0.0429-0.825 0.319-0.574 0.763-0.468-0.0172-0.264 0.0121-0.569 0.343-0.199-0.457-0.331 0.0084-0.268 0.266-0.0841-0.0669-0.321-0.0672-0.403 0.0026-0.109 0.0929 0.183 0.379 0.235 0.433 0.17 0.174 0.418 0.184 0.633 0.269 0.166 0.0664 0.191 0.335 0.335 0.439-0.12-0.0611-0.289 5.29e-4 -0.399-0.076-0.124-0.0857-0.146-0.274-0.249-0.381-0.368 0.286 0.423 0.58 0.439 0.876 0.058-0.107 0.524-0.501 0.612-0.253 0.0476 0.134-0.0171 0.366 0.229 0.312 0.273-0.0606 0.0338-0.777-0.403-0.497 0.141-0.261-0.0824-0.493-0.267-0.648 0.298-0.427 0.913 0.43 1.09 0.68 0.264 0.373 0.513 0.879 0.25 1.35-0.156 0.279-0.37 0.208-0.244 0.581 0.0656 0.195 0.163 0.342 0.274 0.512 0.0841 0.129 0.627 0.968 0.114 0.785 0.199 0.211 0.326 0.36 0.63 0.391 0.152 0.0154 0.217 0.195 0.381 0.162 0.238-0.0479 0.0632-0.237-0.0408-0.294-0.234-0.128-0.426-0.595-0.25-0.836 0.203-0.277 0.604 0.238 0.158 0.101 0.0799 0.226 0.272 0.38 0.379 0.59 0.13 0.257 0.0756 0.508 0.0584 0.781 0.294-0.119 0.43-0.402 0.685-0.572-0.526-0.348-0.164-0.482 0.267-0.267 0.303-0.591-0.221-1.45-0.178-2.1 8e-3 -0.116-0.0941-0.602-0.0388-0.696 0.174-0.291 0.504-0.608 0.045-0.827 0.0429-0.0651 0.0878-0.129 0.135-0.191-0.28 0.013-0.301-0.182-0.471-0.336-0.207-0.189-0.541-0.0487-0.749-0.254 0.3-0.144 0.379-0.645 0.0434-0.799-0.468-0.215-0.867 0.519-1.32-0.126-0.215-0.309-0.131-0.48-0.382-0.494 0.0378-0.355 0.541 0.0354 0.841-0.0703 0.622-0.218 1.03-0.0673 1.59 0.269-0.204-0.159-0.342-1.15 0.0372-1.18 0.212-0.0151 0.313 0.259 0.502 0.315 0.136 0.0397 0.756-0.276 0.852-0.372 0.0021 0.0976 0.0433 0.156 0.126 0.175 0.0545-0.0677 0.0634-0.145 0.0258-0.232 0.156 0.111 0.342 0.073 0.325-0.152 0.216 0.129 0.397-0.121 0.626-0.0372 0.332 0.121 0.561-0.335 0.192-0.21 0.356-0.0926 0.671-0.32 1.03-0.381 0.403-0.0685 0.711 0.309 1.07 0.239 0.271-0.0526 0.573-0.31 0.773 0.0424 0.166 0.292-0.164 0.646-0.406 0.766 0.207 0.156 0.38 0.373 0.353 0.648-0.0299 0.31 0.34 0.452 0.56 0.562 0.238 0.119 0.315 0.41 0.575 0.504 0.197 0.0717 0.376 0.19 0.58 0.242 0.24 0.0616 0.378-1 0.421-1.16 0.0418-0.148 0.0149-0.497 0.142-0.606 0.249-0.213 0.606-0.0365 0.874-0.175-0.241-0.308-0.421-0.493-0.781-0.66-0.439-0.204-0.279-0.403-0.285-0.794-3e-3 -0.175 0.163-0.509 0.32-0.175 0.0915 0.195 0.0413 0.651 0.384 0.582-0.12-0.105-0.153-0.232-0.0956-0.381 0.113 0.509 0.731 0.0607 0.839 0.458-0.146 0.0384-0.254 0.146-0.249 0.304 0.646-0.38 1.41-0.141 2.1-0.0382-0.448-0.426 0.293-1.66 0.86-0.972-0.0712 0.0238-0.142 0.0492-0.212 0.076 0.156 0.227 0.114 0.71 0.417 0.82 0.329 0.12 0.39-0.391 0.37-0.596-0.0257-0.261-0.282-0.425-0.307-0.687-0.0545-0.546 0.871-0.12 1.03 0.0434 0.151-0.242-0.63-0.691-0.114-0.8-0.286-0.344 0.782-0.487 0.486 0.163-0.0757 0.166-0.106 1.17 0.188 1.24 0.114 0.0294 0.768-0.598 0.77-0.741 5e-3 -0.223-0.162-0.373-0.17-0.581-0.0124-0.329 0.323-0.449 0.553-0.579-0.619-0.401-1.05-0.996-1.26-1.7-0.0754-0.258-0.108-0.548-0.102-0.816 3e-3 -0.164 0.0312-0.154 0.165-0.215 0.121-0.0561 5.29e-4 -0.168-0.0041-0.256-0.0415-0.77-0.693-1.38-1.07-1.99-0.44-0.719-0.0963-1.37 0.708-0.848-0.296-0.318-0.868-1.65-0.267-1.77-0.211-0.17-0.0451-0.5-0.195-0.713-0.122-0.172-0.11-0.377-0.259-0.561-0.168-0.208-0.244-0.481-0.419-0.696-0.157-0.193-0.317-0.277-0.442-0.491-0.269-0.46-0.878-0.683-1.27-1.02-0.511-0.439-0.883-1.17-1.05-1.82-0.234 0.213-0.73-0.199-1-0.203zm-34.1 4.63c-0.0276-0.0021-0.0597 0.0016-0.0956 0.0108 0.0601 0.0616 0.125 0.118 0.193 0.171 0.0264-0.117-0.015-0.176-0.0977-0.182zm2.23 0.353c0.0638 0.0254 0.127 0.0511 0.191 0.0765-0.0476-0.0601-0.111-0.0855-0.191-0.0765zm31.1 2.29c-0.205 0.0709-0.445 0.508-0.163 0.636 0.251 0.114 0.203 0.19 0.163 0.469 0.313-9e-3 0.454-0.298 0.297-0.561-0.054-0.0516-0.117-0.0864-0.19-0.103-0.0995-0.0537-0.0684-0.343-0.107-0.441zm-22.2 1.09c-0.209 0.127 0.0986 0.588 0.325 0.381-0.0608-0.16-0.172-0.3-0.325-0.381zm0.641 0.345c0.0312 0.0202 0.0644 0.0388 0.102 0.0548-0.0348-0.0053-0.0683-0.0276-0.102-0.0548zm-0.107 1.6c0.0277 0.0586 0.0493 0.0976 0.0687 0.132-9e-3 -0.0354-0.0307-0.0784-0.0687-0.132zm0.514 0.989c0.0225 0.144 0.126 0.253 0.267 0.286-0.0619-0.12-0.151-0.215-0.267-0.286zm13.4 0.457c-0.155 0.0778-0.176 0.299 0.0181 0.343 0.315 0.0714 0.145-0.28-0.0181-0.343zm-0.191 0.457c-0.169-0.0214-0.194 0.0484-0.0765 0.209 0.0257-0.0698 0.0509-0.139 0.0765-0.209zm-7.3 2.61c-5e-3 0.156-0.115 0.256-0.267 0.267 0.311 0.507 0.707-0.0796 0.267-0.267zm-1.48 0.152c-0.0217 0.377 0.216 0.419 0.532 0.419-0.0368-0.194-0.362-0.369-0.532-0.419zm-2.92 0.0191c-0.16 0.147-0.122 0.217 0.114 0.209-0.0381-0.0698-0.0756-0.139-0.114-0.209zm25.1 0.286c-0.0765 0.172-0.0195 0.235 0.172 0.19-0.0527-0.0677-0.109-0.131-0.172-0.19zm-18.9 0.209c-0.423 0.0884-0.131 0.721 0.153 0.8-0.146-0.227-0.0937-0.548-0.153-0.8zm-6.08 0.286c-0.144 0.564 0.439 0.42 0.344 0.172-0.102-0.0828-0.216-0.14-0.344-0.172zm16.8 0.0574c-0.287-0.0153-0.471 0.568-0.261 0.742 0.388 0.322 0.246-0.639 0.261-0.742zm-1.28 0.0238c-0.0983-9e-3 -0.181 0.0512-0.241 0.148 0.129 0.121 0.474 0.169 0.344-0.115-0.0357-0.0196-0.0701-0.0301-0.103-0.0331zm-14.4 0.359c-0.0269 6.7e-5 -0.0566 0.0058-0.0884 0.017 0.0564 0.107 0.144 0.151 0.265 0.133-0.0369-0.1-0.0955-0.151-0.176-0.15zm14.1 0.0346c-0.291 0.0445-0.547 0.379-0.765 0.249 0.35 0.311 0.176 0.524-0.209 0.629-0.552 0.151-0.484-0.22-0.99-0.305-0.045 0.253-0.0334 1.02-0.307 1.1h0.0011c-0.137 0.314-0.501 0.393-0.704 0.648 0.239 0.0164 0.387-0.203 0.59-0.286 0.0444 0.11 0.133 0.444 0.297 0.431 0.215-0.0164 0.298 0.139 0.0067 0.197 0.216 0.0717 0.216 0.661 0.507 0.622 0.256-0.0344 0.296 0.27 0.503 0.349 0.204 0.0778 0.417-0.0442 0.59 0.133-0.397-0.276-0.158-1.03 0.0031-1.37 0.414-0.877 1.14-0.242 1.67 0.0982 0.0553-0.201-0.0053-0.409 0.0553-0.61 0.0722-0.239 0.298-0.391 0.424-0.6 0.12-0.199-0.388-0.727-0.403-1-0.444 0.0921-0.736-0.213-1.15-0.287-0.043-0.0077-0.085-0.0069-0.127-5.29e-4zm-1.95 0.169c-0.0547 0.0134-0.0272 0.0777 0.0822 0.194v-0.19c-0.0364-0.0069-0.0639-0.0081-0.0822-0.0036zm-7.15 5.29e-4c-0.0258 0.0021-0.0536 0.0093-0.0832 0.0217 0.0587 0.442 0.423 0.403 0.265 0.0956-0.0434-0.0847-0.104-0.124-0.181-0.117zm6.22 0.06c-0.222 0.0791-0.203 0.143 0.0558 0.191-0.0188-0.0635-0.0373-0.127-0.0558-0.191zm0.191 0.21c-0.182 0.106-0.0559 0.234 0.114 0.19-0.0381-0.0635-0.0756-0.127-0.114-0.19zm-0.0775 0.567c-0.103-0.0011-0.261 0.101-0.303 0.119 0.131-0.0053 0.258-0.031 0.381-0.0765-0.0155-0.0303-0.0433-0.042-0.0775-0.0424zm-4.93 0.214c-0.0574 0.0061-0.115 0.0125-0.172 0.0186 0.0429 0.146 0.154 0.231 0.307 0.172-0.045-0.0632-0.0898-0.127-0.135-0.19zm-5.37 0.648c-0.26-0.0251-1.47 0.3-0.953 0.689 0.531 0.403 1.66-0.511 0.953-0.689zm5.24 0.457c-0.0532 0.128-0.0727 0.262-0.0584 0.4 0.14-0.0524 0.23-0.169 0.191-0.323-0.0442-0.0254-0.0881-0.0511-0.132-0.0765zm-0.535 0.533c6e-3 0.178-0.0954 0.444 0.172 0.476-0.0619-0.12-0.0938-0.246-0.0951-0.381-0.0257-0.0318-0.0514-0.0638-0.077-0.0956zm-0.572 0.744c0.0193 0.0632 0.0391 0.127 0.0584 0.19 0.0243 0.0855 0.056 0.168 0.0951 0.248 0.123-0.082 0.256-0.139 0.399-0.172-0.121-0.228-0.36-0.16-0.553-0.267zm3.6 0.591c-0.112 7.93e-4 -0.215 0.057-0.286 0.151 0.0482 0.241 0.391 0.0416 0.399-0.133-0.0382-0.0126-0.0759-0.0184-0.113-0.0181zm-0.665 0.0615c-0.0708 5.29e-4 -0.108 0.0436-0.0605 0.147 0.0265 0.198 0.149 0.366 0.211 0.552 0.575-0.315 0.0616-0.7-0.151-0.699zm-16.3 1.53c-0.101-0.0034-0.187 0.02-0.249 0.0811 0.368 0.164 1.18 1.08 1.6 0.629-0.208-0.173-0.915-0.695-1.35-0.71zm16.4 0.176c-0.0315 0.0635-0.0633 0.127-0.0951 0.191 0.164 0.0439 0.196-0.0195 0.0951-0.191zm3.28 2.11c-0.215 0.111-0.19 1.09 0.132 0.972-0.134-0.313 0.0331-0.664-0.132-0.972zm-0.781 0.876c-0.338 0.0598-0.0616 0.447 0.14 0.486 0.397 0.077 0.117-0.444-0.14-0.486zm-16.1 0.268c-0.0407-0.0021-0.089 0.0161-0.141 0.0558 0.0651 0.0934 0.155 0.131 0.268 0.114-0.0116-0.108-0.0593-0.167-0.127-0.17zm-0.016 0.467c-0.0678 0.0077-0.131 0.0339-0.182 0.0842 0.0386 0.0638 0.0774 0.127 0.116 0.191 0.207-0.0281 0.407 0.103 0.609 0-0.0941-0.155-0.339-0.298-0.543-0.275zm0.35 0.869c-0.0318-0.0096-0.0886 0.0141-0.171 0.0718 0.0638 0.0193 0.127 0.0389 0.191 0.0579 0.0184-0.0769 0.0117-0.12-0.0202-0.13zm15.5 2.82c-0.193 0.155-1.18 0.595-0.553 0.838 0.384 0.15 0.142-0.136 0.249-0.323 0.114-0.201 0.558-0.21 0.304-0.515zm-0.762 0.743c0.0315 0.0876 0.0947 0.138 0.19 0.152-0.0635-0.0505-0.127-0.101-0.19-0.152zm-15.6 0.0351c-0.0451-0.0172-0.103 0.0209-0.131 0.175 0.0124 0.0318 0.0248 0.0628 0.0372 0.0946 0.206-0.0582 0.169-0.24 0.0935-0.269zm-1.25 0.156c0.0687 0.084 0.136 0.142 0.202 0.183-0.0936-0.0439-0.176-0.0957-0.202-0.183zm16.5 0.476c-0.144 0.168 0.0616 0.459 0.267 0.4-0.0699-0.146-0.159-0.28-0.267-0.4zm-0.209 1.05c-0.0706 0.019-0.141 0.0376-0.211 0.0568 0.0257 0.0444 0.0509 0.0894 0.0765 0.134 0.0556-0.0561 0.1-0.12 0.135-0.191zm-16.4 0.283c0.0285 0.0265 0.0581 0.0518 0.0868 0.078-0.0276-0.0243-0.0553-0.0485-0.0842-0.0713-1.46e-4 -0.0019-0.0026-5e-3 -0.0026-0.0067zm16 1.13c-0.247 0.0463-0.437 0.637-0.704 0.305 0.0357 0.281 0.127 0.355-0.0667 0.588-0.166 0.201-0.232 0.609-0.047 0.822 0.258-0.0878 0.164-0.668 0.32-0.866 0.19-0.239 0.678-0.474 0.497-0.85zm-2.82 1.01c-0.107 0.0944-0.0625 0.158 0.135 0.19-0.045-0.0635-0.0899-0.126-0.135-0.19zm-14.6 0.705c0.072 0.152 0.232 0.263 0.4 0.171-0.138-0.0463-0.271-0.103-0.4-0.171zm1.41 1.07c-0.073 6e-3 -0.143 0.0257-0.209 0.0574 0.0699 0.0572 0.139 0.114 0.209 0.171-0.0699 0.0191-0.139 0.038-0.209 0.0574 0.193 0.347 0.257-0.134 0.209-0.286zm3.57 0.782c-0.0311 0.0013-0.0571 0.0101-0.076 0.0289-0.239 0.239-0.716 0.298-0.85 0.634-0.138 0.346-0.0994 0.549-0.346 0.846-0.225 0.271-0.276 0.659-0.366 0.988-0.084 0.308-0.256 0.619-0.342 0.939h2.77c-0.0021-0.0992-0.0058-0.196-0.0119-0.285-0.0111-0.165-0.12-0.413-0.0662-0.575 0.0545-0.163 0.141-0.257 0.16-0.437 0.0437-0.419-0.0997-0.725-0.0997-1.13 0-0.21 0.208-0.379 0.0176-0.55-0.101-0.0912-0.574-0.467-0.792-0.458zm7.59 0.913c-0.15 0.232 0.16 0.404 0.344 0.267-0.158-0.0159-0.284-0.124-0.344-0.267zm-14 0.762c-0.0556 0.156-0.0016 0.251 0.172 0.229 0.0341-0.13-0.0242-0.247-0.172-0.229zm12.2 0.0382c-0.0408 0.155-0.169 0.234-0.325 0.191 0.0109 0.142 0.0873 0.212 0.23 0.209 0.179-0.036 0.0951-0.291 0.0951-0.4zm-11.5 0.0191c-0.0685 0.0572-0.144 0.102-0.227 0.133 0.119 0.0706 0.246 0.0897 0.381 0.0574-0.0453-0.0688-0.0966-0.132-0.153-0.191zm10.6 0.248c-0.0606 0.0934-0.0986 0.195-0.114 0.305 0.132 0.0119 0.259-0.0072 0.381-0.0579-0.0225-0.147-0.118-0.237-0.267-0.248zm-12.3 1.48c-0.0576 0.0021-0.117 0.0446-0.122 0.137 0.0511 0.0444 0.102 0.0889 0.153 0.133 0.158-0.167 0.065-0.274-0.031-0.271z" fill="#0f0" stroke="#0f0" stroke-linecap="butt" stroke-linejoin="bevel" stroke-miterlimit="3.93" stroke-width=".1"/>
 </g>
</svg>
