<?xml version="1.0" encoding="UTF-8" standalone="no"?>
<svg
   xmlns:dc="http://purl.org/dc/elements/1.1/"
   xmlns:cc="http://creativecommons.org/ns#"
   xmlns:rdf="http://www.w3.org/1999/02/22-rdf-syntax-ns#"
   xmlns:svg="http://www.w3.org/2000/svg"
   xmlns="http://www.w3.org/2000/svg"
   xmlns:sodipodi="http://sodipodi.sourceforge.net/DTD/sodipodi-0.dtd"
   xmlns:inkscape="http://www.inkscape.org/namespaces/inkscape"
   width="512"
   height="511.69168"
   viewBox="0 0 135.46666 135.38509"
   version="1.1"
   id="svg8"
   sodipodi:docname="fire_icon.svg"
   inkscape:version="1.0.1 (3bc2e813f5, 2020-09-07)">
  <defs
     id="defs2" />
  <sodipodi:namedview
     id="base"
     pagecolor="#ffffff"
     bordercolor="#666666"
     borderopacity="1.0"
     inkscape:pageopacity="0.0"
     inkscape:pageshadow="2"
     inkscape:zoom="2.0839053"
     inkscape:cx="256"
     inkscape:cy="198.26165"
     inkscape:document-units="mm"
     inkscape:current-layer="svg8"
     inkscape:document-rotation="0"
     showgrid="true"
     units="px"
     inkscape:window-width="1920"
     inkscape:window-height="974"
     inkscape:window-x="-11"
     inkscape:window-y="-11"
     inkscape:window-maximized="1">
    <inkscape:grid
       type="xygrid"
       id="grid876"
       spacingx="1.0583333"
       spacingy="1.0583333"
       originx="0"
       originy="0"
       empspacing="4" />
  </sodipodi:namedview>
  <metadata
     id="metadata5">
    <rdf:RDF>
      <cc:Work
         rdf:about="">
        <dc:format>image/svg+xml</dc:format>
        <dc:type
           rdf:resource="http://purl.org/dc/dcmitype/StillImage" />
        <dc:title></dc:title>
      </cc:Work>
    </rdf:RDF>
  </metadata>
  <g
     inkscape:label="レイヤー 1"
     inkscape:groupmode="layer"
     id="layer1"
     style="display:none"
     sodipodi:insensitive="true">
    <path
       d="m 67.601332,103.6759 q 2.1167,0 3.2412,-0.728 1.1244,-0.728 1.1244,-2.18281 0,-1.455195 -1.1244,-2.248995 -1.1245,-0.794 -3.3735,-0.794 -5.5562,0 -11.3109,-3.5058 -5.7547,-3.5057 -7.3422,-12.3692 -0.265,-1.1907 -1.1906,-1.9183 -0.926,-0.728 -1.9844,-0.728 -1.4552,0 -2.249,1.1245 -0.794,1.1245 -0.529,2.3151 1.9844,11.1125 9.3927,16.0735 7.4083,4.960905 15.3458,4.960905 z m 0.132,16.9333 q -18.1239,0 -30.2286,-12.4354 -12.1047,-12.435405 -12.1047,-30.956205 0,-13.2292 10.5172,-28.7735 10.5172,-15.5443 31.8161,-33.6682 21.299,18.1239 31.8162,33.6682 10.517098,15.5443 10.517098,28.7735 0,18.5208 -12.104598,30.956205 -12.1047,12.4354 -30.2287,12.4354 z m 0,-7.9375 q 14.8167,0 24.6063,-10.1203 9.789498,-10.120305 9.789498,-25.333805 0,-10.4511 -8.797298,-23.7464 -8.7974,-13.2953 -25.5985,-28.112 -16.801,14.8167 -25.5984,28.112 -8.7974,13.2953 -8.7974,23.7464 0,15.2135 9.7896,25.333805 9.7895,10.1203 24.6062,10.1203 z m 0,-44.979105 z"
       id="path20"
       style="stroke-width:2.64583" />
  </g>
  <g
     inkscape:label="レイヤー 1 コピー"
     inkscape:groupmode="layer"
     id="g48"
     sodipodi:insensitive="true"
     style="display:none">
    <path
       d="m 67.601332,103.6759 q 2.1167,0 3.2412,-0.728 1.1244,-0.728 1.1244,-2.18281 0,-1.455195 -1.1244,-2.248995 -1.1245,-0.794 -3.3735,-0.794 -5.5562,0 -11.3109,-3.5058 -5.7547,-3.5057 -7.3422,-12.3692 -0.265,-1.1907 -1.1906,-1.9183 -0.926,-0.728 -1.9844,-0.728 -1.4552,0 -2.249,1.1245 -0.794,1.1245 -0.529,2.3151 1.9844,11.1125 9.3927,16.0735 7.4083,4.960905 15.3458,4.960905 z m 0.132,16.9333 q -18.1239,0 -30.2286,-12.4354 -12.1047,-12.435405 -12.1047,-30.956205 0,-13.2292 10.5172,-28.7735 10.5172,-15.5443 31.8161,-33.6682 21.299,18.1239 31.8162,33.6682 10.517098,15.5443 10.517098,28.7735 0,18.5208 -12.104598,30.956205 -12.1047,12.4354 -30.2287,12.4354 z m 0,-7.9375 q 14.8167,0 24.6063,-10.1203 9.789498,-10.120305 9.789498,-25.333805 0,-10.4511 -8.797298,-23.7464 -8.7974,-13.2953 -25.5985,-28.112 -16.801,14.8167 -25.5984,28.112 -8.7974,13.2953 -8.7974,23.7464 0,15.2135 9.7896,25.333805 9.7895,10.1203 24.6062,10.1203 z m 0,-44.979105 z"
       id="path46"
       style="fill:#ec0000;fill-opacity:1;stroke:none;stroke-width:2.64583;stroke-opacity:1" />
  </g>
  <g
     inkscape:groupmode="layer"
     id="layer2"
     inkscape:label="Shape1" />
  <path
     style="fill:none;stroke:#000000;stroke-width:7;stroke-linecap:butt;stroke-linejoin:miter;stroke-miterlimit:4;stroke-dasharray:none;stroke-opacity:1"
     d="m 67.73333,21.166666 c 0,0 -39.158331,31.749999 -39.158331,57.149998 0,22.224996 19.049999,39.158336 39.158332,39.158336 20.108333,0 39.158329,-13.75834 39.158329,-39.158336 0,-25.399999 -39.15833,-57.149998 -39.15833,-57.149998 z"
     id="path878"
     sodipodi:nodetypes="cszzc" />
  <circle
     style="opacity:0.999;fill:none;fill-opacity:1;stroke:#000000;stroke-width:6;stroke-linecap:round;stroke-linejoin:miter;stroke-miterlimit:4;stroke-dasharray:none;stroke-opacity:1"
     id="path882"
     cx="67.987259"
     cy="88.601715"
     r="16.933332" />
</svg>
