<?xml version="1.0" encoding="UTF-8" standalone="no"?>
<svg
   xmlns:dc="http://purl.org/dc/elements/1.1/"
   xmlns:cc="http://creativecommons.org/ns#"
   xmlns:rdf="http://www.w3.org/1999/02/22-rdf-syntax-ns#"
   xmlns:svg="http://www.w3.org/2000/svg"
   xmlns="http://www.w3.org/2000/svg"
   xmlns:sodipodi="http://sodipodi.sourceforge.net/DTD/sodipodi-0.dtd"
   xmlns:inkscape="http://www.inkscape.org/namespaces/inkscape"
   id="emoji"
   viewBox="0 0 72 72"
   version="1.1"
   sodipodi:docname="lion.svg"
   inkscape:version="1.0.1 (3bc2e813f5, 2020-09-07)">
  <metadata
     id="metadata927">
    <rdf:RDF>
      <cc:Work
         rdf:about="">
        <dc:format>image/svg+xml</dc:format>
        <dc:type
           rdf:resource="http://purl.org/dc/dcmitype/StillImage" />
        <dc:title></dc:title>
      </cc:Work>
    </rdf:RDF>
  </metadata>
  <defs
     id="defs925" />
  <sodipodi:namedview
     pagecolor="#ffffff"
     bordercolor="#666666"
     borderopacity="1"
     objecttolerance="10"
     gridtolerance="10"
     guidetolerance="10"
     inkscape:pageopacity="0"
     inkscape:pageshadow="2"
     inkscape:window-width="1898"
     inkscape:window-height="1008"
     id="namedview923"
     showgrid="false"
     inkscape:zoom="7.7302627"
     inkscape:cx="57.833816"
     inkscape:cy="41.770161"
     inkscape:window-x="9"
     inkscape:window-y="37"
     inkscape:window-maximized="0"
     inkscape:current-layer="emoji"
     inkscape:document-rotation="0" />
  <path
     style="fill:none;stroke:#000000;stroke-width:1.99937;stroke-linecap:round;stroke-linejoin:round;stroke-miterlimit:4;stroke-dasharray:none;stroke-opacity:1"
     d="m 6.7089256,21.700176 c 1.9504619,0.758856 2.2880022,1.74813 3.0649339,2.674634"
     id="path973"
     sodipodi:nodetypes="cc" />
  <path
     style="fill:none;stroke:#000000;stroke-width:1.99937;stroke-linecap:round;stroke-linejoin:round;stroke-miterlimit:4;stroke-dasharray:none;stroke-opacity:1"
     d="m 8.540594,20.251999 c 1.717489,1.195991 1.813081,2.236884 2.350509,3.32003"
     id="path975"
     sodipodi:nodetypes="cc" />
  <g
     id="color">
    <path
       fill="#F4AA41"
       stroke="none"
       d="M10.921,22.5547l-4.0185,2.0136l-2.5423,1.7802l-0.8686,2.7256l-1.4696,4.1912l1.8157,2.3282l5.8333-1.5797 l1.6224,1.5797l3.6707,1.9249l1.2487,4.3261l-4.0418,3.9438l-1.4167,4.3797l0.539,2.6654l2.8043,2.3565l3.0014-2.8463 c0,0-0.5245-3.0007,0.9404-4.3388c1.4649-1.3381,3.3757-3.7385,3.3757-3.7385v8.4005l0.6012,2.5443l2.2353,0.4577l1.3519-1.8344 l1.4614-12.9224l2.2658,0.2907l5.9944,0.5474l4.2084-2.0965l1.1374,4.6127l3.6984,3.7385l-0.79,4.7548l1.175,2.2688l2.5399-1.4963 l2.3975-4.1153v-3.6284l-4.1458-4.0474l7.6544,5.3456l2.7721,1.7794l0.7162,5.8899l1.9164,0.9706l1.8163-1.4347l-0.7805-9.0342 L57.9183,43.88l-3.4836-5.7002l0.2779-4.3048l-0.5946-5.3399c-3.7098-1.924-7.58-2.9066-11.6334-2.8146l-8.4753-0.0539 l-7.4206,0.5278l-4.8427-1.3913l-6.8252-0.2347l-1.6817-1.3828L10.921,22.5547z"
       id="path881" />
    <path
       fill="#FFFFFF"
       stroke="none"
       d="m 42.2127,37.086 c 0,0 -7.727288,0.889962 -14.25,-0.211 l -0.8976,4.037 4.3849,0.963 7.2002,-1.375 z"
       id="path883"
       style="fill:#f4c480;fill-opacity:1"
       sodipodi:nodetypes="cccccc" />
    <path
       fill="#FFFFFF"
       stroke="none"
       d="M19.921,40.875l-4.9167,2.6667l-3.5503,4.4631v5.4119l4.4253,1.6116l1.4167-2.945 c0,0-0.3051-2.6254,0.7435-3.875c1.0486-1.2496,3.2982-4.125,3.2982-4.125l-0.25-2.2083L19.921,40.875z"
       id="path885"
       style="fill:#f4c480;fill-opacity:1" />
    <path
       fill="#FFFFFF"
       stroke="none"
       d="M40.6294,43.0417c0,0,7.625-1.2709,9.8333,2.6041v3.7292l-3.75,5.6533l-2.2083,0.1827l-1.125-1.5443 l0.99-4.375l-0.6984-1.625l-1.4583-2.5295L40.6294,43.0417z"
       id="path887"
       style="fill:#f4c480;fill-opacity:1" />
    <path
       fill="#f4aa41"
       stroke="none"
       d="M54.046,33.8333c0,0,2.5005,9.2708,6.3755,11.8124c3.875,2.5417,5.7079,2.9792,7.8745,2.5626 c1.8129-0.3486,1.5833-2.5626,1.5833-2.5626H67.796l-6.0833-3.2291l-1.5719-3.2761l-0.7198-2.8489l-1.0833-4.0282L54.874,29.049 l-2.0363-1.1324L54.046,33.8333z"
       id="path889" />
  </g>
  <g
     id="hair" />
  <g
     id="skin" />
  <g
     id="skin-shadow" />
  <path
     fill="none"
     stroke="#000000"
     stroke-linecap="round"
     stroke-linejoin="round"
     stroke-miterlimit="10"
     stroke-width="2"
     d="m 14.3304,24.5107 h 6.2586 c 0.7536,0 1.4984,0.1615 2.1843,0.4735 l 0.9154,0.4165 c 1.3718,0.6241 2.8873,0.8609 4.3831,0.6759 5.4788,-0.6773 18.8505,-0.9925 23.8963,1.3062 6.9315,3.1578 6.4836,7.3762 7.3482,9.6455 0.8646,2.2692 2.9583,9.0061 9.6667,8.5999"
     id="path895"
     style="stroke-width:1.99937008;stroke-miterlimit:10;stroke-dasharray:none" />
  <path
     fill="none"
     stroke="#000000"
     stroke-linecap="round"
     stroke-linejoin="round"
     stroke-miterlimit="10"
     stroke-width="2"
     d="m 18.1805,35.1274 c 0.4163,2.1503 1.4556,4.6774 3.6201,7.4476 v 11.1514 c 0,1.1046 0.8954,2 2,2 h 0.1891 c 1.0865,0 1.9746,-0.8635 1.9993,-1.9497 0.0903,-3.9687 1.4782,-15.2085 2.4732,-16.836 0,0 -0.6371,-2.5625 -1.25,-4.25"
     id="path897" />
  <path
     fill="none"
     stroke="#000000"
     stroke-linecap="round"
     stroke-linejoin="round"
     stroke-miterlimit="10"
     stroke-width="2"
     d="m 12.2006,35.0056 c 0.415,0.6388 1.6554,1.4664 2.4862,1.8528 0.4386,0.204 0.753,0.6061 0.8782,1.0733 l 1.2429,4.6375 c 0,0 -7.3532,3.9727 -4.451,10.976 0.2972,0.7173 1.0845,1.4253 2.1262,1.5869 1.0894,0.169 3.0014,-0.6707 2.3248,-2.6707"
     id="path899" />
  <path
     fill="none"
     stroke="#000000"
     stroke-linecap="round"
     stroke-linejoin="round"
     stroke-miterlimit="10"
     stroke-width="2"
     d="m 27.9975,40.6854 c 0,0 7.5589,2.9477 14.0283,-2.9477 0,0 0.1031,1.7447 6.2829,6.0852 0,0 3.7501,2.8987 7.6317,4.7127 l 0.5507,5.6552 c 0.0906,0.9305 1.1792,1.5357 2.1141,1.5357 v 0 c 1.0579,0 1.892,-0.9006 1.8109,-1.9555 l -0.615,-7.9988 C 59.7587,45.2204 59.3605,44.8169 58.8483,44.6073 57.5248,44.0657 55.431,40.4407 54.0664,37.3782 l -0.4167,-3.316"
     id="path901" />
  <path
     fill="none"
     stroke="#000000"
     stroke-linecap="round"
     stroke-linejoin="round"
     stroke-miterlimit="10"
     stroke-width="2"
     d="m 38.567,40.0831 c 0,0 1.352,4.1254 6.2702,8.5451 l -0.8725,4.0737 c -0.2501,1.1677 0.6401,2.2688 1.8343,2.2688 v 0 c 0.7351,0 1.4005,-0.426 1.7053,-1.0949 0.6068,-1.3321 1.3466,-3.5208 2.0204,-4.5392"
     id="path903" />
  <path
     fill="none"
     stroke="#000000"
     stroke-linecap="round"
     stroke-linejoin="round"
     stroke-miterlimit="10"
     stroke-width="2"
     d="M 13.8249,26.0657 C 15.56,23.3004 12.149689,21.440687 10.0709,23.1592 M 7.6902,24.383 C 3.8693,25.4515 4.1378,28.3028 4.1378,28.3028 L 2.4393,32.9474 C 2.345,33.283 2.463,33.6422 2.7378,33.8566 l 1.6702,1.3022 c 0.5103,0.3978 1.188,0.4859 1.7866,0.2402 0.8398,-0.34475 2.174725,-1.01595 3.2997,-1.971288"
     id="path905"
     style="stroke-width:1.99937;stroke-miterlimit:10;stroke-dasharray:none"
     sodipodi:nodetypes="ccccccccc" />
  <path
     fill="none"
     stroke="#000000"
     stroke-linecap="round"
     stroke-linejoin="round"
     stroke-miterlimit="10"
     stroke-width="2"
     d="m 21.8006,44.2085 c 0,0 -2.9432,1.5902 -4.3161,3.7385"
     id="path907" />
  <path
     style="fill:#875e24;fill-opacity:1;stroke:#000000;stroke-width:1.99937;stroke-linecap:round;stroke-linejoin:round;stroke-miterlimit:4;stroke-dasharray:none;stroke-opacity:1"
     d="M 22.138794,29.157878 C 24.204813,27.22016 26.5887,26.1944 30.076598,25.354895 21.029991,18.650386 14.156864,18.305317 9.7668091,25.225533 c 1.8971989,0.588414 1.1744209,12.171229 1.9404259,17.205108 4.261259,-2.445894 3.776252,-4.347424 4.451447,-7.405293"
     id="path985"
     sodipodi:nodetypes="ccccc" />
  <path
     style="fill:#f4aa41;fill-opacity:1;stroke:#010100;stroke-width:1.99559;stroke-linecap:round;stroke-linejoin:miter;stroke-miterlimit:4;stroke-dasharray:none;stroke-opacity:1"
     d="m 13.8249,26.0657 c 1.730569,-2.865665 -1.331745,-4.737691 -3.754,-2.9065"
     id="path983"
     sodipodi:nodetypes="cc" />
  <path
     id="path995"
     style="opacity:0.999;fill:#875e24;fill-opacity:1;stroke:none;stroke-width:1.99937;stroke-linecap:round;stroke-linejoin:round;stroke-miterlimit:4;stroke-dasharray:none;stroke-opacity:1"
     d="m 70.146381,45.794048 c -1e-6,1.821834 -1.48529,2.546749 -2.910639,2.522553 -1.699598,0.109273 -3.795502,-0.662684 -4.171267,-1.19761 0.08322,-0.780254 0.457386,-1.168002 0.465516,-1.882578 0,-1.821835 1.578375,-2.353004 3.382349,-2.353004 1.803974,0 3.234043,1.088804 3.234043,2.910639 z"
     sodipodi:nodetypes="scccsss" />
  <path
     id="ellipse999"
     style="opacity:0.999;fill:none;fill-opacity:1;stroke:#010100;stroke-width:1.99937;stroke-linecap:round;stroke-linejoin:round;stroke-miterlimit:4;stroke-dasharray:none;stroke-opacity:1"
     d="m 64.308407,44.526045 c 1.281548,-1.269634 3.464456,-1.345524 4.642075,0.04455"
     sodipodi:nodetypes="cc" />
</svg>
