<?xml version="1.0" encoding="UTF-8" standalone="no"?>
<svg
   xmlns:dc="http://purl.org/dc/elements/1.1/"
   xmlns:cc="http://creativecommons.org/ns#"
   xmlns:rdf="http://www.w3.org/1999/02/22-rdf-syntax-ns#"
   xmlns:svg="http://www.w3.org/2000/svg"
   xmlns="http://www.w3.org/2000/svg"
   xmlns:sodipodi="http://sodipodi.sourceforge.net/DTD/sodipodi-0.dtd"
   xmlns:inkscape="http://www.inkscape.org/namespaces/inkscape"
   width="48"
   height="48"
   viewBox="0 0 12.7 12.7"
   version="1.1"
   id="svg8"
   inkscape:version="1.0.1 (3bc2e813f5, 2020-09-07)"
   sodipodi:docname="svg.svg">
  <defs
     id="defs2" />
  <sodipodi:namedview
     id="base"
     pagecolor="#ffffff"
     bordercolor="#666666"
     borderopacity="1.0"
     inkscape:pageopacity="0.0"
     inkscape:pageshadow="2"
     inkscape:zoom="5.0179625"
     inkscape:cx="48.412718"
     inkscape:cy="11.375595"
     inkscape:document-units="mm"
     inkscape:current-layer="layer1"
     inkscape:document-rotation="0"
     showgrid="true"
     units="px"
     inkscape:window-width="1920"
     inkscape:window-height="974"
     inkscape:window-x="-11"
     inkscape:window-y="-11"
     inkscape:window-maximized="1">
    <inkscape:grid
       type="xygrid"
       id="grid833"
       empspacing="4" />
  </sodipodi:namedview>
  <metadata
     id="metadata5">
    <rdf:RDF>
      <cc:Work
         rdf:about="">
        <dc:format>image/svg+xml</dc:format>
        <dc:type
           rdf:resource="http://purl.org/dc/dcmitype/StillImage" />
        <dc:title></dc:title>
      </cc:Work>
    </rdf:RDF>
  </metadata>
  <g
     inkscape:label="レイヤー 1"
     inkscape:groupmode="layer"
     id="layer1">
    <path
       fill="currentColor"
       d="m 6.35,1.078415 q -0.47134,0 -0.85585,0.26047 -0.38452,0.26048 -0.57057,0.69461 -0.12404,0.28528 -0.12404,0.59538 -0.21086,-0.22327 -0.49615,-0.3349 -0.43412,-0.18606 -0.88686,-0.093 -0.45273,0.093 -0.79383,0.42793 -0.3411,0.33489 -0.42793,0.78763 -0.0868,0.45273 0.0868,0.89926 0.12403,0.27288 0.3473,0.49615 -0.31009,0 -0.59538,0.11163 -0.44653,0.18606 -0.7008,0.57057 -0.25428,0.38452 -0.25428,0.86206 0,0.47754 0.25428,0.86205 0.25427,0.38452 0.7008,0.55817 0.28529,0.12403 0.58298,0.12403 -0.21087,0.22327 -0.3349,0.49615 -0.17366,0.44653 -0.0868,0.89927 0.0868,0.45273 0.42793,0.78763 0.3411,0.3349 0.79383,0.42793 0.45274,0.093 0.88686,-0.093 0.28529,-0.12404 0.49615,-0.3349 0,0.31009 0.12404,0.59537 0.18605,0.43413 0.57057,0.68841 0.38451,0.25427 0.85585,0.25427 0.47134,0 0.85585,-0.25427 0.38452,-0.25428 0.57057,-0.68841 0.12404,-0.28528 0.12404,-0.59537 0.21086,0.21086 0.49614,0.3349 0.43413,0.18605 0.88687,0.093 0.45273,-0.093 0.79383,-0.42793 0.3411,-0.3349 0.42793,-0.78763 0.0868,-0.45274 -0.0868,-0.89927 -0.12403,-0.28528 -0.3349,-0.49615 0.29769,0 0.58298,-0.11163 0.44653,-0.18605 0.7008,-0.57057 0.25428,-0.38451 0.25428,-0.86205 0,-0.47754 -0.25428,-0.86206 -0.25427,-0.38451 -0.7008,-0.57057 -0.28529,-0.11163 -0.58298,-0.11163 0.21087,-0.22327 0.3349,-0.49615 0.17365,-0.44653 0.0868,-0.89926 -0.0868,-0.45274 -0.42793,-0.78763 -0.3411,-0.3349 -0.79383,-0.42793 -0.45274,-0.093 -0.88687,0.093 -0.28528,0.11163 -0.50855,0.3349 0.0124,-0.3101 -0.11163,-0.59538 Q 7.59037,1.599365 7.20585,1.338885 6.82134,1.078415 6.35,1.078415 Z m 0,0.70701 q 0.24807,0 0.46514,0.14884 0.21706,0.14884 0.31009,0.37831 0.093,0.22947 0.0434,0.47754 -0.0496,0.24808 -0.22326,0.43413 v 1.6993 l 1.20315,-1.20315 q 0,-0.26048 0.14264,-0.47134 0.14265,-0.21086 0.37211,-0.30389 0.22947,-0.093 0.48375,-0.0434 0.25427,0.0496 0.42792,0.22326 0.17365,0.17365 0.22327,0.42793 0.0496,0.25427 -0.0434,0.48994 -0.093,0.23567 -0.30389,0.37211 -0.21087,0.13644 -0.45894,0.13644 l -1.21556,1.21556 h 1.71171 q 0.17365,-0.18605 0.42172,-0.23567 0.24807,-0.0496 0.48374,0.0496 0.23567,0.0992 0.37832,0.31629 0.14264,0.21707 0.14264,0.45894 0,0.24187 -0.14264,0.45893 -0.14265,0.21707 -0.37211,0.31009 -0.22947,0.093 -0.48375,0.0434 -0.25427,-0.0496 -0.42792,-0.22327 H 7.77642 l 1.21556,1.21556 q 0.24807,0 0.45894,0.13644 0.21086,0.13644 0.30389,0.36591 0.093,0.22947 0.0434,0.48994 -0.0496,0.26048 -0.22327,0.43413 -0.17365,0.17365 -0.42792,0.22327 -0.25428,0.0496 -0.48375,-0.0496 Q 8.43381,9.661765 8.29116,9.450875 8.14852,9.240015 8.14852,8.991945 L 6.94537,7.776385 v 1.7117 q 0.17365,0.18606 0.22326,0.43413 0.0496,0.24807 -0.0434,0.47754 -0.093,0.22947 -0.31009,0.37211 -0.21707,0.14264 -0.46514,0.14264 -0.24807,0 -0.46514,-0.14264 -0.21706,-0.14264 -0.31009,-0.37211 -0.093,-0.22947 -0.0434,-0.47754 0.0496,-0.24807 0.22326,-0.43413 v -1.7117 l -1.20315,1.21556 q 0,0.26047 -0.14265,0.46513 -0.14264,0.20466 -0.37211,0.30389 -0.22946,0.0992 -0.48374,0.0496 -0.25427,-0.0496 -0.42792,-0.22327 -0.17366,-0.17365 -0.22327,-0.43413 -0.0496,-0.26047 0.0434,-0.48994 0.093,-0.22947 0.30389,-0.36591 0.21086,-0.13644 0.45894,-0.13644 L 4.92358,6.945315 H 3.21187 q -0.17365,0.17365 -0.42793,0.22327 -0.25427,0.0496 -0.48374,-0.0434 -0.22947,-0.093 -0.37211,-0.31009 -0.14264,-0.21706 -0.14264,-0.45893 0,-0.24187 0.14264,-0.45894 0.14264,-0.21706 0.37831,-0.31629 0.23567,-0.0992 0.48375,-0.0496 0.24807,0.0496 0.42172,0.23567 H 4.92358 L 3.70802,4.551445 q -0.24808,0 -0.45894,-0.13644 -0.21086,-0.13644 -0.30389,-0.37211 -0.093,-0.23567 -0.0434,-0.48994 0.0496,-0.25428 0.22327,-0.42793 0.17365,-0.17365 0.42792,-0.22326 0.25428,-0.0496 0.48374,0.0434 0.22947,0.093 0.37211,0.30389 0.14265,0.21086 0.14265,0.47134 l 1.20315,1.20315 v -1.7117 Q 5.58098,3.038195 5.53137,2.790115 5.48177,2.542045 5.57477,2.312575 5.66777,2.083105 5.88486,1.934265 6.10193,1.785425 6.35,1.785425 Z"
       id="path845"
       style="stroke-width:0.0124037" />
  </g>
</svg>
