<?xml version="1.0" encoding="UTF-8"?>
<svg id="emoji" version="1.1" viewBox="0 0 72 72" xmlns="http://www.w3.org/2000/svg" xmlns:cc="http://creativecommons.org/ns#" xmlns:dc="http://purl.org/dc/elements/1.1/" xmlns:rdf="http://www.w3.org/1999/02/22-rdf-syntax-ns#">
 <metadata>
  <rdf:RDF>
   <cc:Work rdf:about="">
    <dc:format>image/svg+xml</dc:format>
    <dc:type rdf:resource="http://purl.org/dc/dcmitype/StillImage"/>
    <dc:title/>
   </cc:Work>
  </rdf:RDF>
 </metadata>
 <path d="m10.6 16.2-6.84-1.84" fill="#ea5a47" stop-color="#000000" stroke="#ea5a47" stroke-linecap="round" stroke-linejoin="round" stroke-miterlimit="10" stroke-width="2" style="font-variation-settings:normal"/>
 <path d="m46.2 42.7 2.3 6.59-2.4 7.82-2.15 3.42 0.56 1.82 2.34 0.0863 2.9-1.64 4.04-10.1-0.307-1.34s-2.3-6.36-3.48-8.24z" fill="#d0cfce"/>
 <path d="m57.6 26.2v6.05l-1.03 9.44 2.24 4.91s0.371 12.4 7.96 10.1l-1.34-1.88-2.03-6.06s-0.143-9.43-0.136-9.83-0.613-6.67-0.613-6.67l-2.14-4.54z" fill="#61b2e4"/>
 <path d="m10.8 13.3c1.14 3.39-2.04 5.96-2.92 8.97-1.8 1.99-3.11 6.56 0.891 6.77 1.97-1.9 6.47-4.12 6.68-3.61l1.4 2.33s3.63 7.18 3.7 9.39c0.352 3.89 4.68 5.14 6.03 8.3 1.23 4.5 2.58 9.05 2.78 13.8-2.17 2.59 2.51 6.05 3.27 2.1 1.16-3.66-0.728-7.36-0.678-11.1 0.259-2.27-0.768-6.39 0.777-7.6l14.5-0.213 2.32-1.04s3.79 4.72 5.32 7.84c0.856 3.56-0.501 7.13-1.59 10.5-1.16 2.59 2.06 4.69 3.23 1.7 1.42-4.31 2.71-8.78 2.91-13.4-0.753-2.52-3.18-3.23-1.85-5.98 2.2-1.9 3.5-6.83 2.99-9.85-0.385-2.95-1.36-6.47-4.9-6.78-6.02-1.57-11.9 1.84-18 0.885-3.12-0.157-7.03 0.3-9.1-2.58-2.37-3.53-5.57-6.67-9.71-7.97-2.63-0.688-4.81-3.35-7.69-2.6z" fill="#fff"/>
 <path d="m21.9 41 0.65 6.21 1.51 3.04-1.13 6.47-1.02 3.9 1.08 1.57 2.26-0.618s1.88-1.64 1.88-2.02 2-7.19 2-7.19l-1.94-6.9-1.67-2.66-3.61-1.81z" fill="#d0cfce"/>
 <g id="line" fill="none" stroke="#000" stroke-linecap="round" stroke-linejoin="round" stroke-miterlimit="10" stroke-width="2">
  <path d="m16.3 22.6c-0.264 3.61-4.25 3.44-4.25 3.44l-1.57 1.74c-1.3 2.83-4.8 0.826-4.8-1.24 1.51-3.42 3.06-5.75 3.06-5.75-0.125-2.79 3.31-4.62 3.31-4.62l-1.28-1.77c-0.436-0.568-0.0718-1.39 0.642-1.46 1.25-0.119 3.62-0.146 4.57 1.98 0 0 8.86 0.933 14 10.4 0.238 0.444 9.88 2.31 16.1 0.442 4.28-1.29 17-2.06 17.3 10.5 0.117 6.41-1.25 15.1 3 19.5"/>
  <path d="m59.2 37c-0.442 1.63-1.22 3.43-2.59 4.64 0 0 1.1 4.79 3.17 6.8l-2.71 12.2-1.06 1.93c-0.306 0.554-0.888 0.899-1.52 0.899-1.25 0-2.1-1.28-1.59-2.42 0.968-2.21 2.16-5.96 2.39-11.3 0 0-6.72-6.58-6.1-12.5"/>
  <path d="m17.8 27.5 2.67 5.63s-1.15 6.34 3.29 9.17l2.42 1.56 2.51 9.23 0.917 6.83-0.484 1.21c-0.445 1.11 0.376 2.32 1.58 2.32 0.713 0 1.35-0.445 1.59-1.12l0.746-2.04c0.24-0.658 0.299-1.37 0.169-2.06l-1.33-7.09-0.16-8.68s7.24 2.14 14.3-0.602"/>
  <path d="m23.5 47.2 0.604 4.42-1.74 7.29-0.367 0.919c-0.482 1.21 0.407 2.52 1.71 2.52 0.734 0 1.4-0.436 1.69-1.11l0.79-1.83"/>
  <path d="m48.9 60.3-1.45 1.65c-0.418 0.476-1.06 0.686-1.68 0.55-1.22-0.27-1.77-1.7-1.03-2.71 1.42-1.95 3.39-5.35 4.77-10.5 0 0-0.905-2.13-1.72-4.97"/>
 </g>
 <g stroke="#000" stroke-linecap="round" stroke-linejoin="round" stroke-miterlimit="10" stroke-width="2">
  <path d="m10.1 16.8-5.82-2.19" fill="#ea5a47" stop-color="#000000" style="font-variation-settings:normal"/>
  <path d="m24.6 21.8c11-2.05 7.14 12.7 6.63 14.5-2.2-2.37-2.69-10.8-6.63-14.5z" fill="#61b2e4" stop-color="#000000" style="font-variation-settings:normal"/>
  <path d="m20.1 18c11-2.05 7.14 12.7 6.63 14.5-2.2-2.37-2.69-10.8-6.63-14.5z" fill="#e67a94" stop-color="#000000" style="font-variation-settings:normal"/>
  <path d="m16 14.9c11-2.05 7.14 12.7 6.63 14.5-2.2-2.37-2.69-10.8-6.63-14.5z" fill="#92d3f5" stop-color="#000000" style="font-variation-settings:normal"/>
 </g>
</svg>
