<?xml version="1.0" encoding="UTF-8"?>
<svg id="emoji" version="1.1" viewBox="0 0 72 72" xmlns="http://www.w3.org/2000/svg" xmlns:cc="http://creativecommons.org/ns#" xmlns:dc="http://purl.org/dc/elements/1.1/" xmlns:rdf="http://www.w3.org/1999/02/22-rdf-syntax-ns#">
 <metadata>
  <rdf:RDF>
   <cc:Work rdf:about="">
    <dc:format>image/svg+xml</dc:format>
    <dc:type rdf:resource="http://purl.org/dc/dcmitype/StillImage"/>
    <dc:title/>
   </cc:Work>
  </rdf:RDF>
 </metadata>
 <path d="m12.2 13c-0.34-0.0024-0.689 0.0391-1.05 0.133l-0.355 0.111c1.14 3.39-2.04 5.96-2.92 8.97-1.8 1.99-3.11 6.57 0.891 6.77 1.97-1.9 6.47-4.11 6.68-3.61l1.4 2.33s3.63 7.18 3.7 9.39c0.352 3.89 4.68 5.13 6.03 8.3 1.23 4.5 2.58 9.05 2.78 13.8-2.17 2.59 2.51 6.05 3.27 2.1 1.16-3.66-0.73-7.36-0.68-11.1 0.259-2.27-0.767-6.39 0.777-7.6l13.3-0.195 0.0332 0.428c1.61-0.0652 3.21-1.25 4.39-1.09 1.05 0.137 1.72 1.56 2.33 2.01 0.602 0.454 1.05 1.09 1.33 2.21 0.0492 0.192 0.155 0.366 0.303 0.498 0.281 0.858 0.595 1.64 1.08 2.16 0.0385 0.48 0.0486 0.943 0.0156 1.59-0.542 4.07-4.28 0.538-6.49 2.64-0.802 0.765-2.81 3.29-2.45 3.92 0.0239 0.042 0.0577 0.0776 0.104 0.102 0.17 0.0886 0.497 0.0475 1.04-0.178 2.52-0.519 4.31 2.58 6.61 2.36 0.923-0.0862 1.61-0.6 2.11-0.992 0.106 0.865 0.0158 2.51 0.816 3.27 1.43 1.28 4 2.28 3.72 5.97 2.62-2.79 4.79-4.64 2.06-9.29-0.967-1.62-1.53-2.51-1.05-3.64 0.263-0.346 1.02-1.2 1.29-1.6 8.44-8.82 2.08-17.8-3.72-24.3-5.9-6.63-15.4-1.44-21.9-2.13-3.1-0.329-7.03 0.301-9.1-2.58-2.37-3.53-5.57-6.67-9.71-7.97-2.3-0.602-4.26-2.72-6.64-2.73z" fill="#61b2e4"/>
 <path d="m21.9 41 0.65 6.21 1.51 3.04-1.13 6.47-1.02 3.9 1.08 1.57 2.26-0.618s1.88-1.64 1.88-2.02 2-7.19 2-7.19l-1.94-6.9-1.67-2.66-3.61-1.81z" fill="#92d3f5"/>
 <path d="m57.5 52.4c-2.57-0.603-1.92-8.13-4.89-9.65s-3.39-1.2-10.1-0.477c19.3-12 20.2 10.7 15 10.1z" fill="#92d3f5" stop-color="#000000"/>
 <path d="m17.8 27.5 2.67 5.63s-1.15 6.34 3.29 9.17l2.42 1.56 2.51 9.23 0.917 6.83-0.484 1.21c-0.445 1.11 0.376 2.32 1.58 2.32v0c0.713 0 1.35-0.445 1.59-1.12l0.746-2.04c0.24-0.658 0.299-1.37 0.169-2.06l-1.33-7.09-0.16-8.68s7.24 2.14 14.3-0.602c2.19-0.665 4.29-0.633 6.23 0.48 1.64 0.624 2.74 1.91 3.06 4.46 0.19 1.53 0.298 2.09 0.23 3.43-0.542 4.07-4.28 0.538-6.49 2.64-0.802 0.765-2.81 3.29-2.45 3.92 0.0239 0.042 0.0584 0.0762 0.104 0.1 0.17 0.0886 0.497 0.0474 1.04-0.178 2.52-0.519 4.31 2.58 6.61 2.36 0.923-0.0862 1.61-0.601 2.11-0.993 0.106 0.865 0.0152 2.51 0.816 3.27 1.43 1.28 4 2.28 3.72 5.97 2.62-2.79 4.79-4.64 2.06-9.29-0.967-1.62-1.53-2.51-1.05-3.64 0.263-0.346 1.02-1.21 1.28-1.6 8.94-9.88 0.702-30.4-17.3-27-6.19 1.87-15.8 2e-3 -16.1-0.442-5.1-9.5-14-10.4-14-10.4-0.959-2.12-3.32-2.1-4.57-1.98-0.714 0.067-1.08 0.886-0.642 1.46l1.28 1.77s-3.44 1.83-3.31 4.62c0 0-1.55 2.34-3.06 5.75 0 2.06 3.5 4.06 4.8 1.24l1.57-1.74s3.99 0.168 4.25-3.44" fill="none" stroke="#000" stroke-linecap="round" stroke-linejoin="round" stroke-miterlimit="10" stroke-width="2"/>
 <path d="m23.5 47.2 0.604 4.42-1.74 7.29-0.367 0.919c-0.482 1.21 0.407 2.52 1.71 2.52v0c0.734 0 1.4-0.436 1.69-1.11l0.79-1.83" fill="none" stroke="#000" stroke-linecap="round" stroke-linejoin="round" stroke-miterlimit="10" stroke-width="2"/>
</svg>
