<?xml version="1.0" encoding="UTF-8" standalone="no"?>
<svg
   xmlns:dc="http://purl.org/dc/elements/1.1/"
   xmlns:cc="http://creativecommons.org/ns#"
   xmlns:rdf="http://www.w3.org/1999/02/22-rdf-syntax-ns#"
   xmlns:svg="http://www.w3.org/2000/svg"
   xmlns="http://www.w3.org/2000/svg"
   xmlns:sodipodi="http://sodipodi.sourceforge.net/DTD/sodipodi-0.dtd"
   xmlns:inkscape="http://www.inkscape.org/namespaces/inkscape"
   id="emoji"
   viewBox="0 0 72 72"
   version="1.1"
   sodipodi:docname="1F40E_dark_horse.svg"
   inkscape:version="1.0.1 (3bc2e813f5, 2020-09-07)">
  <metadata
     id="metadata1583">
    <rdf:RDF>
      <cc:Work
         rdf:about="">
        <dc:format>image/svg+xml</dc:format>
        <dc:type
           rdf:resource="http://purl.org/dc/dcmitype/StillImage" />
        <dc:title />
      </cc:Work>
    </rdf:RDF>
  </metadata>
  <defs
     id="defs1581" />
  <sodipodi:namedview
     pagecolor="#ffffff"
     bordercolor="#666666"
     borderopacity="1"
     objecttolerance="10"
     gridtolerance="10"
     guidetolerance="10"
     inkscape:pageopacity="0"
     inkscape:pageshadow="2"
     inkscape:window-width="1920"
     inkscape:window-height="974"
     id="namedview1579"
     showgrid="false"
     inkscape:zoom="14.826489"
     inkscape:cx="33.203381"
     inkscape:cy="37.641287"
     inkscape:window-x="-11"
     inkscape:window-y="-11"
     inkscape:window-maximized="1"
     inkscape:current-layer="layer2"
     inkscape:document-rotation="0" />
  <g
     id="hair" />
  <g
     id="skin" />
  <g
     id="skin-shadow" />
  <g
     inkscape:groupmode="layer"
     id="layer1"
     inkscape:label="Layer 1"
     style="display:none"
     sodipodi:insensitive="true">
    <g
       id="color">
      <path
         fill="#6a462f"
         d="m 46.19,42.68 2.296,6.588 -2.399,7.825 -2.146,3.417 0.5595,1.822 2.339,0.08633 2.903,-1.645 4.044,-10.13 -0.3066,-1.341 c 0,0 -2.295,-6.365 -3.485,-8.242 z"
         id="path1555" />
      <path
         fill="#6a462f"
         d="m 57.63,26.17 v 6.052 l -1.03,9.437 2.242,4.911 c 0,0 0.3713,12.35 7.955,10.1 l -1.335,-1.88 -2.027,-6.065 c 0,0 -0.1428,-9.432 -0.1355,-9.829 0.0073,-0.397 -0.6129,-6.672 -0.6129,-6.672 l -2.138,-4.543 z"
         id="path1557" />
      <path
         fill="#a57939"
         d="m 10.81,13.29 c 1.139,3.392 -2.043,5.957 -2.92,8.968 -1.795,1.992 -3.109,6.565 0.8909,6.773 1.967,-1.901 6.468,-4.115 6.682,-3.61 l 1.405,2.33 c 0,0 3.632,7.184 3.701,9.389 0.352,3.889 4.676,5.135 6.026,8.299 1.226,4.505 2.579,9.054 2.784,13.75 -2.174,2.589 2.514,6.047 3.267,2.1 1.158,-3.662 -0.7283,-7.357 -0.6783,-11.06 0.2588,-2.272 -0.7676,-6.391 0.7768,-7.603 l 14.46,-0.2127 2.316,-1.035 c 0,0 3.793,4.722 5.32,7.84 0.8563,3.565 -0.5011,7.134 -1.587,10.48 -1.162,2.592 2.062,4.688 3.234,1.698 1.42,-4.314 2.711,-8.775 2.914,-13.35 -0.7532,-2.525 -3.181,-3.228 -1.85,-5.98 2.198,-1.901 3.502,-6.832 2.991,-9.85 -0.3852,-2.954 -1.362,-6.472 -4.901,-6.777 -6.022,-1.568 -11.93,1.841 -17.97,0.8852 -3.117,-0.1567 -7.026,0.3004 -9.103,-2.579 -2.368,-3.529 -5.572,-6.668 -9.713,-7.966 -2.63,-0.6877 -4.81,-3.352 -7.689,-2.602 z"
         id="path1559" />
      <path
         fill="#6a462f"
         d="m 21.87,41 0.6502,6.214 1.508,3.036 -1.133,6.472 -1.025,3.903 1.079,1.571 2.258,-0.6175 c 0,0 1.876,-1.641 1.876,-2.016 0,-0.375 2,-7.188 2,-7.188 l -1.938,-6.902 -1.669,-2.66 -3.606,-1.812 z"
         id="path1561" />
    </g>
    <g
       id="line">
      <path
         fill="none"
         stroke="#000000"
         stroke-linecap="round"
         stroke-linejoin="round"
         stroke-miterlimit="10"
         stroke-width="2"
         d="m 16.31,22.62 c -0.264,3.606 -4.25,3.438 -4.25,3.438 l -1.571,1.736 c -1.304,2.826 -4.804,0.8261 -4.804,-1.236 1.508,-3.415 3.062,-5.75 3.062,-5.75 -0.125,-2.792 3.312,-4.625 3.312,-4.625 l -1.278,-1.772 c -0.4364,-0.5685 -0.0718,-1.388 0.6417,-1.455 1.253,-0.1186 3.615,-0.1459 4.574,1.977 0,0 8.865,0.9329 13.96,10.43 0.238,0.4441 9.877,2.308 16.07,0.4421 4.284,-1.29 17.05,-2.062 17.28,10.5 0.1169,6.406 -1.252,15.1 2.998,19.52"
         id="path1567" />
      <path
         fill="none"
         stroke="#000000"
         stroke-linecap="round"
         stroke-linejoin="round"
         stroke-miterlimit="10"
         stroke-width="2"
         d="m 59.19,37.02 c -0.4424,1.631 -1.221,3.426 -2.589,4.642 0,0 1.096,4.786 3.172,6.804 l -2.71,12.17 -1.062,1.927 c -0.3055,0.5545 -0.8885,0.8989 -1.522,0.8989 v 0 c -1.252,0 -2.096,-1.276 -1.594,-2.423 0.968,-2.212 2.16,-5.956 2.389,-11.3 0,0 -6.722,-6.584 -6.104,-12.48"
         id="path1569" />
      <path
         fill="none"
         stroke="#000000"
         stroke-linecap="round"
         stroke-linejoin="round"
         stroke-miterlimit="10"
         stroke-width="2"
         d="m 17.78,27.49 2.668,5.633 c 0,0 -1.153,6.343 3.287,9.168 l 2.422,1.557 2.513,9.234 0.9167,6.833 -0.4839,1.213 c -0.4446,1.114 0.3761,2.325 1.576,2.325 v 0 c 0.7126,0 1.349,-0.4454 1.594,-1.115 l 0.7465,-2.045 c 0.2401,-0.6576 0.2986,-1.368 0.1694,-2.056 l -1.331,-7.089 -0.1597,-8.684 c 0,0 7.241,2.141 14.32,-0.6019"
         id="path1571" />
      <path
         fill="none"
         stroke="#000000"
         stroke-linecap="round"
         stroke-linejoin="round"
         stroke-miterlimit="10"
         stroke-width="2"
         d="m 23.51,47.21 0.6035,4.42 -1.74,7.287 -0.3672,0.9192 c -0.482,1.207 0.4068,2.519 1.706,2.519 v 0 c 0.7335,0 1.397,-0.4362 1.687,-1.11 l 0.7899,-1.831"
         id="path1573" />
      <path
         fill="none"
         stroke="#000000"
         stroke-linecap="round"
         stroke-linejoin="round"
         stroke-miterlimit="10"
         stroke-width="2"
         d="m 48.9,60.26 -1.452,1.652 c -0.4179,0.4755 -1.061,0.6861 -1.68,0.5495 v 0 c -1.223,-0.2701 -1.771,-1.698 -1.033,-2.71 1.422,-1.951 3.394,-5.35 4.771,-10.52 0,0 -0.9047,-2.133 -1.716,-4.966"
         id="path1575" />
    </g>
  </g>
  <g
     inkscape:groupmode="layer"
     id="layer2"
     inkscape:label="fill_white"
     style="display:inline">
    <path
       id="path1555-8"
       style="fill:#000000;fill-opacity:0.49624065"
       d="m 12.564453,11.914062 c -0.471995,-0.01549 -0.895365,0.01481 -1.234375,0.04688 h -0.002 C 9.8917327,12.09734 9.1058154,13.86994 9.9882812,15.019531 l 0.6894528,0.957031 c -0.367448,0.242551 -0.512301,0.270249 -1.0136715,0.75 -0.8491639,0.812551 -1.6607864,2.069408 -1.7929687,3.607422 -0.042649,0.0643 -1.5800218,2.374649 -3.1015626,5.820313 a 1.0001,1.0001 0 0 0 -0.083984,0.404297 c 0,1.596816 1.160384,2.841764 2.5488281,3.382812 0.6942221,0.270524 1.5017506,0.356736 2.28125,0.08594 0.7210887,-0.250508 1.3521107,-0.829365 1.7734367,-1.626953 l 1.308594,-1.447266 c 0.380393,-0.0042 0.899525,0.04829 1.857422,-0.332031 0.421122,-0.167202 0.859128,-0.428042 1.265625,-0.771485 l 1.068359,1.773438 a 1,1 0 0 0 0.08789,0.294922 l 2.376953,5.017578 c 0.06903,0.166094 0.132807,0.32537 0.199219,0.490234 -0.123791,0.745998 -0.816532,5.601165 2.539063,8.757813 l 0.519531,4.96289 a 1,1 0 0 0 0.0078,0.199219 l 0.578125,4.234375 -1.679687,7.033203 -0.339844,0.851563 c -0.731581,1.831987 0.662331,3.890625 2.634766,3.890625 1.129955,0 2.158459,-0.676241 2.605468,-1.714844 l 0.789063,-1.830078 a 1,1 0 0 0 0.05859,-0.609375 c 0.128681,-0.576018 0.481629,-1.834919 0.882812,-3.232422 l 0.511719,3.818359 -0.386719,0.970703 c -0.69412,1.739205 0.633124,3.695313 2.50586,3.695313 1.12929,0 2.143408,-0.71149 2.53125,-1.771484 a 1.0001,1.0001 0 0 0 0.002,0 l 0.746093,-2.044922 c 0.30173,-0.826394 0.375243,-1.719449 0.212891,-2.583985 L 32.855469,51.044922 32.71875,43.636719 c 1.661165,0.415209 7.164796,1.623919 13.527344,-0.794922 l 0.5625,1.615234 a 1,1 0 0 0 0.01953,0.08398 c 0.763843,2.667284 1.490763,4.373742 1.619141,4.68164 -1.339016,4.87811 -3.190729,8.116322 -4.519532,9.939453 -1.14072,1.56424 -0.261273,3.858807 1.625,4.275391 0.972528,0.214616 1.989412,-0.117595 2.646485,-0.865234 l 1.451172,-1.652344 a 1,1 0 0 0 0.236328,-0.509766 l 3.90039,-9.767578 -0.30664,-1.339844 c 0,0 -0.0426,-0.11473 -0.04492,-0.121093 0.333918,0.363708 0.685036,0.739298 0.794922,0.849609 -0.263304,5.004892 -1.362342,8.552233 -2.261719,10.607422 -0.776289,1.773711 0.578319,3.822266 2.509766,3.822266 0.995931,0 1.917911,-0.543834 2.398437,-1.416016 l 1.0625,-1.925781 a 1.0001,1.0001 0 0 0 0.09961,-0.265625 L 59.941406,52.3125 c 0.957962,2.704731 2.769517,5.191517 6.222656,4.501953 a 1,1 0 0 0 0.833985,-0.267578 1,1 0 0 0 0.02734,-1.414063 c -1.860775,-1.935206 -2.573614,-4.953979 -2.771485,-8.380859 -0.197871,-3.426879 0.112634,-7.182398 0.05273,-10.464844 -0.121206,-6.619951 -3.767009,-10.067143 -7.8125,-11.376953 -4.045492,-1.309809 -8.404003,-0.770692 -10.75586,-0.0625 -2.871224,0.865076 -6.749871,0.889136 -9.890625,0.607422 -1.570377,-0.140857 -2.961496,-0.353201 -3.953125,-0.552734 -0.495814,-0.09977 -0.894208,-0.198096 -1.144531,-0.273438 -0.05645,-0.01699 -0.06819,-0.02344 -0.107422,-0.03711 C 25.664933,15.653175 17.630913,14.188282 16.519522,14.02539 15.878424,13.04971 14.988794,12.39332 14.089835,12.140624 13.557057,11.990861 13.036439,11.929557 12.564444,11.914061 Z" />
    <path
       id="path888"
       style="fill:#4d4d4d;fill-opacity:1"
       d="m 12.564453,11.914062 c -0.471995,-0.01549 -0.895365,0.01481 -1.234375,0.04688 h -0.002 C 9.8917327,12.09734 9.1058154,13.86994 9.9882812,15.019531 l 0.6894528,0.957031 c -0.367448,0.242551 -0.512301,0.270249 -1.0136715,0.75 -0.8491639,0.812551 -1.6607864,2.069408 -1.7929687,3.607422 -0.042649,0.0643 -1.5800218,2.374649 -3.1015626,5.820313 a 1.0001,1.0001 0 0 0 -0.083984,0.404297 c 0,1.596816 1.160384,2.841764 2.5488281,3.382812 0.6942221,0.270524 1.5017506,0.356736 2.28125,0.08594 0.7210887,-0.250508 1.3521107,-0.829365 1.7734367,-1.626953 l 1.308594,-1.447266 c 0.380393,-0.0042 0.899525,0.04829 1.857422,-0.332031 0.421122,-0.167202 0.859128,-0.428042 1.265625,-0.771485 l 1.068359,1.773438 a 1,1 0 0 0 0.08789,0.294922 l 2.376953,5.017578 c 0.06903,0.166094 0.132807,0.32537 0.199219,0.490234 -0.123791,0.745998 -0.816532,5.601165 2.539063,8.757813 l 0.519531,4.96289 a 1,1 0 0 0 0.0078,0.199219 l 0.578125,4.234375 -1.679687,7.033203 -0.339844,0.851563 c -0.731581,1.831987 0.662331,3.890625 2.634766,3.890625 1.129955,0 2.158459,-0.676241 2.605468,-1.714844 l 0.789063,-1.830078 a 1,1 0 0 0 0.05859,-0.609375 c 0.128681,-0.576018 0.481629,-1.834919 0.882812,-3.232422 l 0.511719,3.818359 -0.386719,0.970703 c -0.69412,1.739205 0.633124,3.695313 2.50586,3.695313 1.12929,0 2.143408,-0.71149 2.53125,-1.771484 a 1.0001,1.0001 0 0 0 0.002,0 l 0.746093,-2.044922 c 0.30173,-0.826394 0.375243,-1.719449 0.212891,-2.583985 L 32.855469,51.044922 32.71875,43.636719 c 1.661165,0.415209 7.164796,1.623919 13.527344,-0.794922 l 0.5625,1.615234 a 1,1 0 0 0 0.01953,0.08398 c 0.763843,2.667284 1.490763,4.373742 1.619141,4.68164 -1.339016,4.87811 -3.190729,8.116322 -4.519532,9.939453 -1.14072,1.56424 -0.261273,3.858807 1.625,4.275391 0.972528,0.214616 1.989412,-0.117595 2.646485,-0.865234 l 1.451172,-1.652344 a 1,1 0 0 0 0.236328,-0.509766 l 3.90039,-9.767578 -0.30664,-1.339844 c 0,0 -0.0426,-0.11473 -0.04492,-0.121093 0.333918,0.363708 0.685036,0.739298 0.794922,0.849609 -0.263304,5.004892 -1.362342,8.552233 -2.261719,10.607422 -0.776289,1.773711 0.578319,3.822266 2.509766,3.822266 0.995931,0 1.917911,-0.543834 2.398437,-1.416016 l 1.0625,-1.925781 a 1.0001,1.0001 0 0 0 0.09961,-0.265625 L 59.941406,52.3125 c 0.957962,2.704731 2.769517,5.191517 6.222656,4.501953 a 1,1 0 0 0 0.833985,-0.267578 1,1 0 0 0 0.02734,-1.414063 c -1.860775,-1.935206 -2.573614,-4.953979 -2.771485,-8.380859 -0.197871,-3.426879 0.112634,-7.182398 0.05273,-10.464844 -0.121206,-6.619951 -3.767009,-10.067143 -7.8125,-11.376953 -4.045492,-1.309809 -8.404003,-0.770692 -10.75586,-0.0625 -2.871224,0.865076 -6.749871,0.889136 -9.890625,0.607422 -1.570377,-0.140857 -2.961496,-0.353201 -3.953125,-0.552734 -0.495814,-0.09977 -0.894208,-0.198096 -1.144531,-0.273438 -0.05645,-0.01699 -0.06819,-0.02344 -0.107422,-0.03711 C 25.664933,15.653175 17.630913,14.188282 16.519522,14.02539 15.878424,13.04971 14.988794,12.39332 14.089835,12.140624 13.557057,11.990861 13.036439,11.929557 12.564444,11.914061 Z" />
  </g>
  <g
     inkscape:groupmode="layer"
     id="g2396"
     inkscape:label="fill_black_1"
     style="display:inline"
     sodipodi:insensitive="true">
    <path
       id="path2394"
       style="fill:#000000;fill-opacity:1"
       d="m 13.691406,15.462891 c 0.203118,1.194809 -0.318596,2.396822 -1.330078,3.064453 -0.586455,0.387116 -0.252678,0.09118 -0.583984,0.408203 -0.414393,0.396525 -0.806454,1.044382 -0.859375,1.660156 -0.04387,0.510102 -0.215121,1.001024 -0.498047,1.427735 -0.09016,0.135929 -1.291401,2.158177 -2.498047,4.695312 0.073484,0.122468 0.1087232,0.251018 0.421875,0.373047 0.1166055,0.04544 0.12347,0.0362 0.1289062,0.03711 0.025253,-0.02562 0.063117,-0.06129 0.1132813,-0.15625 0.1187007,-0.224991 0.2650134,-0.43429 0.4355469,-0.623047 l 1.3085936,-1.447265 c 0.197204,-0.217917 0.430031,-0.390288 0.675781,-0.541016 0.002,-0.0013 0.0039,-0.0026 0.0059,-0.0039 0.04017,-0.02488 0.08121,-0.04834 0.123047,-0.07031 0.436384,-0.239221 0.921784,-0.385166 1.429687,-0.390625 0.692314,-0.0076 0.245625,0.08772 0.761719,-0.117187 0.0833,-0.03307 0.259485,-0.128425 0.421875,-0.265625 0.12047,-0.101736 0.253031,-0.176041 0.382812,-0.25586 0.08813,-0.177846 0.155827,-0.403936 0.183594,-0.783203 0.07745,-1.056077 0.964634,-1.86876 2.023438,-1.853515 0.03909,1.56e-4 0.07817,0.0015 0.117187,0.0039 1.101985,0.08014 1.930208,1.038674 1.84961,2.140625 -0.03036,0.414742 -0.117847,0.797058 -0.226563,1.164063 0.09004,0.110762 0.185609,0.21551 0.261719,0.341796 l 1.068359,1.773438 c 0.142945,0.238541 0.252681,0.495467 0.326172,0.763672 l 2.283203,4.818359 c 0.02127,0.04443 0.04145,0.08936 0.06055,0.134766 0.07875,0.189473 0.146052,0.360409 0.210937,0.521484 0.209504,0.520661 0.271668,1.088937 0.179688,1.642578 -0.04446,0.267928 -0.221359,1.584094 0.03711,2.976563 0.258465,1.392469 0.794815,2.674272 2.332032,3.652344 0.0039,0.0026 0.0078,0.0052 0.01172,0.0078 l 2.095703,1.345703 c 0.63703,0.408763 1.099816,1.039266 1.298829,1.769531 l 1.521484,5.589844 -0.103516,-5.574219 c -0.03749,-2.012496 1.846077,-3.511604 3.798829,-3.023437 1.458078,0.364448 6.078021,1.337698 11.474609,-0.634766 0.52724,-0.422863 1.179723,-0.659131 1.855469,-0.671875 l -0.261719,0.0039 0.648437,-0.289063 c -0.06409,-0.662562 -0.06813,-1.339894 0.0039,-2.027344 0.105659,-1.00673 0.946839,-1.775785 1.958984,-1.791015 0.07955,-0.0015 0.159119,0.0018 0.238281,0.0098 1.097879,0.115821 1.894277,1.099298 1.779297,2.197266 -0.09519,0.908175 0.08336,1.94091 0.419922,2.996094 0.03537,0.07936 0.08223,0.150691 0.111328,0.234375 0.462569,1.329733 1.214256,2.683772 2.007813,3.863281 1.341992,1.994677 2.301522,2.913265 2.699218,3.3125 0.610041,0.612672 0.932199,1.454965 0.886719,2.318359 -0.01708,0.32471 -0.09378,0.525928 -0.117187,0.839844 0.487976,-1.059088 1.490825,-1.69235 2.554687,-1.771484 l -0.923828,-1.91211 -1.982422,-5.71289 2.601563,-4.666016 0.730468,-0.220703 c -0.363956,-0.844587 0.846712,-1.16691 1.017578,-0.308594 l -2.412109,-6.873047 c 0.237655,-0.07922 -1.879721,-1.411588 -3.199219,-1.748047 -3.258573,-0.830904 -7.170141,-0.573974 -8.933593,-0.04297 -3.584018,1.079398 -7.66623,1.027665 -11.044922,0.724609 -1.682677,-0.15093 -3.160704,-0.373743 -4.283203,-0.599609 -0.566153,-0.113924 -1.017249,-0.221966 -1.421875,-0.34375 -0.148886,-0.04481 -0.296368,-0.100392 -0.232422,-0.07813 -0.708045,-0.24623 -1.300887,-0.743865 -1.666055,-1.398451 C 23.604329,18.239135 16.677042,17.138848 16.076172,17.050781 15.21259,16.924105 14.444303,16.434421 13.964844,15.705078 13.85822,15.542809 13.800695,15.558362 13.691406,15.462891 Z M 8.4726562,27.128906 c -0.034046,0.03454 -0.038902,0.03679 0.039063,0.0098 0.00666,-0.0023 -0.037431,-0.0095 -0.039063,-0.0098 z m 18.6562498,1.238282 a 0.5,0.5 0 0 1 0.429688,0.273437 0.5,0.5 0 0 1 -0.21875,0.671875 c -0.871468,0.44441 -1.467149,0.549798 -2.259766,2.445312 a 0.5,0.5 0 0 1 -0.654297,0.269532 0.5,0.5 0 0 1 -0.269531,-0.654297 c 0.871071,-2.083138 1.938248,-2.547174 2.730469,-2.951172 a 0.5,0.5 0 0 1 0.242187,-0.05469 z" />
    <path
       id="path1557-1"
       style="display:inline;fill:#000000;fill-opacity:1"
       d="m 57.630859,28.71875 v 3.503906 l -0.515625,4.716797 c 0.04686,-0.148363 0.104217,-0.29473 0.144532,-0.443359 a 2,2 0 0 1 1.865234,-1.47461 2,2 0 0 1 0.587891,0.06836 2,2 0 0 1 1.408203,2.453125 c -0.396455,1.461614 -1.174587,3.055064 -2.322266,4.482422 0.110215,0.419368 0.163885,0.714229 0.486328,1.589843 0.48684,1.322043 1.285316,2.835213 1.882813,3.416016 a 2.0002,2.0002 0 0 1 0.05273,0.05469 c -0.0033,-0.05273 -0.0087,-0.105504 -0.01172,-0.158204 -0.215459,-3.731484 0.104305,-7.545801 0.04883,-10.585937 -0.07833,-4.278433 -1.532254,-6.400944 -3.626953,-7.623047 z m 3.884766,21.117188 -0.896484,4.03125 c 0.84577,1.578686 2.083824,2.847235 3.923828,3.042968 -1.765792,-1.99924 -2.614426,-4.484646 -3.027344,-7.074218 z" />
  </g>
  <g
     inkscape:groupmode="layer"
     id="layer4"
     inkscape:label="fill_black_2"
     sodipodi:insensitive="true"
     style="display:inline">
    <path
       style="display:inline"
       d="m 51.177734,48.011719 c 0.04129,0.1012 0.169922,0.439453 0.169922,0.439453 0.173717,0.40943 0.206019,0.86508 0.0918,1.294922 -1.068124,4.010315 -2.446707,6.748225 -3.744141,8.917968 l 5.25586,-5.929687 c 0.09595,-0.763932 0.18072,-1.557306 0.234375,-2.410156 -0.398472,-0.410146 -1.073873,-1.07049 -2.007813,-2.3125 z"
       id="path1079"
       sodipodi:nodetypes="scccccss" />
    <path
       style="display:inline;fill:#000000;fill-opacity:1"
       d="m 26.0625,51.117188 0.0332,0.242187 c 0.03312,0.244982 0.02053,0.49398 -0.03711,0.734375 l -1.458985,6.105469 2.105469,-4.720703 z"
       id="path1047"
       sodipodi:nodetypes="cccccc" />
  </g>
  <g
     inkscape:groupmode="layer"
     id="layer3"
     inkscape:label="contour"
     style="display:inline"
     sodipodi:insensitive="true">
    <path
       fill="none"
       stroke="#000000"
       stroke-linecap="round"
       stroke-linejoin="round"
       stroke-miterlimit="10"
       stroke-width="2"
       d="m 16.31,22.62 c -0.264,3.606 -4.25,3.438 -4.25,3.438 l -1.571,1.736 c -1.304,2.826 -4.804,0.8261 -4.804,-1.236 1.508,-3.415 3.062,-5.75 3.062,-5.75 -0.125,-2.792 3.312,-4.625 3.312,-4.625 l -1.278,-1.772 c -0.4364,-0.5685 -0.0718,-1.388 0.6417,-1.455 1.253,-0.1186 3.615,-0.1459 4.574,1.977 0,0 8.865,0.9329 13.96,10.43 0.238,0.4441 9.877,2.308 16.07,0.4421 4.284,-1.29 17.05,-2.062 17.28,10.5 0.1169,6.406 -1.252,15.1 2.998,19.52"
       id="path1567-9-9" />
    <path
       fill="none"
       stroke="#000000"
       stroke-linecap="round"
       stroke-linejoin="round"
       stroke-miterlimit="10"
       stroke-width="2"
       d="m 59.19,37.02 c -0.4424,1.631 -1.221,3.426 -2.589,4.642 0,0 1.096,4.786 3.172,6.804 l -2.71,12.17 -1.062,1.927 c -0.3055,0.5545 -0.8885,0.8989 -1.522,0.8989 v 0 c -1.252,0 -2.096,-1.276 -1.594,-2.423 0.968,-2.212 2.16,-5.956 2.389,-11.3 0,0 -6.722,-6.584 -6.104,-12.48"
       id="path1569-9-7" />
    <path
       fill="none"
       stroke="#000000"
       stroke-linecap="round"
       stroke-linejoin="round"
       stroke-miterlimit="10"
       stroke-width="2"
       d="m 17.78,27.49 2.668,5.633 c 0,0 -1.153,6.343 3.287,9.168 l 2.422,1.557 2.513,9.234 0.9167,6.833 -0.4839,1.213 c -0.4446,1.114 0.3761,2.325 1.576,2.325 v 0 c 0.7126,0 1.349,-0.4454 1.594,-1.115 l 0.7465,-2.045 c 0.2401,-0.6576 0.2986,-1.368 0.1694,-2.056 l -1.331,-7.089 -0.1597,-8.684 c 0,0 7.241,2.141 14.32,-0.6019"
       id="path1571-7-8" />
    <path
       fill="none"
       stroke="#000000"
       stroke-linecap="round"
       stroke-linejoin="round"
       stroke-miterlimit="10"
       stroke-width="2"
       d="m 23.51,47.21 0.6035,4.42 -1.74,7.287 -0.3672,0.9192 c -0.482,1.207 0.4068,2.519 1.706,2.519 v 0 c 0.7335,0 1.397,-0.4362 1.687,-1.11 l 0.7899,-1.831"
       id="path1573-4-1" />
    <path
       fill="none"
       stroke="#000000"
       stroke-linecap="round"
       stroke-linejoin="round"
       stroke-miterlimit="10"
       stroke-width="2"
       d="m 48.9,60.26 -1.452,1.652 c -0.4179,0.4755 -1.061,0.6861 -1.68,0.5495 v 0 c -1.223,-0.2701 -1.771,-1.698 -1.033,-2.71 1.422,-1.951 3.394,-5.35 4.771,-10.52 0,0 -0.9047,-2.133 -1.716,-4.966"
       id="path1575-4-2" />
  </g>
</svg>
