<?xml version="1.0" encoding="UTF-8"?>
<svg id="emoji" version="1.1" viewBox="0 0 72 72" xmlns="http://www.w3.org/2000/svg" xmlns:cc="http://creativecommons.org/ns#" xmlns:dc="http://purl.org/dc/elements/1.1/" xmlns:rdf="http://www.w3.org/1999/02/22-rdf-syntax-ns#">
 <metadata>
  <rdf:RDF>
   <cc:Work rdf:about="">
    <dc:format>image/svg+xml</dc:format>
    <dc:type rdf:resource="http://purl.org/dc/dcmitype/StillImage"/>
    <dc:title/>
   </cc:Work>
  </rdf:RDF>
 </metadata>
 <g id="color" fill="#f4aa41">
  <path d="m26 27.3-2.5 8.71-9.7 1.44s-0.0205 3.15 0.23 3.68 2.76 4.32 2.76 4.32l4.36 2.81 1.56 1.66-1.31 2.19s-3.1 2.34-2.94 2.56 0.919 1.87 0.919 1.87l4.08 0.431s3.28-1.15 3.31-1.24 2.97-4.81 2.97-4.81 3.94-1.06 5.34 1.66l4.22-3.69 2.25-11.7s-1.84-3.62-1.88-3.75-5.28-5.05-5.28-5.05l-5.9 1.86-2.5-2.99z"/>
  <path d="m19.3 22.7-6.23 3.65-3.93 6.15s0.848 4.11 0.942 4.08 7.88 1.63 7.88 1.63l6.53-2.6-5.19-12.9z"/>
  <path d="m27.6 22 1.86-5.38-0.815-5.35-3.42 1.46-1.92 1.33s-1.17-2.83-3-2.79l-3.26 3.84-0.786 4.7-0.875 0.917s0.263 3.03 0.875 3.17c0.231 0.0527 0.672 0.0043 1.13-0.0764l-3.42 1.91s-2.42 8.4 5.21 12.3c2.35 0.13 3.15 0.652 5.5-1.48 0 0 3.45-4.36 0.579-10.5-0.028-0.224-0.0581-0.388-0.0581-0.388l2.4-3.71z"/>
  <path d="m31.8 29s13.4 8.97 4.24 21.6l-1.04 2.94 1.67 1.94 6.21 1.81 7.5-0.625 5.06-3.69 0.432-3.89-0.994-5.86-3.29-5.63-4.6-5.41-4.74-2.86-10.5-0.327z"/>
  <path d="m55.6 47.5 3.24-0.54 3.69 1.84s0.104 3.34 0.177 3.44c0.0731 0.0938-3.05 3.17-3.15 3.23-0.0938 0.0557-2.38 0.962-2.38 0.962s-3.28 0.326-4.84-0.962l2.94-2.63 0.322-5.33z"/>
 </g>
 <g id="line" fill="none" stroke="#000" stroke-linecap="round" stroke-linejoin="round" stroke-miterlimit="10" stroke-width="2">
  <path d="m23.9 35.5c-2.37 5.11-13.2 1.02-13.2 1.02-0.597-0.27-1.02-0.816-1.14-1.46l-0.37-2.01c-0.0882-0.48 0.0022-0.976 0.254-1.39l1.94-3.22c0.931-1.54 2.28-2.79 3.9-3.59l3.72-1.84s3.55-10.9 9.32-11.8c0 0 4.59 4.66-3.48 15 0 0 2.02 1.39 3.62 4.03 0 0 15.3-8.88 24.9 10.4 8.95 17.8-8.34 16.7-14.2 15.9-1.49-0.212-2.84-1.1-3.47-2.47-0.657-1.43-0.517-3.12 3.35-3.62"/>
  <path d="m15 41.2c0.333 2.92 2.07 6.16 6.67 6.82 0 0 1.46 1.81 0 3.34 0 0-1.35 1.17-2.45 2.26-1.27 1.26-0.375 3.42 1.41 3.42h3.89c0.686 0 1.32-0.352 1.69-0.932l3.72-5.89 1.26-3.96"/>
  <path d="m59 48s4.91-0.104 3.38 3.86-5.04 3.63-5.04 3.63"/>
  <path d="m16.3 20.2c-0.154-3.05 0.75-7.23 4.03-8.91 0 0 1.94-0.233 3.16 3.19"/>
 </g>
</svg>
