<?xml version="1.0" encoding="UTF-8" standalone="no"?>
<svg
   xmlns:dc="http://purl.org/dc/elements/1.1/"
   xmlns:cc="http://creativecommons.org/ns#"
   xmlns:rdf="http://www.w3.org/1999/02/22-rdf-syntax-ns#"
   xmlns:svg="http://www.w3.org/2000/svg"
   xmlns="http://www.w3.org/2000/svg"
   xmlns:sodipodi="http://sodipodi.sourceforge.net/DTD/sodipodi-0.dtd"
   xmlns:inkscape="http://www.inkscape.org/namespaces/inkscape"
   id="emoji"
   viewBox="0 0 72 72"
   version="1.1"
   sodipodi:docname="1F40E_pegasus.svg"
   inkscape:version="1.0.1 (3bc2e813f5, 2020-09-07)">
  <metadata
     id="metadata4245">
    <rdf:RDF>
      <cc:Work
         rdf:about="">
        <dc:format>image/svg+xml</dc:format>
        <dc:type
           rdf:resource="http://purl.org/dc/dcmitype/StillImage" />
        <dc:title></dc:title>
      </cc:Work>
    </rdf:RDF>
  </metadata>
  <defs
     id="defs4243" />
  <sodipodi:namedview
     pagecolor="#ffffff"
     bordercolor="#666666"
     borderopacity="1"
     objecttolerance="10"
     gridtolerance="10"
     guidetolerance="10"
     inkscape:pageopacity="0"
     inkscape:pageshadow="2"
     inkscape:window-width="1920"
     inkscape:window-height="974"
     id="namedview4241"
     showgrid="false"
     inkscape:zoom="10.483911"
     inkscape:cx="35.618463"
     inkscape:cy="37.458842"
     inkscape:window-x="-11"
     inkscape:window-y="-11"
     inkscape:window-maximized="1"
     inkscape:current-layer="emoji" />
  <g
     id="hair" />
  <g
     id="skin" />
  <g
     id="skin-shadow" />
  <g
     id="g6164">
    <g
       id="g6146"
       transform="translate(0.16563891,3.2103338)">
      <path
         fill="#d0cfce"
         stroke-width="2"
         d="m 22.79089,28.781502 1.156809,-1.757313 c -0.794822,-1.839575 -0.310521,-3.348299 0.01124,-3.994171 0.238978,-0.479579 1.414347,-4.125142 10.092114,-7.712769 0.870706,-0.360182 1.686115,-0.820181 2.424199,-1.406373 1.485521,-1.180508 4.3635,-3.646205 8.992918,-8.2992963 6.889505,-6.925995 3.065284,14.2862173 0.169351,19.6353823 -0.379306,0.70083 -2.868116,4.581342 -3.281322,5.263026 l -6.654887,8.968332"
         id="path5529" />
      <path
         fill="none"
         stroke="#000000"
         stroke-linecap="round"
         stroke-linejoin="round"
         stroke-miterlimit="10"
         stroke-width="2"
         d="m 45.635729,23.286202 c 2.87925,-6.408958 5.855891,-23.61442932 -0.104019,-17.3180873 -6.773698,7.1548033 -9.485646,9.0290503 -9.485646,9.0290503 -5.564286,2.236229 -8.202039,4.522875 -9.44672,6.109792"
         id="path5539" />
    </g>
    <g
       id="color">
      <path
         fill="#6a462f"
         d="m46.19 42.68 2.296 6.588-2.399 7.825-2.146 3.417 0.5595 1.822 2.339 0.08633 2.903-1.645 4.044-10.13-0.3066-1.341s-2.295-6.365-3.485-8.242z"
         id="path4217"
         style="fill:#9b9b9a" />
      <path
         fill="#6a462f"
         d="m57.63 26.17v6.052l-1.03 9.437 2.242 4.911s0.3713 12.35 7.955 10.1l-1.335-1.88-2.027-6.065s-0.1428-9.432-0.1355-9.829-0.6129-6.672-0.6129-6.672l-2.138-4.543z"
         id="path4219"
         style="fill:#d0cfce" />
      <path
         fill="#a57939"
         d="m10.81 13.29c1.139 3.392-2.043 5.957-2.92 8.968-1.795 1.992-3.109 6.565 0.8909 6.773 1.967-1.901 6.468-4.115 6.682-3.61l1.405 2.33s3.632 7.184 3.701 9.389c0.352 3.889 4.676 5.135 6.026 8.299 1.226 4.505 2.579 9.054 2.784 13.75-2.174 2.589 2.514 6.047 3.267 2.1 1.158-3.662-0.7283-7.357-0.6783-11.06 0.2588-2.272-0.7676-6.391 0.7768-7.603l14.46-0.2127 2.316-1.035s3.793 4.722 5.32 7.84c0.8563 3.565-0.5011 7.134-1.587 10.48-1.162 2.592 2.062 4.688 3.234 1.698 1.42-4.314 2.711-8.775 2.914-13.35-0.7532-2.525-3.181-3.228-1.85-5.98 2.198-1.901 3.502-6.832 2.991-9.85-0.3852-2.954-1.362-6.472-4.901-6.777-6.022-1.568-11.93 1.841-17.97 0.8852-3.117-0.1567-7.026 0.3004-9.103-2.579-2.368-3.529-5.572-6.668-9.713-7.966-2.63-0.6877-4.81-3.352-7.689-2.602z"
         id="path4221"
         style="fill:#ffffff" />
      <path
         fill="#6A462F"
         d="m21.87 41 0.6502 6.214 1.508 3.036-1.133 6.472-1.025 3.903 1.079 1.571 2.258-0.6175s1.876-1.641 1.876-2.016 2-7.188 2-7.188l-1.938-6.902-1.669-2.66-3.606-1.812z"
         id="path4223"
         style="fill:#9b9b9a" />
    </g>
    <g
       id="line">
      <path
         fill="none"
         stroke="#000"
         stroke-linecap="round"
         stroke-linejoin="round"
         stroke-miterlimit="10"
         stroke-width="2"
         d="m16.31 22.62c-0.264 3.606-4.25 3.438-4.25 3.438l-1.571 1.736c-1.304 2.826-4.804 0.8261-4.804-1.236 1.508-3.415 3.062-5.75 3.062-5.75-0.125-2.792 3.312-4.625 3.312-4.625l-1.278-1.772c-0.4364-0.5685-0.0718-1.388 0.6417-1.455 1.253-0.1186 3.615-0.1459 4.574 1.977 0 0 8.865 0.9329 13.96 10.43 0.238 0.4441 9.877 2.308 16.07 0.4421 4.284-1.29 17.05-2.062 17.28 10.5 0.1169 6.406-1.252 15.1 2.998 19.52"
         id="path4229" />
      <path
         fill="none"
         stroke="#000"
         stroke-linecap="round"
         stroke-linejoin="round"
         stroke-miterlimit="10"
         stroke-width="2"
         d="m59.19 37.02c-0.4424 1.631-1.221 3.426-2.589 4.642 0 0 1.096 4.786 3.172 6.804l-2.71 12.17-1.062 1.927c-0.3055 0.5545-0.8885 0.8989-1.522 0.8989v0c-1.252 0-2.096-1.276-1.594-2.423 0.968-2.212 2.16-5.956 2.389-11.3 0 0-6.722-6.584-6.104-12.48"
         id="path4231" />
      <path
         fill="none"
         stroke="#000"
         stroke-linecap="round"
         stroke-linejoin="round"
         stroke-miterlimit="10"
         stroke-width="2"
         d="m17.78 27.49 2.668 5.633s-1.153 6.343 3.287 9.168l2.422 1.557 2.513 9.234 0.9167 6.833-0.4839 1.213c-0.4446 1.114 0.3761 2.325 1.576 2.325v0c0.7126 0 1.349-0.4454 1.594-1.115l0.7465-2.045c0.2401-0.6576 0.2986-1.368 0.1694-2.056l-1.331-7.089-0.1597-8.684s7.241 2.141 14.32-0.6019"
         id="path4233" />
      <path
         fill="none"
         stroke="#000"
         stroke-linecap="round"
         stroke-linejoin="round"
         stroke-miterlimit="10"
         stroke-width="2"
         d="m23.51 47.21 0.6035 4.42-1.74 7.287-0.3672 0.9192c-0.482 1.207 0.4068 2.519 1.706 2.519h0c0.7335 0 1.397-0.4362 1.687-1.11l0.7899-1.831"
         id="path4235" />
      <path
         fill="none"
         stroke="#000"
         stroke-linecap="round"
         stroke-linejoin="round"
         stroke-miterlimit="10"
         stroke-width="2"
         d="m48.9 60.26-1.452 1.652c-0.4179 0.4755-1.061 0.6861-1.68 0.5495v0c-1.223-0.2701-1.771-1.698-1.033-2.71 1.422-1.951 3.394-5.35 4.771-10.52 0 0-0.9047-2.133-1.716-4.966"
         id="path4237" />
    </g>
    <path
       fill="#ffffff"
       stroke-width="2"
       d="M 33.883428,35.560611 C 60.969218,45.304022 65.163337,7.0326712 62.588304,11.003024 61.438299,10.207812 54.447758,15.972008 42.098784,22.379527 37.310249,24.125156 35.1299,22.2127 28.480498,26.290195"
       id="path5531"
       style="fill:#ffffff"
       sodipodi:nodetypes="cccc" />
    <path
       fill="none"
       stroke="#000000"
       stroke-linecap="round"
       stroke-linejoin="round"
       stroke-miterlimit="10"
       stroke-width="2"
       d="m 34.222088,35.531293 -0.0045,4.77e-4 c 26.699845,9.604443 30.839159,-28.1218218 28.29554,-24.203556 1.761229,-3.6808497 -8.653435,5.291667 -20.710366,10.760293 -0.54025,0.911418 -7.473507,0.598964 -13.322264,4.201688"
       id="path5537"
       sodipodi:nodetypes="ccccc" />
  </g>
</svg>
