<?xml version="1.0" encoding="UTF-8"?>
<svg id="emoji" version="1.1" viewBox="0 0 72 72" xmlns="http://www.w3.org/2000/svg" xmlns:cc="http://creativecommons.org/ns#" xmlns:dc="http://purl.org/dc/elements/1.1/" xmlns:rdf="http://www.w3.org/1999/02/22-rdf-syntax-ns#">
 <metadata>
  <rdf:RDF>
   <cc:Work rdf:about="">
    <dc:format>image/svg+xml</dc:format>
    <dc:type rdf:resource="http://purl.org/dc/dcmitype/StillImage"/>
    <dc:title/>
   </cc:Work>
  </rdf:RDF>
 </metadata>
 <path d="m12.2 13c-0.34-0.0024-0.689 0.0391-1.05 0.133l-0.355 0.111c1.14 3.39-2.04 5.96-2.92 8.97-1.8 1.99-3.11 6.57 0.891 6.77 1.97-1.9 6.47-4.11 6.68-3.61l1.4 2.33s3.63 7.18 3.7 9.39c0.352 3.89 4.68 5.13 6.03 8.3 1.23 4.5 2.58 9.05 2.78 13.8-2.17 2.59 2.51 6.05 3.27 2.1 1.16-3.66-0.73-7.36-0.68-11.1 0.259-2.27-0.767-6.39 0.777-7.6l13.3-0.195 0.0332 0.428c1.61-0.0652 3.06-0.103 4.25 0.0527 1.05 0.137 1.87 0.411 2.47 0.865 0.602 0.454 1.05 1.09 1.33 2.21 0.0492 0.192 0.155 0.366 0.303 0.498 0.281 0.858 0.595 1.64 1.08 2.16 0.0385 0.48 0.0486 0.943 0.0156 1.59-0.542 4.07-4.28 0.538-6.49 2.64-0.802 0.765-2.81 3.29-2.45 3.92 0.0239 0.042 0.0577 0.0776 0.104 0.102 0.17 0.0886 0.497 0.0475 1.04-0.178 2.52-0.519 4.31 2.58 6.61 2.36 0.923-0.0862 1.61-0.6 2.11-0.992 0.106 0.865 0.0158 2.51 0.816 3.27 1.43 1.28 4 2.28 3.72 5.97 2.62-2.79 4.79-4.64 2.06-9.29-0.967-1.62-1.53-2.51-1.05-3.64 0.263-0.346 1.02-1.2 1.29-1.6 8.44-8.82 2.08-17.8-3.72-24.3-5.9-6.63-15.4-1.44-21.9-2.13-3.1-0.329-7.03 0.301-9.1-2.58-2.37-3.53-5.57-6.67-9.71-7.97-2.3-0.602-4.26-2.72-6.64-2.73z" fill="#61b2e4"/>
 <path d="m21.9 41 0.65 6.21 1.51 3.04-1.13 6.47-1.02 3.9 1.08 1.57 2.26-0.618s1.88-1.64 1.88-2.02 2-7.19 2-7.19l-1.94-6.9-1.67-2.66-3.61-1.81z" fill="#92d3f5"/>
 <g fill="none" stroke="#000" stroke-linecap="round" stroke-linejoin="round" stroke-width="2">
  <path d="m17.8 27.5 2.67 5.63s-1.15 6.34 3.29 9.17l2.42 1.56 2.51 9.23 0.917 6.83-0.484 1.21c-0.445 1.11 0.376 2.32 1.58 2.32 0.713 0 1.35-0.445 1.59-1.12l0.746-2.04c0.24-0.658 0.299-1.37 0.169-2.06l-1.33-7.09-0.16-8.68s7.24 2.14 14.3-0.602" stroke-miterlimit="10"/>
  <path d="m23.5 47.2 0.604 4.42-1.74 7.29-0.367 0.919c-0.482 1.21 0.407 2.52 1.71 2.52 0.734 0 1.4-0.436 1.69-1.11l0.79-1.83" stroke-miterlimit="10"/>
  <path d="m16.3 22.6c-0.264 3.61-4.25 3.44-4.25 3.44l-1.57 1.74c-1.3 2.83-4.8 0.826-4.8-1.24 1.51-3.42 3.06-5.75 3.06-5.75-0.125-2.79 3.31-4.62 3.31-4.62l-1.28-1.77c-0.436-0.568-0.0718-1.39 0.642-1.46 1.25-0.119 3.62-0.146 4.57 1.98 0 0 8.86 0.933 14 10.4 0.238 0.444 9.88 2.31 16.1 0.442 18-3.42 26.2 17.1 17.3 27-0.262 0.393-1.02 1.25-1.28 1.6-0.477 1.13 0.0837 2.03 1.05 3.64 2.73 4.65 0.555 6.5-2.06 9.29 0.28-3.69-2.29-4.7-3.72-5.97-0.801-0.764-0.71-2.41-0.816-3.27-0.502 0.392-1.19 0.907-2.11 0.993-2.29 0.214-4.09-2.88-6.61-2.36-0.538 0.225-0.866 0.266-1.04 0.178-0.0458-0.024-0.0803-0.0582-0.104-0.1-0.358-0.629 1.65-3.15 2.45-3.92 2.2-2.1 5.95 1.43 6.49-2.64 0.0684-1.35-0.0397-1.9-0.23-3.43-0.316-2.55-1.42-3.83-3.06-4.46"/>
 </g>
</svg>
