<?xml version="1.0" encoding="UTF-8" standalone="no"?>
<svg
   xmlns:dc="http://purl.org/dc/elements/1.1/"
   xmlns:cc="http://creativecommons.org/ns#"
   xmlns:rdf="http://www.w3.org/1999/02/22-rdf-syntax-ns#"
   xmlns:svg="http://www.w3.org/2000/svg"
   xmlns="http://www.w3.org/2000/svg"
   xmlns:sodipodi="http://sodipodi.sourceforge.net/DTD/sodipodi-0.dtd"
   xmlns:inkscape="http://www.inkscape.org/namespaces/inkscape"
   id="emoji"
   viewBox="0 0 72 72"
   version="1.1"
   sodipodi:docname="1F407_white_rabbit.svg"
   inkscape:version="1.0.1 (3bc2e813f5, 2020-09-07)">
  <metadata
     id="metadata891">
    <rdf:RDF>
      <cc:Work
         rdf:about="">
        <dc:format>image/svg+xml</dc:format>
        <dc:type
           rdf:resource="http://purl.org/dc/dcmitype/StillImage" />
        <dc:title></dc:title>
      </cc:Work>
    </rdf:RDF>
  </metadata>
  <defs
     id="defs889" />
  <sodipodi:namedview
     pagecolor="#ffffff"
     bordercolor="#666666"
     borderopacity="1"
     objecttolerance="10"
     gridtolerance="10"
     guidetolerance="10"
     inkscape:pageopacity="0"
     inkscape:pageshadow="2"
     inkscape:window-width="1920"
     inkscape:window-height="974"
     id="namedview887"
     showgrid="false"
     inkscape:zoom="14.809959"
     inkscape:cx="44.054931"
     inkscape:cy="27.398729"
     inkscape:window-x="-11"
     inkscape:window-y="-11"
     inkscape:window-maximized="1"
     inkscape:current-layer="emoji" />
  <path
     id="path863"
     d="m 25.990234,27.328125 -2.496093,8.710937 -9.699219,1.445313 c 0,0 -0.01953,3.148387 0.230469,3.679687 0.25,0.531301 2.763672,4.316407 2.763671,4.316407 l 4.877638,2.502931 1.046191,1.961912 -1.3125,2.1875 c 0,0 -3.1009,2.3394 -2.9375,2.5625 0.1634,0.223101 0.919921,1.873047 0.919921,1.873047 L 23.462891,57 c 0,0 3.2812,-1.148488 3.3125,-1.242188 0.0313,-0.0937 2.96875,-4.8125 2.96875,-4.8125 0,0 3.93895,-1.06375 5.34375,1.65625 -0.208932,0.534843 0.626716,1.814209 1.542968,2.882813 l 6.207032,1.804687 7.5,-0.625 5.0625,-3.6875 0.43164,-3.894531 -0.99414,-5.855469 -3.285157,-5.625 -4.597656,-5.40625 -4.736328,-2.857421 C 36.031446,28.25395 33.350846,28.786475 28.494141,30.320312 Z"
     style="fill:#ffffff;fill-opacity:1"
     sodipodi:nodetypes="cccsccccsccsccccccccccccc" />
  <path
     id="path865"
     d="m 20.337891,11.291016 -3.25586,3.83789 -0.785156,4.701172 -0.875,0.917969 c 0,0 0.2625,3.026216 0.875,3.166015 l 0.105469,0.498047 -2.392578,1.335938 c 0,0 -0.01651,0.06515 -0.01953,0.07617 l -0.941406,0.552734 -3.9335936,6.146485 c 0,0 0.8476062,4.109425 0.9414066,4.078124 0.0938,-0.0313 7.875,1.63086 7.875,1.63086 l 1.283203,-0.150391 c 2.3502,0.1295 3.152347,0.652578 5.498047,-1.482422 0,0 3.448425,-4.358168 0.578125,-10.480468 l 2.339847,-4.09961 1.855469,-5.380859 -0.814453,-5.347656 -3.417969,1.457031 -1.916015,1.332031 c 0,0 -1.1659,-2.829462 -3,-2.789062 z"
     style="fill:#ffffff;fill-opacity:1"
     sodipodi:nodetypes="ccccccccccsccccccccccc" />
  <path
     fill="#ffffff"
     stroke="none"
     d="m 55.566,47.5168 3.2404,-0.5402 3.6875,1.8438 c 0,0 0.1038,3.3438 0.1769,3.4375 0.0731,0.0938 -3.0519,3.1698 -3.1456,3.2255 -0.0938,0.0557 -2.375,0.962 -2.375,0.962 0,0 -3.2812,0.3261 -4.8438,-0.962 l 2.9375,-2.6318 z"
     id="path871" />
  <g
     id="hair" />
  <g
     id="skin" />
  <g
     id="skin-shadow" />
  <path
     id="path900"
     style="fill:#f2f2f2;fill-opacity:1;stroke:none;stroke-width:1px;stroke-linecap:butt;stroke-linejoin:miter;stroke-opacity:1"
     d="m 50.221429,35.661882 c 3.404727,9.579218 0.0093,18.355382 -6.30932,21.537337 l 6.425782,-0.535157 5.0625,-3.6875 0.43164,-3.894531 -0.99414,-5.855469 z"
     sodipodi:nodetypes="ccccccc" />
  <path
     id="path905"
     style="fill:#f2f2f2;fill-opacity:1;stroke:none;stroke-width:1px;stroke-linecap:butt;stroke-linejoin:miter;stroke-opacity:1"
     d="m 59.786409,47.801641 c 0.87663,2.543925 0.07662,5.344857 -1.608068,8.041684 l 4.491581,-3.585513 -0.175781,-3.4375 z"
     sodipodi:nodetypes="ccccc" />
  <g
     id="line">
    <path
       fill="none"
       stroke="#000000"
       stroke-linecap="round"
       stroke-linejoin="round"
       stroke-miterlimit="10"
       stroke-width="2"
       d="M23.886,35.5323c-2.3651,5.1127-13.2378,1.0229-13.2378,1.0229c-0.5968-0.2704-1.0232-0.816-1.1416-1.4603l-0.3697-2.0127 c-0.0882-0.4801,0.0022-0.976,0.2543-1.394l1.9397-3.2171c0.9308-1.5438,2.2842-2.7888,3.9002-3.5877l3.7161-1.8372 c0,0,3.5476-10.8515,9.3212-11.7558c0,0,4.591,4.6606-3.478,15.0252c0,0,2.0247,1.3871,3.6172,4.0345 c0,0,15.2559-8.8797,24.9028,10.3646c8.946,17.8462-8.3356,16.735-14.2114,15.8977c-1.4891-0.2122-2.836-1.1028-3.4651-2.4691 c-0.6568-1.4264-0.5172-3.1231,3.347-3.6205"
       id="path877" />
    <path
       fill="none"
       stroke="#000000"
       stroke-linecap="round"
       stroke-linejoin="round"
       stroke-miterlimit="10"
       stroke-width="2"
       d="M15,41.1641c0.3333,2.9167,2.0746,6.1553,6.6667,6.8193c0,0,1.4608,1.8086,0,3.3389c0,0-1.351,1.1679-2.4473,2.2562 C17.9523,54.8362,18.8443,57,20.6295,57h3.8928c0.6864,0,1.3249-0.352,1.6913-0.9325l3.7193-5.8926l1.2571-3.965"
       id="path879" />
    <path
       fill="none"
       stroke="#000000"
       stroke-linecap="round"
       stroke-linejoin="round"
       stroke-miterlimit="10"
       stroke-width="2"
       d="M59,47.9834c0,0,4.9053-0.1041,3.375,3.8609s-5.0417,3.6322-5.0417,3.6322"
       id="path881" />
    <path
       fill="none"
       stroke="#000000"
       stroke-linecap="round"
       stroke-linejoin="round"
       stroke-miterlimit="10"
       stroke-width="2"
       d="M16.3125,20.2041c-0.1542-3.0543,0.75-7.2275,4.0259-8.9138c0,0,1.9372-0.233,3.1598,3.1876"
       id="path883" />
  </g>
  <path
     style="fill:#ffa5a5;fill-opacity:1;stroke:none;stroke-width:1px;stroke-linecap:butt;stroke-linejoin:miter;stroke-opacity:1"
     d="m 23.76779,23.767791 c -0.637838,-0.220839 0.392589,-3.642515 1.359469,-6.612466 0.910924,-2.79807 2.198219,-3.755355 2.489293,-3.650899 0.988755,0.354829 0.245376,4.750854 -0.877788,6.752213 -0.939324,1.673779 -2.333136,3.731991 -2.970974,3.511152 z"
     id="path910"
     sodipodi:nodetypes="zsssz" />
</svg>
