<?xml version="1.0" encoding="UTF-8" standalone="no"?>
<svg
   xmlns:dc="http://purl.org/dc/elements/1.1/"
   xmlns:cc="http://creativecommons.org/ns#"
   xmlns:rdf="http://www.w3.org/1999/02/22-rdf-syntax-ns#"
   xmlns:svg="http://www.w3.org/2000/svg"
   xmlns="http://www.w3.org/2000/svg"
   xmlns:sodipodi="http://sodipodi.sourceforge.net/DTD/sodipodi-0.dtd"
   xmlns:inkscape="http://www.inkscape.org/namespaces/inkscape"
   id="emoji"
   version="1.1"
   viewBox="0 0 72 72"
   sodipodi:docname="1F40E_unicorn.svg"
   inkscape:version="1.0.1 (3bc2e813f5, 2020-09-07)">
  <defs
     id="defs1021" />
  <sodipodi:namedview
     pagecolor="#ffffff"
     bordercolor="#666666"
     borderopacity="1"
     objecttolerance="10"
     gridtolerance="10"
     guidetolerance="10"
     inkscape:pageopacity="0"
     inkscape:pageshadow="2"
     inkscape:window-width="1920"
     inkscape:window-height="974"
     id="namedview1019"
     showgrid="false"
     inkscape:zoom="14.826489"
     inkscape:cx="36"
     inkscape:cy="44.093622"
     inkscape:window-x="-11"
     inkscape:window-y="-11"
     inkscape:window-maximized="1"
     inkscape:current-layer="emoji" />
  <metadata
     id="metadata985">
    <rdf:RDF>
      <cc:Work
         rdf:about="">
        <dc:format>image/svg+xml</dc:format>
        <dc:type
           rdf:resource="http://purl.org/dc/dcmitype/StillImage" />
        <dc:title />
      </cc:Work>
    </rdf:RDF>
  </metadata>
  <path
     d="m10.6 16.2-6.84-1.84"
     fill="#ea5a47"
     stop-color="#000000"
     stroke="#ea5a47"
     stroke-linecap="round"
     stroke-linejoin="round"
     stroke-miterlimit="10"
     stroke-width="2"
     style="font-variation-settings:normal"
     id="path987" />
  <path
     d="m46.2 42.7 2.3 6.59-2.4 7.82-2.15 3.42 0.56 1.82 2.34 0.0863 2.9-1.64 4.04-10.1-0.307-1.34s-2.3-6.36-3.48-8.24z"
     fill="#d0cfce"
     id="path989" />
  <path
     d="m57.6 26.2v6.05l-1.03 9.44 2.24 4.91s0.371 12.4 7.96 10.1l-1.34-1.88-2.03-6.06s-0.143-9.43-0.136-9.83-0.613-6.67-0.613-6.67l-2.14-4.54z"
     fill="#61b2e4"
     id="path991" />
  <path
     d="m10.8 13.3c1.14 3.39-2.04 5.96-2.92 8.97-1.8 1.99-3.11 6.56 0.891 6.77 1.97-1.9 6.47-4.12 6.68-3.61l1.4 2.33s3.63 7.18 3.7 9.39c0.352 3.89 4.68 5.14 6.03 8.3 1.23 4.5 2.58 9.05 2.78 13.8-2.17 2.59 2.51 6.05 3.27 2.1 1.16-3.66-0.728-7.36-0.678-11.1 0.259-2.27-0.768-6.39 0.777-7.6l14.5-0.213 2.32-1.04s3.79 4.72 5.32 7.84c0.856 3.56-0.501 7.13-1.59 10.5-1.16 2.59 2.06 4.69 3.23 1.7 1.42-4.31 2.71-8.78 2.91-13.4-0.753-2.52-3.18-3.23-1.85-5.98 2.2-1.9 3.5-6.83 2.99-9.85-0.385-2.95-1.36-6.47-4.9-6.78-6.02-1.57-11.9 1.84-18 0.885-3.12-0.157-7.03 0.3-9.1-2.58-2.37-3.53-5.57-6.67-9.71-7.97-2.63-0.688-4.81-3.35-7.69-2.6z"
     fill="#fff"
     id="path993" />
  <path
     d="m21.9 41 0.65 6.21 1.51 3.04-1.13 6.47-1.02 3.9 1.08 1.57 2.26-0.618s1.88-1.64 1.88-2.02 2-7.19 2-7.19l-1.94-6.9-1.67-2.66-3.61-1.81z"
     fill="#d0cfce"
     id="path995" />
  <path
     d="m 16.3,22.6 c -0.264,3.61 -4.25,3.44 -4.25,3.44 l -1.57,1.74 C 9.18,30.61 5.68,28.606 5.68,26.54 7.19,23.12 8.74,20.79 8.74,20.79 8.615,18 12.05,16.17 12.05,16.17 L 10.77,14.4 c -0.436,-0.568 -0.0718,-1.39 0.642,-1.46 1.25,-0.119 3.62,-0.146 4.57,1.98 0,0 8.86,0.933 14,10.4 m 3.930786,0.879003 c 3.426923,0.458242 8.419793,0.689029 12.169214,-0.437003 4.28,-1.29 17,-2.06 17.3,10.5 0.117,6.41 -1.25,15.1 3,19.5"
     id="path997"
     style="fill:none;stroke:#000000;stroke-width:2;stroke-linecap:round;stroke-linejoin:round;stroke-miterlimit:10"
     sodipodi:nodetypes="cccccccccccccc" />
  <path
     d="m 59.2,37 c -0.442,1.63 -1.22,3.43 -2.59,4.64 0,0 1.1,4.79 3.17,6.8 l -2.71,12.2 -1.06,1.93 c -0.306,0.554 -0.888,0.899 -1.52,0.899 -1.25,0 -2.1,-1.28 -1.59,-2.42 0.968,-2.21 2.16,-5.96 2.39,-11.3 0,0 -6.72,-6.58 -6.1,-12.5"
     id="path999"
     style="fill:none;stroke:#000000;stroke-width:2;stroke-linecap:round;stroke-linejoin:round;stroke-miterlimit:10" />
  <path
     d="m 17.8,27.5 2.67,5.63 c 0,0 -1.15,6.34 3.29,9.17 l 2.42,1.56 2.51,9.23 0.917,6.83 -0.484,1.21 c -0.445,1.11 0.376,2.32 1.58,2.32 0.713,0 1.35,-0.445 1.59,-1.12 l 0.746,-2.04 c 0.24,-0.658 0.299,-1.37 0.169,-2.06 l -1.33,-7.09 -0.16,-8.68 c 0,0 7.24,2.14 14.3,-0.602"
     id="path1001"
     style="fill:none;stroke:#000000;stroke-width:2;stroke-linecap:round;stroke-linejoin:round;stroke-miterlimit:10" />
  <path
     d="m 23.5,47.2 0.604,4.42 -1.74,7.29 -0.367,0.919 c -0.482,1.21 0.407,2.52 1.71,2.52 0.734,0 1.4,-0.436 1.69,-1.11 l 0.79,-1.83"
     id="path1003"
     style="fill:none;stroke:#000000;stroke-width:2;stroke-linecap:round;stroke-linejoin:round;stroke-miterlimit:10" />
  <path
     d="m 48.9,60.3 -1.45,1.65 c -0.418,0.476 -1.06,0.686 -1.68,0.55 -1.22,-0.27 -1.77,-1.7 -1.03,-2.71 1.42,-1.95 3.39,-5.35 4.77,-10.5 0,0 -0.905,-2.13 -1.72,-4.97"
     id="path1005"
     style="fill:none;stroke:#000000;stroke-width:2;stroke-linecap:round;stroke-linejoin:round;stroke-miterlimit:10" />
  <g
     stroke="#000"
     stroke-linecap="round"
     stroke-linejoin="round"
     stroke-miterlimit="10"
     stroke-width="2"
     id="g1016">
    <path
       d="m10.1 16.8-5.82-2.19"
       fill="#ea5a47"
       stop-color="#000000"
       style="font-variation-settings:normal"
       id="path1008" />
    <path
       d="m24.6 21.8c11-2.05 7.14 12.7 6.63 14.5-2.2-2.37-2.69-10.8-6.63-14.5z"
       fill="#61b2e4"
       stop-color="#000000"
       style="font-variation-settings:normal"
       id="path1010" />
    <path
       d="m20.1 18c11-2.05 7.14 12.7 6.63 14.5-2.2-2.37-2.69-10.8-6.63-14.5z"
       fill="#e67a94"
       stop-color="#000000"
       style="font-variation-settings:normal"
       id="path1012" />
    <path
       d="m16 14.9c11-2.05 7.14 12.7 6.63 14.5-2.2-2.37-2.69-10.8-6.63-14.5z"
       fill="#92d3f5"
       stop-color="#000000"
       style="font-variation-settings:normal"
       id="path1014" />
  </g>
</svg>
