<?xml version="1.0" encoding="UTF-8"?>
<svg id="emoji" version="1.1" viewBox="0 0 72 72" xmlns="http://www.w3.org/2000/svg" xmlns:cc="http://creativecommons.org/ns#" xmlns:dc="http://purl.org/dc/elements/1.1/" xmlns:rdf="http://www.w3.org/1999/02/22-rdf-syntax-ns#">
 <metadata>
  <rdf:RDF>
   <cc:Work rdf:about="">
    <dc:format>image/svg+xml</dc:format>
    <dc:type rdf:resource="http://purl.org/dc/dcmitype/StillImage"/>
    <dc:title/>
   </cc:Work>
  </rdf:RDF>
 </metadata>
 <g id="color">
  <path d="m46.6 50.7c-3.22 2.58-11 6.75-22.2-0.728 0 0-6.5-2.98-3.77-12.9 0.0185-0.0673 0.0415-0.136 0.0669-0.201l4.14-10.6c0.0787-0.201 0.119-0.416 0.119-0.632v-2.43c0-1.39 1.54-2.21 2.7-1.44v0c0.166 0.11 0.345 0.191 0.539 0.238 0.708 0.172 2.76 1.17 2.76 6.96 0 9.06 8.41 7 8.41 6s0.936-12 10.3-10 13.1 9.68 7.48 22.3c0 0-2.6 2.09-4.18 3.67-2 2-6 0-6 0" fill="#fff" stroke="#9b9b9a" stroke-linecap="round" stroke-linejoin="round" stroke-miterlimit="10" stroke-width="2"/>
  <path d="m25 27s1.76 2.64-2.15 3.79c-0.53 0.156-0.986 0.505-1.27 0.978-0.843 1.38-2.79 3.9-4.57 1.23-1.09-1.63-0.697-2.97-0.115-3.84 0.612-0.924 0.408-2.18-0.458-2.87-0.841-0.671-2-1.28-3.43-1.28-1.92 0 0.658-1.63 2.77-2.81 0.864-0.483 1.16-1.48 0.968-2.45-0.0469-0.234 0.108-0.418 0.266-0.734 1-2 1-4 2-5 1.58-1.58 2-3 7-1 5.41 2.17-0.833 6.17-0.833 6.17" fill="#EA5A47" stroke="#EA5A47" stroke-miterlimit="10" stroke-width="2"/>
  <path d="m17 26.3c-0.958-0.866-2.28-1.66-3.91-1.66-2.19 0 0.75-2.11 3.15-3.63" fill="#FCEA2B"/>
 </g>
 <g id="line" fill="none" stroke="#000" stroke-linecap="round" stroke-linejoin="round" stroke-miterlimit="10" stroke-width="2">
  <path d="m55.3 42s0 10-4.68 10c0 0 2.81-6-0.936-9"/>
  <path d="m32.2 54.1-0.702 5.33s-2.42 0.583-2.42 1.58"/>
  <path d="m33.8 60s0-1-1.87-1"/>
  <path d="m40.7 54.1-0.702 5.33s-2.42 0.583-2.42 1.58"/>
  <path d="m42.2 60s0-1-1.87-1"/>
  <path d="m26.3 36s-3.74 9 3.74 13 15 1 15.9-3-2.03-3.67-5.22-5.83"/>
  <path d="m25.2 19.2s6.25-4 0.833-6.17c-5-2-5.42-0.581-7 1-1 1-1 3-2 5-0.158 0.316-0.312 0.5-0.266 0.734 0.194 0.971-0.104 1.97-0.968 2.45-2.11 1.18-4.68 2.81-2.77 2.81 1.43 0 2.59 0.612 3.43 1.28 0.866 0.692 1.07 1.95 0.458 2.87-0.582 0.879-0.972 2.21 0.115 3.84 1.78 2.67 3.73 0.154 4.57-1.23 0.288-0.472 0.743-0.822 1.27-0.978 3.91-1.15 2.15-3.79 2.15-3.79"/>
  <path d="m28 22s3 0 3 7c0 9.06 8.41 7 8.41 6s0.936-12 10.3-10 13.1 9.67 7.48 22.3"/>
  <path d="m48.3 49.2s-8.89 10.8-23.9 0.833c0 0-6.55-3-3.74-13"/>
 </g>
</svg>
